<?xml version="1.0" encoding="utf-8" standalone="no"?>
<!DOCTYPE svg PUBLIC "-//W3C//DTD SVG 1.1//EN"
  "http://www.w3.org/Graphics/SVG/1.1/DTD/svg11.dtd">
<svg xmlns:xlink="http://www.w3.org/1999/xlink" width="362.578875pt" height="174.100258pt" viewBox="0 0 362.578875 174.100258" xmlns="http://www.w3.org/2000/svg" version="1.1">
 <metadata>
  <rdf:RDF xmlns:dc="http://purl.org/dc/elements/1.1/" xmlns:cc="http://creativecommons.org/ns#" xmlns:rdf="http://www.w3.org/1999/02/22-rdf-syntax-ns#">
   <cc:Work>
    <dc:type rdf:resource="http://purl.org/dc/dcmitype/StillImage"/>
    <dc:date>2024-04-09T02:32:54.322504</dc:date>
    <dc:format>image/svg+xml</dc:format>
    <dc:creator>
     <cc:Agent>
      <dc:title>Matplotlib v3.8.0, https://matplotlib.org/</dc:title>
     </cc:Agent>
    </dc:creator>
   </cc:Work>
  </rdf:RDF>
 </metadata>
 <defs>
  <style type="text/css">*{stroke-linejoin: round; stroke-linecap: butt}</style>
 </defs>
 <g id="figure_1">
  <g id="patch_1">
   <path d="M 0 174.100258 
L 362.578875 174.100258 
L 362.578875 0 
L 0 0 
z
" style="fill: #ffffff"/>
  </g>
  <g id="axes_1">
   <g id="patch_2">
    <path d="M 45.859875 141.092508 
L 313.699875 141.092508 
L 313.699875 7.2 
L 45.859875 7.2 
z
" style="fill: #ffffff"/>
   </g>
   <g id="matplotlib.axis_1">
    <g id="xtick_1">
     <g id="line2d_1">
      <defs>
       <path id="m42064c2f8b" d="M 0 0 
L 0 -3 
" style="stroke: #000000; stroke-width: 0.5"/>
      </defs>
      <g>
       <use xlink:href="#m42064c2f8b" x="58.03442" y="141.092508" style="stroke: #000000; stroke-width: 0.5"/>
      </g>
     </g>
     <g id="text_1">
      <!-- −1.00 -->
      <g transform="translate(44.550483 150.779133) scale(0.088 -0.088)">
       <defs>
        <path id="DejaVuSerif-2212" d="M 678 2259 
L 4684 2259 
L 4684 1753 
L 678 1753 
L 678 2259 
z
" transform="scale(0.015625)"/>
        <path id="DejaVuSerif-31" d="M 909 0 
L 909 331 
L 1722 331 
L 1722 4213 
L 781 3603 
L 781 4013 
L 1919 4750 
L 2350 4750 
L 2350 331 
L 3163 331 
L 3163 0 
L 909 0 
z
" transform="scale(0.015625)"/>
        <path id="DejaVuSerif-2e" d="M 603 325 
Q 603 500 722 622 
Q 841 744 1019 744 
Q 1191 744 1312 622 
Q 1434 500 1434 325 
Q 1434 153 1312 31 
Q 1191 -91 1019 -91 
Q 841 -91 722 29 
Q 603 150 603 325 
z
" transform="scale(0.015625)"/>
        <path id="DejaVuSerif-30" d="M 2034 219 
Q 2513 219 2750 744 
Q 2988 1269 2988 2328 
Q 2988 3391 2750 3916 
Q 2513 4441 2034 4441 
Q 1556 4441 1318 3916 
Q 1081 3391 1081 2328 
Q 1081 1269 1318 744 
Q 1556 219 2034 219 
z
M 2034 -91 
Q 1275 -91 848 546 
Q 422 1184 422 2328 
Q 422 3475 848 4112 
Q 1275 4750 2034 4750 
Q 2797 4750 3222 4112 
Q 3647 3475 3647 2328 
Q 3647 1184 3222 546 
Q 2797 -91 2034 -91 
z
" transform="scale(0.015625)"/>
       </defs>
       <use xlink:href="#DejaVuSerif-2212"/>
       <use xlink:href="#DejaVuSerif-31" x="83.789062"/>
       <use xlink:href="#DejaVuSerif-2e" x="147.412109"/>
       <use xlink:href="#DejaVuSerif-30" x="179.199219"/>
       <use xlink:href="#DejaVuSerif-30" x="242.822266"/>
      </g>
     </g>
    </g>
    <g id="xtick_2">
     <g id="line2d_2">
      <g>
       <use xlink:href="#m42064c2f8b" x="88.470784" y="141.092508" style="stroke: #000000; stroke-width: 0.5"/>
      </g>
     </g>
     <g id="text_2">
      <!-- −0.75 -->
      <g transform="translate(74.986847 150.779133) scale(0.088 -0.088)">
       <defs>
        <path id="DejaVuSerif-37" d="M 3609 4347 
L 1784 0 
L 1319 0 
L 3059 4153 
L 903 4153 
L 903 3578 
L 538 3578 
L 538 4666 
L 3609 4666 
L 3609 4347 
z
" transform="scale(0.015625)"/>
        <path id="DejaVuSerif-35" d="M 3219 4666 
L 3219 4153 
L 1081 4153 
L 1081 2816 
Q 1244 2928 1461 2984 
Q 1678 3041 1947 3041 
Q 2703 3041 3140 2622 
Q 3578 2203 3578 1478 
Q 3578 738 3136 323 
Q 2694 -91 1894 -91 
Q 1572 -91 1234 -12 
Q 897 66 544 225 
L 544 1131 
L 897 1131 
Q 925 688 1179 453 
Q 1434 219 1894 219 
Q 2388 219 2653 544 
Q 2919 869 2919 1478 
Q 2919 2084 2655 2407 
Q 2391 2731 1894 2731 
Q 1613 2731 1398 2631 
Q 1184 2531 1019 2322 
L 750 2322 
L 750 4666 
L 3219 4666 
z
" transform="scale(0.015625)"/>
       </defs>
       <use xlink:href="#DejaVuSerif-2212"/>
       <use xlink:href="#DejaVuSerif-30" x="83.789062"/>
       <use xlink:href="#DejaVuSerif-2e" x="147.412109"/>
       <use xlink:href="#DejaVuSerif-37" x="179.199219"/>
       <use xlink:href="#DejaVuSerif-35" x="242.822266"/>
      </g>
     </g>
    </g>
    <g id="xtick_3">
     <g id="line2d_3">
      <g>
       <use xlink:href="#m42064c2f8b" x="118.907148" y="141.092508" style="stroke: #000000; stroke-width: 0.5"/>
      </g>
     </g>
     <g id="text_3">
      <!-- −0.50 -->
      <g transform="translate(105.42321 150.779133) scale(0.088 -0.088)">
       <use xlink:href="#DejaVuSerif-2212"/>
       <use xlink:href="#DejaVuSerif-30" x="83.789062"/>
       <use xlink:href="#DejaVuSerif-2e" x="147.412109"/>
       <use xlink:href="#DejaVuSerif-35" x="179.199219"/>
       <use xlink:href="#DejaVuSerif-30" x="242.822266"/>
      </g>
     </g>
    </g>
    <g id="xtick_4">
     <g id="line2d_4">
      <g>
       <use xlink:href="#m42064c2f8b" x="149.343511" y="141.092508" style="stroke: #000000; stroke-width: 0.5"/>
      </g>
     </g>
     <g id="text_4">
      <!-- −0.25 -->
      <g transform="translate(135.859574 150.779133) scale(0.088 -0.088)">
       <defs>
        <path id="DejaVuSerif-32" d="M 819 3553 
L 469 3553 
L 469 4384 
Q 803 4563 1142 4656 
Q 1481 4750 1806 4750 
Q 2534 4750 2956 4397 
Q 3378 4044 3378 3438 
Q 3378 2753 2422 1800 
Q 2347 1728 2309 1691 
L 1131 513 
L 3078 513 
L 3078 1088 
L 3444 1088 
L 3444 0 
L 434 0 
L 434 341 
L 1850 1753 
Q 2319 2222 2519 2614 
Q 2719 3006 2719 3438 
Q 2719 3909 2473 4175 
Q 2228 4441 1797 4441 
Q 1350 4441 1106 4219 
Q 863 3997 819 3553 
z
" transform="scale(0.015625)"/>
       </defs>
       <use xlink:href="#DejaVuSerif-2212"/>
       <use xlink:href="#DejaVuSerif-30" x="83.789062"/>
       <use xlink:href="#DejaVuSerif-2e" x="147.412109"/>
       <use xlink:href="#DejaVuSerif-32" x="179.199219"/>
       <use xlink:href="#DejaVuSerif-35" x="242.822266"/>
      </g>
     </g>
    </g>
    <g id="xtick_5">
     <g id="line2d_5">
      <g>
       <use xlink:href="#m42064c2f8b" x="179.779875" y="141.092508" style="stroke: #000000; stroke-width: 0.5"/>
      </g>
     </g>
     <g id="text_5">
      <!-- 0.00 -->
      <g transform="translate(169.983 150.779133) scale(0.088 -0.088)">
       <use xlink:href="#DejaVuSerif-30"/>
       <use xlink:href="#DejaVuSerif-2e" x="63.623047"/>
       <use xlink:href="#DejaVuSerif-30" x="95.410156"/>
       <use xlink:href="#DejaVuSerif-30" x="159.033203"/>
      </g>
     </g>
    </g>
    <g id="xtick_6">
     <g id="line2d_6">
      <g>
       <use xlink:href="#m42064c2f8b" x="210.216239" y="141.092508" style="stroke: #000000; stroke-width: 0.5"/>
      </g>
     </g>
     <g id="text_6">
      <!-- 0.25 -->
      <g transform="translate(200.419364 150.779133) scale(0.088 -0.088)">
       <use xlink:href="#DejaVuSerif-30"/>
       <use xlink:href="#DejaVuSerif-2e" x="63.623047"/>
       <use xlink:href="#DejaVuSerif-32" x="95.410156"/>
       <use xlink:href="#DejaVuSerif-35" x="159.033203"/>
      </g>
     </g>
    </g>
    <g id="xtick_7">
     <g id="line2d_7">
      <g>
       <use xlink:href="#m42064c2f8b" x="240.652602" y="141.092508" style="stroke: #000000; stroke-width: 0.5"/>
      </g>
     </g>
     <g id="text_7">
      <!-- 0.50 -->
      <g transform="translate(230.855727 150.779133) scale(0.088 -0.088)">
       <use xlink:href="#DejaVuSerif-30"/>
       <use xlink:href="#DejaVuSerif-2e" x="63.623047"/>
       <use xlink:href="#DejaVuSerif-35" x="95.410156"/>
       <use xlink:href="#DejaVuSerif-30" x="159.033203"/>
      </g>
     </g>
    </g>
    <g id="xtick_8">
     <g id="line2d_8">
      <g>
       <use xlink:href="#m42064c2f8b" x="271.088966" y="141.092508" style="stroke: #000000; stroke-width: 0.5"/>
      </g>
     </g>
     <g id="text_8">
      <!-- 0.75 -->
      <g transform="translate(261.292091 150.779133) scale(0.088 -0.088)">
       <use xlink:href="#DejaVuSerif-30"/>
       <use xlink:href="#DejaVuSerif-2e" x="63.623047"/>
       <use xlink:href="#DejaVuSerif-37" x="95.410156"/>
       <use xlink:href="#DejaVuSerif-35" x="159.033203"/>
      </g>
     </g>
    </g>
    <g id="xtick_9">
     <g id="line2d_9">
      <g>
       <use xlink:href="#m42064c2f8b" x="301.52533" y="141.092508" style="stroke: #000000; stroke-width: 0.5"/>
      </g>
     </g>
     <g id="text_9">
      <!-- 1.00 -->
      <g transform="translate(291.728455 150.779133) scale(0.088 -0.088)">
       <use xlink:href="#DejaVuSerif-31"/>
       <use xlink:href="#DejaVuSerif-2e" x="63.623047"/>
       <use xlink:href="#DejaVuSerif-30" x="95.410156"/>
       <use xlink:href="#DejaVuSerif-30" x="159.033203"/>
      </g>
     </g>
    </g>
    <g id="text_10">
     <!-- $x$ -->
     <g transform="translate(176.899875 164.903758) scale(0.096 -0.096)">
      <defs>
       <path id="DejaVuSans-Oblique-78" d="M 3841 3500 
L 2234 1784 
L 3219 0 
L 2559 0 
L 1819 1388 
L 531 0 
L -166 0 
L 1556 1844 
L 641 3500 
L 1300 3500 
L 1972 2234 
L 3144 3500 
L 3841 3500 
z
" transform="scale(0.015625)"/>
      </defs>
      <use xlink:href="#DejaVuSans-Oblique-78" transform="translate(0 0.3125)"/>
     </g>
    </g>
   </g>
   <g id="matplotlib.axis_2">
    <g id="ytick_1">
     <g id="line2d_10">
      <defs>
       <path id="me84533bc30" d="M 0 0 
L 3 0 
" style="stroke: #000000; stroke-width: 0.5"/>
      </defs>
      <g>
       <use xlink:href="#me84533bc30" x="45.859875" y="122.844436" style="stroke: #000000; stroke-width: 0.5"/>
      </g>
     </g>
     <g id="text_11">
      <!-- −0.4 -->
      <g transform="translate(21.491 126.187748) scale(0.088 -0.088)">
       <defs>
        <path id="DejaVuSerif-34" d="M 2234 1581 
L 2234 4063 
L 641 1581 
L 2234 1581 
z
M 3609 0 
L 1484 0 
L 1484 331 
L 2234 331 
L 2234 1247 
L 197 1247 
L 197 1588 
L 2241 4750 
L 2859 4750 
L 2859 1581 
L 3750 1581 
L 3750 1247 
L 2859 1247 
L 2859 331 
L 3609 331 
L 3609 0 
z
" transform="scale(0.015625)"/>
       </defs>
       <use xlink:href="#DejaVuSerif-2212"/>
       <use xlink:href="#DejaVuSerif-30" x="83.789062"/>
       <use xlink:href="#DejaVuSerif-2e" x="147.412109"/>
       <use xlink:href="#DejaVuSerif-34" x="179.199219"/>
      </g>
     </g>
    </g>
    <g id="ytick_2">
     <g id="line2d_11">
      <g>
       <use xlink:href="#me84533bc30" x="45.859875" y="98.495345" style="stroke: #000000; stroke-width: 0.5"/>
      </g>
     </g>
     <g id="text_12">
      <!-- −0.2 -->
      <g transform="translate(21.491 101.838657) scale(0.088 -0.088)">
       <use xlink:href="#DejaVuSerif-2212"/>
       <use xlink:href="#DejaVuSerif-30" x="83.789062"/>
       <use xlink:href="#DejaVuSerif-2e" x="147.412109"/>
       <use xlink:href="#DejaVuSerif-32" x="179.199219"/>
      </g>
     </g>
    </g>
    <g id="ytick_3">
     <g id="line2d_12">
      <g>
       <use xlink:href="#me84533bc30" x="45.859875" y="74.146254" style="stroke: #000000; stroke-width: 0.5"/>
      </g>
     </g>
     <g id="text_13">
      <!-- 0.0 -->
      <g transform="translate(28.865125 77.489567) scale(0.088 -0.088)">
       <use xlink:href="#DejaVuSerif-30"/>
       <use xlink:href="#DejaVuSerif-2e" x="63.623047"/>
       <use xlink:href="#DejaVuSerif-30" x="95.410156"/>
      </g>
     </g>
    </g>
    <g id="ytick_4">
     <g id="line2d_13">
      <g>
       <use xlink:href="#me84533bc30" x="45.859875" y="49.797163" style="stroke: #000000; stroke-width: 0.5"/>
      </g>
     </g>
     <g id="text_14">
      <!-- 0.2 -->
      <g transform="translate(28.865125 53.140476) scale(0.088 -0.088)">
       <use xlink:href="#DejaVuSerif-30"/>
       <use xlink:href="#DejaVuSerif-2e" x="63.623047"/>
       <use xlink:href="#DejaVuSerif-32" x="95.410156"/>
      </g>
     </g>
    </g>
    <g id="ytick_5">
     <g id="line2d_14">
      <g>
       <use xlink:href="#me84533bc30" x="45.859875" y="25.448072" style="stroke: #000000; stroke-width: 0.5"/>
      </g>
     </g>
     <g id="text_15">
      <!-- 0.4 -->
      <g transform="translate(28.865125 28.791385) scale(0.088 -0.088)">
       <use xlink:href="#DejaVuSerif-30"/>
       <use xlink:href="#DejaVuSerif-2e" x="63.623047"/>
       <use xlink:href="#DejaVuSerif-34" x="95.410156"/>
      </g>
     </g>
    </g>
    <g id="text_16">
     <!-- $y$ -->
     <g transform="translate(14.475 77.026254) rotate(-90) scale(0.096 -0.096)">
      <defs>
       <path id="DejaVuSans-Oblique-79" d="M 1588 -325 
Q 1188 -997 936 -1164 
Q 684 -1331 294 -1331 
L -159 -1331 
L -63 -850 
L 269 -850 
Q 509 -850 678 -719 
Q 847 -588 1056 -206 
L 1234 128 
L 459 3500 
L 1069 3500 
L 1650 819 
L 3256 3500 
L 3859 3500 
L 1588 -325 
z
" transform="scale(0.015625)"/>
      </defs>
      <use xlink:href="#DejaVuSans-Oblique-79" transform="translate(0 0.3125)"/>
     </g>
    </g>
   </g>
   <g id="patch_3">
    <path d="M 45.859875 141.092508 
L 45.859875 7.2 
" style="fill: none; stroke: #000000; stroke-width: 0.625; stroke-linejoin: miter; stroke-linecap: square"/>
   </g>
   <g id="patch_4">
    <path d="M 313.699875 141.092508 
L 313.699875 7.2 
" style="fill: none; stroke: #000000; stroke-width: 0.625; stroke-linejoin: miter; stroke-linecap: square"/>
   </g>
   <g id="patch_5">
    <path d="M 45.859875 141.092508 
L 313.699875 141.092508 
" style="fill: none; stroke: #000000; stroke-width: 0.625; stroke-linejoin: miter; stroke-linecap: square"/>
   </g>
   <g id="patch_6">
    <path d="M 45.859875 7.2 
L 313.699875 7.2 
" style="fill: none; stroke: #000000; stroke-width: 0.625; stroke-linejoin: miter; stroke-linecap: square"/>
   </g>
   <g id="legend_1">
    <g id="patch_7">
     <path d="M 318.099875 40.0735 
L 355.378875 40.0735 
L 355.378875 11.6 
L 318.099875 11.6 
z
" style="fill: #ffffff; stroke: #000000; stroke-width: 0.5; stroke-linejoin: miter"/>
    </g>
    <g id="PathCollection_1">
     <defs>
      <path id="m4e81510ded" d="M 0 2.4 
C 0.636487 2.4 1.246992 2.147121 1.697056 1.697056 
C 2.147121 1.246992 2.4 0.636487 2.4 0 
C 2.4 -0.636487 2.147121 -1.246992 1.697056 -1.697056 
C 1.246992 -2.147121 0.636487 -2.4 0 -2.4 
C -0.636487 -2.4 -1.246992 -2.147121 -1.697056 -1.697056 
C -2.147121 -1.246992 -2.4 -0.636487 -2.4 0 
C -2.4 0.636487 -2.147121 1.246992 -1.697056 1.697056 
C -1.246992 2.147121 -0.636487 2.4 0 2.4 
z
" style="stroke: #0173b2; stroke-width: 0.8"/>
     </defs>
     <g>
      <use xlink:href="#m4e81510ded" x="330.419875" y="19.496625" style="fill: #0173b2; stroke: #0173b2; stroke-width: 0.8"/>
     </g>
    </g>
    <g id="text_17">
     <!-- 1 -->
     <g transform="translate(346.259875 21.806625) scale(0.088 -0.088)">
      <use xlink:href="#DejaVuSerif-31"/>
     </g>
    </g>
    <g id="PathCollection_2">
     <defs>
      <path id="m632af38b78" d="M 0 2.4 
C 0.636487 2.4 1.246992 2.147121 1.697056 1.697056 
C 2.147121 1.246992 2.4 0.636487 2.4 0 
C 2.4 -0.636487 2.147121 -1.246992 1.697056 -1.697056 
C 1.246992 -2.147121 0.636487 -2.4 0 -2.4 
C -0.636487 -2.4 -1.246992 -2.147121 -1.697056 -1.697056 
C -2.147121 -1.246992 -2.4 -0.636487 -2.4 0 
C -2.4 0.636487 -2.147121 1.246992 -1.697056 1.697056 
C -1.246992 2.147121 -0.636487 2.4 0 2.4 
z
" style="stroke: #de8f05; stroke-opacity: 0.8; stroke-width: 0.8"/>
     </defs>
     <g>
      <use xlink:href="#m632af38b78" x="330.419875" y="32.413375" style="fill: #de8f05; fill-opacity: 0.8; stroke: #de8f05; stroke-opacity: 0.8; stroke-width: 0.8"/>
     </g>
    </g>
    <g id="text_18">
     <!-- 2 -->
     <g transform="translate(346.259875 34.723375) scale(0.088 -0.088)">
      <use xlink:href="#DejaVuSerif-32"/>
     </g>
    </g>
   </g>
   <g id="PathCollection_3">
    <g>
     <use xlink:href="#m4e81510ded" x="58.03442" y="74.146254" style="fill: #0173b2; stroke: #0173b2; stroke-width: 0.8"/>
     <use xlink:href="#m4e81510ded" x="58.237814" y="78.587972" style="fill: #0173b2; stroke: #0173b2; stroke-width: 0.8"/>
     <use xlink:href="#m4e81510ded" x="58.847428" y="83.01483" style="fill: #0173b2; stroke: #0173b2; stroke-width: 0.8"/>
     <use xlink:href="#m4e81510ded" x="59.864896" y="87.411749" style="fill: #0173b2; stroke: #0173b2; stroke-width: 0.8"/>
     <use xlink:href="#m4e81510ded" x="61.292962" y="91.763199" style="fill: #0173b2; stroke: #0173b2; stroke-width: 0.8"/>
     <use xlink:href="#m4e81510ded" x="63.135511" y="96.052959" style="fill: #0173b2; stroke: #0173b2; stroke-width: 0.8"/>
     <use xlink:href="#m4e81510ded" x="65.397611" y="100.263839" style="fill: #0173b2; stroke: #0173b2; stroke-width: 0.8"/>
     <use xlink:href="#m4e81510ded" x="68.085578" y="104.377368" style="fill: #0173b2; stroke: #0173b2; stroke-width: 0.8"/>
     <use xlink:href="#m4e81510ded" x="71.207044" y="108.373428" style="fill: #0173b2; stroke: #0173b2; stroke-width: 0.8"/>
     <use xlink:href="#m4e81510ded" x="74.771044" y="112.229804" style="fill: #0173b2; stroke: #0173b2; stroke-width: 0.8"/>
     <use xlink:href="#m4e81510ded" x="78.788115" y="115.921642" style="fill: #0173b2; stroke: #0173b2; stroke-width: 0.8"/>
     <use xlink:href="#m4e81510ded" x="83.270403" y="119.420757" style="fill: #0173b2; stroke: #0173b2; stroke-width: 0.8"/>
     <use xlink:href="#m4e81510ded" x="88.231771" y="122.69476" style="fill: #0173b2; stroke: #0173b2; stroke-width: 0.8"/>
     <use xlink:href="#m4e81510ded" x="93.687894" y="125.705913" style="fill: #0173b2; stroke: #0173b2; stroke-width: 0.8"/>
     <use xlink:href="#m4e81510ded" x="99.656318" y="128.409618" style="fill: #0173b2; stroke: #0173b2; stroke-width: 0.8"/>
     <use xlink:href="#m4e81510ded" x="106.156424" y="130.752382" style="fill: #0173b2; stroke: #0173b2; stroke-width: 0.8"/>
     <use xlink:href="#m4e81510ded" x="113.209198" y="132.669015" style="fill: #0173b2; stroke: #0173b2; stroke-width: 0.8"/>
     <use xlink:href="#m4e81510ded" x="120.836639" y="134.07871" style="fill: #0173b2; stroke: #0173b2; stroke-width: 0.8"/>
     <use xlink:href="#m4e81510ded" x="129.060395" y="134.879447" style="fill: #0173b2; stroke: #0173b2; stroke-width: 0.8"/>
     <use xlink:href="#m4e81510ded" x="137.898923" y="134.939824" style="fill: #0173b2; stroke: #0173b2; stroke-width: 0.8"/>
     <use xlink:href="#m4e81510ded" x="147.361606" y="134.086955" style="fill: #0173b2; stroke: #0173b2; stroke-width: 0.8"/>
     <use xlink:href="#m4e81510ded" x="157.43649" y="132.088346" style="fill: #0173b2; stroke: #0173b2; stroke-width: 0.8"/>
     <use xlink:href="#m4e81510ded" x="168.064247" y="128.625129" style="fill: #0173b2; stroke: #0173b2; stroke-width: 0.8"/>
     <use xlink:href="#m4e81510ded" x="179.08144" y="123.255624" style="fill: #0173b2; stroke: #0173b2; stroke-width: 0.8"/>
     <use xlink:href="#m4e81510ded" x="190.095708" y="115.381711" style="fill: #0173b2; stroke: #0173b2; stroke-width: 0.8"/>
     <use xlink:href="#m4e81510ded" x="200.227459" y="104.293939" style="fill: #0173b2; stroke: #0173b2; stroke-width: 0.8"/>
     <use xlink:href="#m4e81510ded" x="207.731654" y="89.572844" style="fill: #0173b2; stroke: #0173b2; stroke-width: 0.8"/>
     <use xlink:href="#m4e81510ded" x="210.178286" y="72.221824" style="fill: #0173b2; stroke: #0173b2; stroke-width: 0.8"/>
     <use xlink:href="#m4e81510ded" x="206.453585" y="55.238988" style="fill: #0173b2; stroke: #0173b2; stroke-width: 0.8"/>
     <use xlink:href="#m4e81510ded" x="198.183109" y="41.291005" style="fill: #0173b2; stroke: #0173b2; stroke-width: 0.8"/>
     <use xlink:href="#m4e81510ded" x="187.748982" y="30.955878" style="fill: #0173b2; stroke: #0173b2; stroke-width: 0.8"/>
     <use xlink:href="#m4e81510ded" x="176.683125" y="23.681776" style="fill: #0173b2; stroke: #0173b2; stroke-width: 0.8"/>
     <use xlink:href="#m4e81510ded" x="165.728795" y="18.768725" style="fill: #0173b2; stroke: #0173b2; stroke-width: 0.8"/>
     <use xlink:href="#m4e81510ded" x="155.212603" y="15.653771" style="fill: #0173b2; stroke: #0173b2; stroke-width: 0.8"/>
     <use xlink:href="#m4e81510ded" x="145.268062" y="13.925313" style="fill: #0173b2; stroke: #0173b2; stroke-width: 0.8"/>
     <use xlink:href="#m4e81510ded" x="135.940909" y="13.286023" style="fill: #0173b2; stroke: #0173b2; stroke-width: 0.8"/>
     <use xlink:href="#m4e81510ded" x="127.236944" y="13.518274" style="fill: #0173b2; stroke: #0173b2; stroke-width: 0.8"/>
     <use xlink:href="#m4e81510ded" x="119.144105" y="14.459472" style="fill: #0173b2; stroke: #0173b2; stroke-width: 0.8"/>
     <use xlink:href="#m4e81510ded" x="111.642907" y="15.98545" style="fill: #0173b2; stroke: #0173b2; stroke-width: 0.8"/>
     <use xlink:href="#m4e81510ded" x="104.711469" y="17.999374" style="fill: #0173b2; stroke: #0173b2; stroke-width: 0.8"/>
     <use xlink:href="#m4e81510ded" x="98.32795" y="20.424228" style="fill: #0173b2; stroke: #0173b2; stroke-width: 0.8"/>
     <use xlink:href="#m4e81510ded" x="92.471687" y="23.197643" style="fill: #0173b2; stroke: #0173b2; stroke-width: 0.8"/>
     <use xlink:href="#m4e81510ded" x="87.1237" y="26.268258" style="fill: #0173b2; stroke: #0173b2; stroke-width: 0.8"/>
     <use xlink:href="#m4e81510ded" x="82.266858" y="29.593111" style="fill: #0173b2; stroke: #0173b2; stroke-width: 0.8"/>
     <use xlink:href="#m4e81510ded" x="77.885893" y="33.135736" style="fill: #0173b2; stroke: #0173b2; stroke-width: 0.8"/>
     <use xlink:href="#m4e81510ded" x="73.96733" y="36.86474" style="fill: #0173b2; stroke: #0173b2; stroke-width: 0.8"/>
     <use xlink:href="#m4e81510ded" x="70.499388" y="40.752726" style="fill: #0173b2; stroke: #0173b2; stroke-width: 0.8"/>
     <use xlink:href="#m4e81510ded" x="67.471867" y="44.775462" style="fill: #0173b2; stroke: #0173b2; stroke-width: 0.8"/>
     <use xlink:href="#m4e81510ded" x="64.876051" y="48.91123" style="fill: #0173b2; stroke: #0173b2; stroke-width: 0.8"/>
     <use xlink:href="#m4e81510ded" x="62.704603" y="53.1403" style="fill: #0173b2; stroke: #0173b2; stroke-width: 0.8"/>
     <use xlink:href="#m4e81510ded" x="60.951488" y="57.44451" style="fill: #0173b2; stroke: #0173b2; stroke-width: 0.8"/>
     <use xlink:href="#m4e81510ded" x="59.611902" y="61.806902" style="fill: #0173b2; stroke: #0173b2; stroke-width: 0.8"/>
     <use xlink:href="#m4e81510ded" x="58.682215" y="66.211427" style="fill: #0173b2; stroke: #0173b2; stroke-width: 0.8"/>
     <use xlink:href="#m4e81510ded" x="58.15993" y="70.642672" style="fill: #0173b2; stroke: #0173b2; stroke-width: 0.8"/>
     <use xlink:href="#m4e81510ded" x="58.043651" y="75.085626" style="fill: #0173b2; stroke: #0173b2; stroke-width: 0.8"/>
     <use xlink:href="#m4e81510ded" x="58.333073" y="79.525445" style="fill: #0173b2; stroke: #0173b2; stroke-width: 0.8"/>
     <use xlink:href="#m4e81510ded" x="59.02897" y="83.947243" style="fill: #0173b2; stroke: #0173b2; stroke-width: 0.8"/>
     <use xlink:href="#m4e81510ded" x="60.133213" y="88.335864" style="fill: #0173b2; stroke: #0173b2; stroke-width: 0.8"/>
     <use xlink:href="#m4e81510ded" x="61.648784" y="92.675653" style="fill: #0173b2; stroke: #0173b2; stroke-width: 0.8"/>
     <use xlink:href="#m4e81510ded" x="63.579816" y="96.950207" style="fill: #0173b2; stroke: #0173b2; stroke-width: 0.8"/>
     <use xlink:href="#m4e81510ded" x="65.931636" y="101.142093" style="fill: #0173b2; stroke: #0173b2; stroke-width: 0.8"/>
     <use xlink:href="#m4e81510ded" x="68.710836" y="105.232522" style="fill: #0173b2; stroke: #0173b2; stroke-width: 0.8"/>
     <use xlink:href="#m4e81510ded" x="71.925336" y="109.200972" style="fill: #0173b2; stroke: #0173b2; stroke-width: 0.8"/>
     <use xlink:href="#m4e81510ded" x="75.584485" y="113.024717" style="fill: #0173b2; stroke: #0173b2; stroke-width: 0.8"/>
     <use xlink:href="#m4e81510ded" x="79.699153" y="116.67826" style="fill: #0173b2; stroke: #0173b2; stroke-width: 0.8"/>
     <use xlink:href="#m4e81510ded" x="84.281842" y="120.132604" style="fill: #0173b2; stroke: #0173b2; stroke-width: 0.8"/>
     <use xlink:href="#m4e81510ded" x="89.346794" y="123.354331" style="fill: #0173b2; stroke: #0173b2; stroke-width: 0.8"/>
     <use xlink:href="#m4e81510ded" x="94.910081" y="126.304387" style="fill: #0173b2; stroke: #0173b2; stroke-width: 0.8"/>
     <use xlink:href="#m4e81510ded" x="100.989646" y="128.93648" style="fill: #0173b2; stroke: #0173b2; stroke-width: 0.8"/>
     <use xlink:href="#m4e81510ded" x="107.605243" y="131.194897" style="fill: #0173b2; stroke: #0173b2; stroke-width: 0.8"/>
     <use xlink:href="#m4e81510ded" x="114.778143" y="133.011506" style="fill: #0173b2; stroke: #0173b2; stroke-width: 0.8"/>
     <use xlink:href="#m4e81510ded" x="122.530422" y="134.301536" style="fill: #0173b2; stroke: #0173b2; stroke-width: 0.8"/>
     <use xlink:href="#m4e81510ded" x="130.883364" y="134.957518" style="fill: #0173b2; stroke: #0173b2; stroke-width: 0.8"/>
     <use xlink:href="#m4e81510ded" x="139.854146" y="134.84042" style="fill: #0173b2; stroke: #0173b2; stroke-width: 0.8"/>
     <use xlink:href="#m4e81510ded" x="149.448962" y="133.766463" style="fill: #0173b2; stroke: #0173b2; stroke-width: 0.8"/>
     <use xlink:href="#m4e81510ded" x="159.648674" y="131.487389" style="fill: #0173b2; stroke: #0173b2; stroke-width: 0.8"/>
    </g>
   </g>
   <g id="PathCollection_4">
    <g>
     <use xlink:href="#m632af38b78" x="301.52533" y="74.146254" style="fill: #de8f05; fill-opacity: 0.8; stroke: #de8f05; stroke-opacity: 0.8; stroke-width: 0.8"/>
     <use xlink:href="#m632af38b78" x="301.321936" y="69.704536" style="fill: #de8f05; fill-opacity: 0.8; stroke: #de8f05; stroke-opacity: 0.8; stroke-width: 0.8"/>
     <use xlink:href="#m632af38b78" x="300.712322" y="65.277678" style="fill: #de8f05; fill-opacity: 0.8; stroke: #de8f05; stroke-opacity: 0.8; stroke-width: 0.8"/>
     <use xlink:href="#m632af38b78" x="299.694854" y="60.880759" style="fill: #de8f05; fill-opacity: 0.8; stroke: #de8f05; stroke-opacity: 0.8; stroke-width: 0.8"/>
     <use xlink:href="#m632af38b78" x="298.266788" y="56.529309" style="fill: #de8f05; fill-opacity: 0.8; stroke: #de8f05; stroke-opacity: 0.8; stroke-width: 0.8"/>
     <use xlink:href="#m632af38b78" x="296.424239" y="52.239549" style="fill: #de8f05; fill-opacity: 0.8; stroke: #de8f05; stroke-opacity: 0.8; stroke-width: 0.8"/>
     <use xlink:href="#m632af38b78" x="294.162139" y="48.028669" style="fill: #de8f05; fill-opacity: 0.8; stroke: #de8f05; stroke-opacity: 0.8; stroke-width: 0.8"/>
     <use xlink:href="#m632af38b78" x="291.474172" y="43.91514" style="fill: #de8f05; fill-opacity: 0.8; stroke: #de8f05; stroke-opacity: 0.8; stroke-width: 0.8"/>
     <use xlink:href="#m632af38b78" x="288.352706" y="39.91908" style="fill: #de8f05; fill-opacity: 0.8; stroke: #de8f05; stroke-opacity: 0.8; stroke-width: 0.8"/>
     <use xlink:href="#m632af38b78" x="284.788706" y="36.062704" style="fill: #de8f05; fill-opacity: 0.8; stroke: #de8f05; stroke-opacity: 0.8; stroke-width: 0.8"/>
     <use xlink:href="#m632af38b78" x="280.771635" y="32.370866" style="fill: #de8f05; fill-opacity: 0.8; stroke: #de8f05; stroke-opacity: 0.8; stroke-width: 0.8"/>
     <use xlink:href="#m632af38b78" x="276.289347" y="28.871751" style="fill: #de8f05; fill-opacity: 0.8; stroke: #de8f05; stroke-opacity: 0.8; stroke-width: 0.8"/>
     <use xlink:href="#m632af38b78" x="271.327979" y="25.597748" style="fill: #de8f05; fill-opacity: 0.8; stroke: #de8f05; stroke-opacity: 0.8; stroke-width: 0.8"/>
     <use xlink:href="#m632af38b78" x="265.871856" y="22.586595" style="fill: #de8f05; fill-opacity: 0.8; stroke: #de8f05; stroke-opacity: 0.8; stroke-width: 0.8"/>
     <use xlink:href="#m632af38b78" x="259.903432" y="19.88289" style="fill: #de8f05; fill-opacity: 0.8; stroke: #de8f05; stroke-opacity: 0.8; stroke-width: 0.8"/>
     <use xlink:href="#m632af38b78" x="253.403326" y="17.540126" style="fill: #de8f05; fill-opacity: 0.8; stroke: #de8f05; stroke-opacity: 0.8; stroke-width: 0.8"/>
     <use xlink:href="#m632af38b78" x="246.350552" y="15.623493" style="fill: #de8f05; fill-opacity: 0.8; stroke: #de8f05; stroke-opacity: 0.8; stroke-width: 0.8"/>
     <use xlink:href="#m632af38b78" x="238.723111" y="14.213798" style="fill: #de8f05; fill-opacity: 0.8; stroke: #de8f05; stroke-opacity: 0.8; stroke-width: 0.8"/>
     <use xlink:href="#m632af38b78" x="230.499355" y="13.413061" style="fill: #de8f05; fill-opacity: 0.8; stroke: #de8f05; stroke-opacity: 0.8; stroke-width: 0.8"/>
     <use xlink:href="#m632af38b78" x="221.660827" y="13.352684" style="fill: #de8f05; fill-opacity: 0.8; stroke: #de8f05; stroke-opacity: 0.8; stroke-width: 0.8"/>
     <use xlink:href="#m632af38b78" x="212.198144" y="14.205553" style="fill: #de8f05; fill-opacity: 0.8; stroke: #de8f05; stroke-opacity: 0.8; stroke-width: 0.8"/>
     <use xlink:href="#m632af38b78" x="202.12326" y="16.204162" style="fill: #de8f05; fill-opacity: 0.8; stroke: #de8f05; stroke-opacity: 0.8; stroke-width: 0.8"/>
     <use xlink:href="#m632af38b78" x="191.495503" y="19.667379" style="fill: #de8f05; fill-opacity: 0.8; stroke: #de8f05; stroke-opacity: 0.8; stroke-width: 0.8"/>
     <use xlink:href="#m632af38b78" x="180.47831" y="25.036884" style="fill: #de8f05; fill-opacity: 0.8; stroke: #de8f05; stroke-opacity: 0.8; stroke-width: 0.8"/>
     <use xlink:href="#m632af38b78" x="169.464042" y="32.910798" style="fill: #de8f05; fill-opacity: 0.8; stroke: #de8f05; stroke-opacity: 0.8; stroke-width: 0.8"/>
     <use xlink:href="#m632af38b78" x="159.332291" y="43.99857" style="fill: #de8f05; fill-opacity: 0.8; stroke: #de8f05; stroke-opacity: 0.8; stroke-width: 0.8"/>
     <use xlink:href="#m632af38b78" x="151.828096" y="58.719664" style="fill: #de8f05; fill-opacity: 0.8; stroke: #de8f05; stroke-opacity: 0.8; stroke-width: 0.8"/>
     <use xlink:href="#m632af38b78" x="149.381464" y="76.070685" style="fill: #de8f05; fill-opacity: 0.8; stroke: #de8f05; stroke-opacity: 0.8; stroke-width: 0.8"/>
     <use xlink:href="#m632af38b78" x="153.106165" y="93.05352" style="fill: #de8f05; fill-opacity: 0.8; stroke: #de8f05; stroke-opacity: 0.8; stroke-width: 0.8"/>
     <use xlink:href="#m632af38b78" x="161.376641" y="107.001503" style="fill: #de8f05; fill-opacity: 0.8; stroke: #de8f05; stroke-opacity: 0.8; stroke-width: 0.8"/>
     <use xlink:href="#m632af38b78" x="171.810768" y="117.33663" style="fill: #de8f05; fill-opacity: 0.8; stroke: #de8f05; stroke-opacity: 0.8; stroke-width: 0.8"/>
     <use xlink:href="#m632af38b78" x="182.876625" y="124.610732" style="fill: #de8f05; fill-opacity: 0.8; stroke: #de8f05; stroke-opacity: 0.8; stroke-width: 0.8"/>
     <use xlink:href="#m632af38b78" x="193.830955" y="129.523783" style="fill: #de8f05; fill-opacity: 0.8; stroke: #de8f05; stroke-opacity: 0.8; stroke-width: 0.8"/>
     <use xlink:href="#m632af38b78" x="204.347147" y="132.638737" style="fill: #de8f05; fill-opacity: 0.8; stroke: #de8f05; stroke-opacity: 0.8; stroke-width: 0.8"/>
     <use xlink:href="#m632af38b78" x="214.291688" y="134.367195" style="fill: #de8f05; fill-opacity: 0.8; stroke: #de8f05; stroke-opacity: 0.8; stroke-width: 0.8"/>
     <use xlink:href="#m632af38b78" x="223.618841" y="135.006485" style="fill: #de8f05; fill-opacity: 0.8; stroke: #de8f05; stroke-opacity: 0.8; stroke-width: 0.8"/>
     <use xlink:href="#m632af38b78" x="232.322806" y="134.774234" style="fill: #de8f05; fill-opacity: 0.8; stroke: #de8f05; stroke-opacity: 0.8; stroke-width: 0.8"/>
     <use xlink:href="#m632af38b78" x="240.415645" y="133.833036" style="fill: #de8f05; fill-opacity: 0.8; stroke: #de8f05; stroke-opacity: 0.8; stroke-width: 0.8"/>
     <use xlink:href="#m632af38b78" x="247.916843" y="132.307058" style="fill: #de8f05; fill-opacity: 0.8; stroke: #de8f05; stroke-opacity: 0.8; stroke-width: 0.8"/>
     <use xlink:href="#m632af38b78" x="254.848281" y="130.293134" style="fill: #de8f05; fill-opacity: 0.8; stroke: #de8f05; stroke-opacity: 0.8; stroke-width: 0.8"/>
     <use xlink:href="#m632af38b78" x="261.2318" y="127.86828" style="fill: #de8f05; fill-opacity: 0.8; stroke: #de8f05; stroke-opacity: 0.8; stroke-width: 0.8"/>
     <use xlink:href="#m632af38b78" x="267.088063" y="125.094865" style="fill: #de8f05; fill-opacity: 0.8; stroke: #de8f05; stroke-opacity: 0.8; stroke-width: 0.8"/>
     <use xlink:href="#m632af38b78" x="272.43605" y="122.024251" style="fill: #de8f05; fill-opacity: 0.8; stroke: #de8f05; stroke-opacity: 0.8; stroke-width: 0.8"/>
     <use xlink:href="#m632af38b78" x="277.292892" y="118.699397" style="fill: #de8f05; fill-opacity: 0.8; stroke: #de8f05; stroke-opacity: 0.8; stroke-width: 0.8"/>
     <use xlink:href="#m632af38b78" x="281.673857" y="115.156772" style="fill: #de8f05; fill-opacity: 0.8; stroke: #de8f05; stroke-opacity: 0.8; stroke-width: 0.8"/>
     <use xlink:href="#m632af38b78" x="285.59242" y="111.427768" style="fill: #de8f05; fill-opacity: 0.8; stroke: #de8f05; stroke-opacity: 0.8; stroke-width: 0.8"/>
     <use xlink:href="#m632af38b78" x="289.060362" y="107.539782" style="fill: #de8f05; fill-opacity: 0.8; stroke: #de8f05; stroke-opacity: 0.8; stroke-width: 0.8"/>
     <use xlink:href="#m632af38b78" x="292.087883" y="103.517046" style="fill: #de8f05; fill-opacity: 0.8; stroke: #de8f05; stroke-opacity: 0.8; stroke-width: 0.8"/>
     <use xlink:href="#m632af38b78" x="294.683699" y="99.381278" style="fill: #de8f05; fill-opacity: 0.8; stroke: #de8f05; stroke-opacity: 0.8; stroke-width: 0.8"/>
     <use xlink:href="#m632af38b78" x="296.855147" y="95.152208" style="fill: #de8f05; fill-opacity: 0.8; stroke: #de8f05; stroke-opacity: 0.8; stroke-width: 0.8"/>
     <use xlink:href="#m632af38b78" x="298.608262" y="90.847998" style="fill: #de8f05; fill-opacity: 0.8; stroke: #de8f05; stroke-opacity: 0.8; stroke-width: 0.8"/>
     <use xlink:href="#m632af38b78" x="299.947848" y="86.485606" style="fill: #de8f05; fill-opacity: 0.8; stroke: #de8f05; stroke-opacity: 0.8; stroke-width: 0.8"/>
     <use xlink:href="#m632af38b78" x="300.877535" y="82.081082" style="fill: #de8f05; fill-opacity: 0.8; stroke: #de8f05; stroke-opacity: 0.8; stroke-width: 0.8"/>
     <use xlink:href="#m632af38b78" x="301.39982" y="77.649836" style="fill: #de8f05; fill-opacity: 0.8; stroke: #de8f05; stroke-opacity: 0.8; stroke-width: 0.8"/>
     <use xlink:href="#m632af38b78" x="301.516099" y="73.206882" style="fill: #de8f05; fill-opacity: 0.8; stroke: #de8f05; stroke-opacity: 0.8; stroke-width: 0.8"/>
     <use xlink:href="#m632af38b78" x="301.226677" y="68.767063" style="fill: #de8f05; fill-opacity: 0.8; stroke: #de8f05; stroke-opacity: 0.8; stroke-width: 0.8"/>
     <use xlink:href="#m632af38b78" x="300.53078" y="64.345265" style="fill: #de8f05; fill-opacity: 0.8; stroke: #de8f05; stroke-opacity: 0.8; stroke-width: 0.8"/>
     <use xlink:href="#m632af38b78" x="299.426537" y="59.956644" style="fill: #de8f05; fill-opacity: 0.8; stroke: #de8f05; stroke-opacity: 0.8; stroke-width: 0.8"/>
     <use xlink:href="#m632af38b78" x="297.910966" y="55.616855" style="fill: #de8f05; fill-opacity: 0.8; stroke: #de8f05; stroke-opacity: 0.8; stroke-width: 0.8"/>
     <use xlink:href="#m632af38b78" x="295.979934" y="51.342301" style="fill: #de8f05; fill-opacity: 0.8; stroke: #de8f05; stroke-opacity: 0.8; stroke-width: 0.8"/>
     <use xlink:href="#m632af38b78" x="293.628114" y="47.150416" style="fill: #de8f05; fill-opacity: 0.8; stroke: #de8f05; stroke-opacity: 0.8; stroke-width: 0.8"/>
     <use xlink:href="#m632af38b78" x="290.848914" y="43.059986" style="fill: #de8f05; fill-opacity: 0.8; stroke: #de8f05; stroke-opacity: 0.8; stroke-width: 0.8"/>
     <use xlink:href="#m632af38b78" x="287.634414" y="39.091536" style="fill: #de8f05; fill-opacity: 0.8; stroke: #de8f05; stroke-opacity: 0.8; stroke-width: 0.8"/>
     <use xlink:href="#m632af38b78" x="283.975265" y="35.267791" style="fill: #de8f05; fill-opacity: 0.8; stroke: #de8f05; stroke-opacity: 0.8; stroke-width: 0.8"/>
     <use xlink:href="#m632af38b78" x="279.860597" y="31.614248" style="fill: #de8f05; fill-opacity: 0.8; stroke: #de8f05; stroke-opacity: 0.8; stroke-width: 0.8"/>
     <use xlink:href="#m632af38b78" x="275.277908" y="28.159904" style="fill: #de8f05; fill-opacity: 0.8; stroke: #de8f05; stroke-opacity: 0.8; stroke-width: 0.8"/>
     <use xlink:href="#m632af38b78" x="270.212956" y="24.938178" style="fill: #de8f05; fill-opacity: 0.8; stroke: #de8f05; stroke-opacity: 0.8; stroke-width: 0.8"/>
     <use xlink:href="#m632af38b78" x="264.649669" y="21.988121" style="fill: #de8f05; fill-opacity: 0.8; stroke: #de8f05; stroke-opacity: 0.8; stroke-width: 0.8"/>
     <use xlink:href="#m632af38b78" x="258.570104" y="19.356028" style="fill: #de8f05; fill-opacity: 0.8; stroke: #de8f05; stroke-opacity: 0.8; stroke-width: 0.8"/>
     <use xlink:href="#m632af38b78" x="251.954507" y="17.097612" style="fill: #de8f05; fill-opacity: 0.8; stroke: #de8f05; stroke-opacity: 0.8; stroke-width: 0.8"/>
     <use xlink:href="#m632af38b78" x="244.781607" y="15.281003" style="fill: #de8f05; fill-opacity: 0.8; stroke: #de8f05; stroke-opacity: 0.8; stroke-width: 0.8"/>
     <use xlink:href="#m632af38b78" x="237.029328" y="13.990972" style="fill: #de8f05; fill-opacity: 0.8; stroke: #de8f05; stroke-opacity: 0.8; stroke-width: 0.8"/>
     <use xlink:href="#m632af38b78" x="228.676386" y="13.33499" style="fill: #de8f05; fill-opacity: 0.8; stroke: #de8f05; stroke-opacity: 0.8; stroke-width: 0.8"/>
     <use xlink:href="#m632af38b78" x="219.705604" y="13.452088" style="fill: #de8f05; fill-opacity: 0.8; stroke: #de8f05; stroke-opacity: 0.8; stroke-width: 0.8"/>
     <use xlink:href="#m632af38b78" x="210.110788" y="14.526045" style="fill: #de8f05; fill-opacity: 0.8; stroke: #de8f05; stroke-opacity: 0.8; stroke-width: 0.8"/>
     <use xlink:href="#m632af38b78" x="199.911076" y="16.80512" style="fill: #de8f05; fill-opacity: 0.8; stroke: #de8f05; stroke-opacity: 0.8; stroke-width: 0.8"/>
    </g>
   </g>
   <g id="PathCollection_5">
    <defs>
     <path id="m32e8653bc0" d="M 0 -3.535534 
L -0.793777 -1.09254 
L -3.362493 -1.09254 
L -1.284358 0.417313 
L -2.078135 2.860307 
L -0 1.350454 
L 2.078135 2.860307 
L 1.284358 0.417313 
L 3.362493 -1.09254 
L 0.793777 -1.09254 
z
" style="stroke: #ff0000; stroke-width: 0.8"/>
    </defs>
    <g clip-path="url(#pd0a0132767)">
     <use xlink:href="#m32e8653bc0" x="58.03442" y="74.146254" style="fill: #ff0000; stroke: #ff0000; stroke-width: 0.8"/>
    </g>
   </g>
   <g id="PathCollection_6">
    <g clip-path="url(#pd0a0132767)">
     <use xlink:href="#m32e8653bc0" x="301.52533" y="74.146254" style="fill: #ff0000; stroke: #ff0000; stroke-width: 0.8"/>
    </g>
   </g>
  </g>
 </g>
 <defs>
  <clipPath id="pd0a0132767">
   <rect x="45.859875" y="7.2" width="267.84" height="133.892508"/>
  </clipPath>
 </defs>
</svg>
