<?xml version="1.0" encoding="utf-8" standalone="no"?>
<!DOCTYPE svg PUBLIC "-//W3C//DTD SVG 1.1//EN"
  "http://www.w3.org/Graphics/SVG/1.1/DTD/svg11.dtd">
<svg xmlns:xlink="http://www.w3.org/1999/xlink" width="426.931pt" height="178.607062pt" viewBox="0 0 426.931 178.607062" xmlns="http://www.w3.org/2000/svg" version="1.1">
 <metadata>
  <rdf:RDF xmlns:dc="http://purl.org/dc/elements/1.1/" xmlns:cc="http://creativecommons.org/ns#" xmlns:rdf="http://www.w3.org/1999/02/22-rdf-syntax-ns#">
   <cc:Work>
    <dc:type rdf:resource="http://purl.org/dc/dcmitype/StillImage"/>
    <dc:date>2024-12-10T02:36:40.186608</dc:date>
    <dc:format>image/svg+xml</dc:format>
    <dc:creator>
     <cc:Agent>
      <dc:title>Matplotlib v3.8.0, https://matplotlib.org/</dc:title>
     </cc:Agent>
    </dc:creator>
   </cc:Work>
  </rdf:RDF>
 </metadata>
 <defs>
  <style type="text/css">*{stroke-linejoin: round; stroke-linecap: butt}</style>
 </defs>
 <g id="figure_1">
  <g id="patch_1">
   <path d="M 0 178.607062 
L 426.931 178.607062 
L 426.931 0 
L 0 0 
z
" style="fill: #ffffff"/>
  </g>
  <g id="axes_1">
   <g id="patch_2">
    <path d="M 39.515 143.599312 
L 307.355 143.599312 
L 307.355 10.543312 
L 39.515 10.543312 
z
" style="fill: #ffffff"/>
   </g>
   <g id="matplotlib.axis_1">
    <g id="xtick_1">
     <g id="line2d_1">
      <defs>
       <path id="mb63a3bbb15" d="M 0 0 
L 0 -3 
" style="stroke: #000000; stroke-width: 0.5"/>
      </defs>
      <g>
       <use xlink:href="#mb63a3bbb15" x="39.515" y="143.599312" style="stroke: #000000; stroke-width: 0.5"/>
      </g>
     </g>
     <g id="text_1">
      <!-- $30$ -->
      <g transform="translate(33.883 155.285937) scale(0.088 -0.088)">
       <defs>
        <path id="DejaVuSans-33" d="M 2597 2516 
Q 3050 2419 3304 2112 
Q 3559 1806 3559 1356 
Q 3559 666 3084 287 
Q 2609 -91 1734 -91 
Q 1441 -91 1130 -33 
Q 819 25 488 141 
L 488 750 
Q 750 597 1062 519 
Q 1375 441 1716 441 
Q 2309 441 2620 675 
Q 2931 909 2931 1356 
Q 2931 1769 2642 2001 
Q 2353 2234 1838 2234 
L 1294 2234 
L 1294 2753 
L 1863 2753 
Q 2328 2753 2575 2939 
Q 2822 3125 2822 3475 
Q 2822 3834 2567 4026 
Q 2313 4219 1838 4219 
Q 1578 4219 1281 4162 
Q 984 4106 628 3988 
L 628 4550 
Q 988 4650 1302 4700 
Q 1616 4750 1894 4750 
Q 2613 4750 3031 4423 
Q 3450 4097 3450 3541 
Q 3450 3153 3228 2886 
Q 3006 2619 2597 2516 
z
" transform="scale(0.015625)"/>
        <path id="DejaVuSans-30" d="M 2034 4250 
Q 1547 4250 1301 3770 
Q 1056 3291 1056 2328 
Q 1056 1369 1301 889 
Q 1547 409 2034 409 
Q 2525 409 2770 889 
Q 3016 1369 3016 2328 
Q 3016 3291 2770 3770 
Q 2525 4250 2034 4250 
z
M 2034 4750 
Q 2819 4750 3233 4129 
Q 3647 3509 3647 2328 
Q 3647 1150 3233 529 
Q 2819 -91 2034 -91 
Q 1250 -91 836 529 
Q 422 1150 422 2328 
Q 422 3509 836 4129 
Q 1250 4750 2034 4750 
z
" transform="scale(0.015625)"/>
       </defs>
       <use xlink:href="#DejaVuSans-33" transform="translate(0 0.78125)"/>
       <use xlink:href="#DejaVuSans-30" transform="translate(63.623047 0.78125)"/>
      </g>
     </g>
    </g>
    <g id="xtick_2">
     <g id="line2d_2">
      <g>
       <use xlink:href="#mb63a3bbb15" x="72.995" y="143.599312" style="stroke: #000000; stroke-width: 0.5"/>
      </g>
     </g>
     <g id="text_2">
      <!-- $32.5$ -->
      <g transform="translate(63.183 155.285937) scale(0.088 -0.088)">
       <defs>
        <path id="DejaVuSans-32" d="M 1228 531 
L 3431 531 
L 3431 0 
L 469 0 
L 469 531 
Q 828 903 1448 1529 
Q 2069 2156 2228 2338 
Q 2531 2678 2651 2914 
Q 2772 3150 2772 3378 
Q 2772 3750 2511 3984 
Q 2250 4219 1831 4219 
Q 1534 4219 1204 4116 
Q 875 4013 500 3803 
L 500 4441 
Q 881 4594 1212 4672 
Q 1544 4750 1819 4750 
Q 2544 4750 2975 4387 
Q 3406 4025 3406 3419 
Q 3406 3131 3298 2873 
Q 3191 2616 2906 2266 
Q 2828 2175 2409 1742 
Q 1991 1309 1228 531 
z
" transform="scale(0.015625)"/>
        <path id="DejaVuSans-2e" d="M 684 794 
L 1344 794 
L 1344 0 
L 684 0 
L 684 794 
z
" transform="scale(0.015625)"/>
        <path id="DejaVuSans-35" d="M 691 4666 
L 3169 4666 
L 3169 4134 
L 1269 4134 
L 1269 2991 
Q 1406 3038 1543 3061 
Q 1681 3084 1819 3084 
Q 2600 3084 3056 2656 
Q 3513 2228 3513 1497 
Q 3513 744 3044 326 
Q 2575 -91 1722 -91 
Q 1428 -91 1123 -41 
Q 819 9 494 109 
L 494 744 
Q 775 591 1075 516 
Q 1375 441 1709 441 
Q 2250 441 2565 725 
Q 2881 1009 2881 1497 
Q 2881 1984 2565 2268 
Q 2250 2553 1709 2553 
Q 1456 2553 1204 2497 
Q 953 2441 691 2322 
L 691 4666 
z
" transform="scale(0.015625)"/>
       </defs>
       <use xlink:href="#DejaVuSans-33" transform="translate(0 0.78125)"/>
       <use xlink:href="#DejaVuSans-32" transform="translate(63.623047 0.78125)"/>
       <use xlink:href="#DejaVuSans-2e" transform="translate(127.246094 0.78125)"/>
       <use xlink:href="#DejaVuSans-35" transform="translate(159.033203 0.78125)"/>
      </g>
     </g>
    </g>
    <g id="xtick_3">
     <g id="line2d_3">
      <g>
       <use xlink:href="#mb63a3bbb15" x="106.475" y="143.599312" style="stroke: #000000; stroke-width: 0.5"/>
      </g>
     </g>
     <g id="text_3">
      <!-- $35$ -->
      <g transform="translate(100.843 155.285937) scale(0.088 -0.088)">
       <use xlink:href="#DejaVuSans-33" transform="translate(0 0.78125)"/>
       <use xlink:href="#DejaVuSans-35" transform="translate(63.623047 0.78125)"/>
      </g>
     </g>
    </g>
    <g id="xtick_4">
     <g id="line2d_4">
      <g>
       <use xlink:href="#mb63a3bbb15" x="139.955" y="143.599312" style="stroke: #000000; stroke-width: 0.5"/>
      </g>
     </g>
     <g id="text_4">
      <!-- $37.5$ -->
      <g transform="translate(130.143 155.285937) scale(0.088 -0.088)">
       <defs>
        <path id="DejaVuSans-37" d="M 525 4666 
L 3525 4666 
L 3525 4397 
L 1831 0 
L 1172 0 
L 2766 4134 
L 525 4134 
L 525 4666 
z
" transform="scale(0.015625)"/>
       </defs>
       <use xlink:href="#DejaVuSans-33" transform="translate(0 0.78125)"/>
       <use xlink:href="#DejaVuSans-37" transform="translate(63.623047 0.78125)"/>
       <use xlink:href="#DejaVuSans-2e" transform="translate(127.246094 0.78125)"/>
       <use xlink:href="#DejaVuSans-35" transform="translate(159.033203 0.78125)"/>
      </g>
     </g>
    </g>
    <g id="xtick_5">
     <g id="line2d_5">
      <g>
       <use xlink:href="#mb63a3bbb15" x="173.435" y="143.599312" style="stroke: #000000; stroke-width: 0.5"/>
      </g>
     </g>
     <g id="text_5">
      <!-- $40$ -->
      <g transform="translate(167.803 155.285937) scale(0.088 -0.088)">
       <defs>
        <path id="DejaVuSans-34" d="M 2419 4116 
L 825 1625 
L 2419 1625 
L 2419 4116 
z
M 2253 4666 
L 3047 4666 
L 3047 1625 
L 3713 1625 
L 3713 1100 
L 3047 1100 
L 3047 0 
L 2419 0 
L 2419 1100 
L 313 1100 
L 313 1709 
L 2253 4666 
z
" transform="scale(0.015625)"/>
       </defs>
       <use xlink:href="#DejaVuSans-34" transform="translate(0 0.78125)"/>
       <use xlink:href="#DejaVuSans-30" transform="translate(63.623047 0.78125)"/>
      </g>
     </g>
    </g>
    <g id="xtick_6">
     <g id="line2d_6">
      <g>
       <use xlink:href="#mb63a3bbb15" x="206.915" y="143.599312" style="stroke: #000000; stroke-width: 0.5"/>
      </g>
     </g>
     <g id="text_6">
      <!-- $42.5$ -->
      <g transform="translate(197.103 155.285937) scale(0.088 -0.088)">
       <use xlink:href="#DejaVuSans-34" transform="translate(0 0.78125)"/>
       <use xlink:href="#DejaVuSans-32" transform="translate(63.623047 0.78125)"/>
       <use xlink:href="#DejaVuSans-2e" transform="translate(127.246094 0.78125)"/>
       <use xlink:href="#DejaVuSans-35" transform="translate(159.033203 0.78125)"/>
      </g>
     </g>
    </g>
    <g id="xtick_7">
     <g id="line2d_7">
      <g>
       <use xlink:href="#mb63a3bbb15" x="240.395" y="143.599312" style="stroke: #000000; stroke-width: 0.5"/>
      </g>
     </g>
     <g id="text_7">
      <!-- $45$ -->
      <g transform="translate(234.763 155.285937) scale(0.088 -0.088)">
       <use xlink:href="#DejaVuSans-34" transform="translate(0 0.09375)"/>
       <use xlink:href="#DejaVuSans-35" transform="translate(63.623047 0.09375)"/>
      </g>
     </g>
    </g>
    <g id="xtick_8">
     <g id="line2d_8">
      <g>
       <use xlink:href="#mb63a3bbb15" x="273.875" y="143.599312" style="stroke: #000000; stroke-width: 0.5"/>
      </g>
     </g>
     <g id="text_8">
      <!-- $47.5$ -->
      <g transform="translate(264.063 155.285937) scale(0.088 -0.088)">
       <use xlink:href="#DejaVuSans-34" transform="translate(0 0.09375)"/>
       <use xlink:href="#DejaVuSans-37" transform="translate(63.623047 0.09375)"/>
       <use xlink:href="#DejaVuSans-2e" transform="translate(127.246094 0.09375)"/>
       <use xlink:href="#DejaVuSans-35" transform="translate(159.033203 0.09375)"/>
      </g>
     </g>
    </g>
    <g id="xtick_9">
     <g id="line2d_9">
      <g>
       <use xlink:href="#mb63a3bbb15" x="307.355" y="143.599312" style="stroke: #000000; stroke-width: 0.5"/>
      </g>
     </g>
     <g id="text_9">
      <!-- $50$ -->
      <g transform="translate(301.723 155.285937) scale(0.088 -0.088)">
       <use xlink:href="#DejaVuSans-35" transform="translate(0 0.78125)"/>
       <use xlink:href="#DejaVuSans-30" transform="translate(63.623047 0.78125)"/>
      </g>
     </g>
    </g>
    <g id="text_10">
     <!-- $t$ -->
     <g transform="translate(171.515 169.410562) scale(0.096 -0.096)">
      <defs>
       <path id="DejaVuSans-Oblique-74" d="M 2706 3500 
L 2619 3053 
L 1472 3053 
L 1100 1153 
Q 1081 1047 1072 975 
Q 1063 903 1063 863 
Q 1063 663 1183 572 
Q 1303 481 1569 481 
L 2150 481 
L 2053 0 
L 1503 0 
Q 991 0 739 200 
Q 488 400 488 806 
Q 488 878 497 964 
Q 506 1050 525 1153 
L 897 3053 
L 409 3053 
L 500 3500 
L 978 3500 
L 1172 4494 
L 1747 4494 
L 1556 3500 
L 2706 3500 
z
" transform="scale(0.015625)"/>
      </defs>
      <use xlink:href="#DejaVuSans-Oblique-74" transform="translate(0 0.78125)"/>
     </g>
    </g>
   </g>
   <g id="matplotlib.axis_2">
    <g id="ytick_1">
     <g id="line2d_10">
      <defs>
       <path id="m2445e64052" d="M 0 0 
L 3 0 
" style="stroke: #000000; stroke-width: 0.5"/>
      </defs>
      <g>
       <use xlink:href="#m2445e64052" x="39.515" y="143.599312" style="stroke: #000000; stroke-width: 0.5"/>
      </g>
     </g>
     <g id="text_11">
      <!-- $-4$ -->
      <g transform="translate(21.491 146.942625) scale(0.088 -0.088)">
       <defs>
        <path id="DejaVuSans-2212" d="M 678 2272 
L 4684 2272 
L 4684 1741 
L 678 1741 
L 678 2272 
z
" transform="scale(0.015625)"/>
       </defs>
       <use xlink:href="#DejaVuSans-2212" transform="translate(0 0.09375)"/>
       <use xlink:href="#DejaVuSans-34" transform="translate(83.789062 0.09375)"/>
      </g>
     </g>
    </g>
    <g id="ytick_2">
     <g id="line2d_11">
      <g>
       <use xlink:href="#m2445e64052" x="39.515" y="110.335312" style="stroke: #000000; stroke-width: 0.5"/>
      </g>
     </g>
     <g id="text_12">
      <!-- $-2$ -->
      <g transform="translate(21.491 113.678625) scale(0.088 -0.088)">
       <use xlink:href="#DejaVuSans-2212" transform="translate(0 0.78125)"/>
       <use xlink:href="#DejaVuSans-32" transform="translate(83.789062 0.78125)"/>
      </g>
     </g>
    </g>
    <g id="ytick_3">
     <g id="line2d_12">
      <g>
       <use xlink:href="#m2445e64052" x="39.515" y="77.071312" style="stroke: #000000; stroke-width: 0.5"/>
      </g>
     </g>
     <g id="text_13">
      <!-- $0$ -->
      <g transform="translate(28.883 80.414625) scale(0.088 -0.088)">
       <use xlink:href="#DejaVuSans-30" transform="translate(0 0.78125)"/>
      </g>
     </g>
    </g>
    <g id="ytick_4">
     <g id="line2d_13">
      <g>
       <use xlink:href="#m2445e64052" x="39.515" y="43.807312" style="stroke: #000000; stroke-width: 0.5"/>
      </g>
     </g>
     <g id="text_14">
      <!-- $2$ -->
      <g transform="translate(28.883 47.150625) scale(0.088 -0.088)">
       <use xlink:href="#DejaVuSans-32" transform="translate(0 0.78125)"/>
      </g>
     </g>
    </g>
    <g id="ytick_5">
     <g id="line2d_14">
      <g>
       <use xlink:href="#m2445e64052" x="39.515" y="10.543312" style="stroke: #000000; stroke-width: 0.5"/>
      </g>
     </g>
     <g id="text_15">
      <!-- $4$ -->
      <g transform="translate(28.883 13.886625) scale(0.088 -0.088)">
       <use xlink:href="#DejaVuSans-34" transform="translate(0 0.09375)"/>
      </g>
     </g>
    </g>
    <g id="text_16">
     <!-- $v, v_r$ -->
     <g transform="translate(14.4945 86.767312) rotate(-90) scale(0.096 -0.096)">
      <defs>
       <path id="DejaVuSans-Oblique-76" d="M 459 3500 
L 1069 3500 
L 1581 525 
L 3256 3500 
L 3866 3500 
L 1875 0 
L 1100 0 
L 459 3500 
z
" transform="scale(0.015625)"/>
       <path id="DejaVuSans-2c" d="M 750 794 
L 1409 794 
L 1409 256 
L 897 -744 
L 494 -744 
L 750 256 
L 750 794 
z
" transform="scale(0.015625)"/>
       <path id="DejaVuSans-Oblique-72" d="M 2853 2969 
Q 2766 3016 2653 3041 
Q 2541 3066 2413 3066 
Q 1953 3066 1609 2717 
Q 1266 2369 1153 1784 
L 800 0 
L 225 0 
L 909 3500 
L 1484 3500 
L 1375 2956 
Q 1603 3259 1920 3421 
Q 2238 3584 2597 3584 
Q 2691 3584 2781 3573 
Q 2872 3563 2963 3538 
L 2853 2969 
z
" transform="scale(0.015625)"/>
      </defs>
      <use xlink:href="#DejaVuSans-Oblique-76" transform="translate(0 0.3125)"/>
      <use xlink:href="#DejaVuSans-2c" transform="translate(59.179688 0.3125)"/>
      <use xlink:href="#DejaVuSans-Oblique-76" transform="translate(110.449219 0.3125)"/>
      <use xlink:href="#DejaVuSans-Oblique-72" transform="translate(169.628906 -16.09375) scale(0.7)"/>
     </g>
    </g>
   </g>
   <g id="patch_3">
    <path d="M 39.515 143.599312 
L 39.515 10.543312 
" style="fill: none; stroke: #000000; stroke-width: 0.625; stroke-linejoin: miter; stroke-linecap: square"/>
   </g>
   <g id="patch_4">
    <path d="M 307.355 143.599312 
L 307.355 10.543312 
" style="fill: none; stroke: #000000; stroke-width: 0.625; stroke-linejoin: miter; stroke-linecap: square"/>
   </g>
   <g id="patch_5">
    <path d="M 39.515 143.599312 
L 307.355 143.599312 
" style="fill: none; stroke: #000000; stroke-width: 0.625; stroke-linejoin: miter; stroke-linecap: square"/>
   </g>
   <g id="patch_6">
    <path d="M 39.515 10.543312 
L 307.355 10.543312 
" style="fill: none; stroke: #000000; stroke-width: 0.625; stroke-linejoin: miter; stroke-linecap: square"/>
   </g>
   <g id="legend_1">
    <g id="patch_7">
     <path d="M 311.755 43.416812 
L 419.731 43.416812 
L 419.731 14.943312 
L 311.755 14.943312 
z
" style="fill: #ffffff; stroke: #000000; stroke-width: 0.5; stroke-linejoin: miter"/>
    </g>
    <g id="line2d_15">
     <path d="M 315.275 22.069937 
L 324.075 22.069937 
L 332.875 22.069937 
" style="fill: none; stroke: #0173b2; stroke-width: 1.2; stroke-linecap: square"/>
    </g>
    <g id="text_17">
     <!-- $v(t=30)= 1.962$ -->
     <g transform="translate(339.915 25.149937) scale(0.088 -0.088)">
      <defs>
       <path id="DejaVuSans-28" d="M 1984 4856 
Q 1566 4138 1362 3434 
Q 1159 2731 1159 2009 
Q 1159 1288 1364 580 
Q 1569 -128 1984 -844 
L 1484 -844 
Q 1016 -109 783 600 
Q 550 1309 550 2009 
Q 550 2706 781 3412 
Q 1013 4119 1484 4856 
L 1984 4856 
z
" transform="scale(0.015625)"/>
       <path id="DejaVuSans-3d" d="M 678 2906 
L 4684 2906 
L 4684 2381 
L 678 2381 
L 678 2906 
z
M 678 1631 
L 4684 1631 
L 4684 1100 
L 678 1100 
L 678 1631 
z
" transform="scale(0.015625)"/>
       <path id="DejaVuSans-29" d="M 513 4856 
L 1013 4856 
Q 1481 4119 1714 3412 
Q 1947 2706 1947 2009 
Q 1947 1309 1714 600 
Q 1481 -109 1013 -844 
L 513 -844 
Q 928 -128 1133 580 
Q 1338 1288 1338 2009 
Q 1338 2731 1133 3434 
Q 928 4138 513 4856 
z
" transform="scale(0.015625)"/>
       <path id="DejaVuSans-31" d="M 794 531 
L 1825 531 
L 1825 4091 
L 703 3866 
L 703 4441 
L 1819 4666 
L 2450 4666 
L 2450 531 
L 3481 531 
L 3481 0 
L 794 0 
L 794 531 
z
" transform="scale(0.015625)"/>
       <path id="DejaVuSans-39" d="M 703 97 
L 703 672 
Q 941 559 1184 500 
Q 1428 441 1663 441 
Q 2288 441 2617 861 
Q 2947 1281 2994 2138 
Q 2813 1869 2534 1725 
Q 2256 1581 1919 1581 
Q 1219 1581 811 2004 
Q 403 2428 403 3163 
Q 403 3881 828 4315 
Q 1253 4750 1959 4750 
Q 2769 4750 3195 4129 
Q 3622 3509 3622 2328 
Q 3622 1225 3098 567 
Q 2575 -91 1691 -91 
Q 1453 -91 1209 -44 
Q 966 3 703 97 
z
M 1959 2075 
Q 2384 2075 2632 2365 
Q 2881 2656 2881 3163 
Q 2881 3666 2632 3958 
Q 2384 4250 1959 4250 
Q 1534 4250 1286 3958 
Q 1038 3666 1038 3163 
Q 1038 2656 1286 2365 
Q 1534 2075 1959 2075 
z
" transform="scale(0.015625)"/>
       <path id="DejaVuSans-36" d="M 2113 2584 
Q 1688 2584 1439 2293 
Q 1191 2003 1191 1497 
Q 1191 994 1439 701 
Q 1688 409 2113 409 
Q 2538 409 2786 701 
Q 3034 994 3034 1497 
Q 3034 2003 2786 2293 
Q 2538 2584 2113 2584 
z
M 3366 4563 
L 3366 3988 
Q 3128 4100 2886 4159 
Q 2644 4219 2406 4219 
Q 1781 4219 1451 3797 
Q 1122 3375 1075 2522 
Q 1259 2794 1537 2939 
Q 1816 3084 2150 3084 
Q 2853 3084 3261 2657 
Q 3669 2231 3669 1497 
Q 3669 778 3244 343 
Q 2819 -91 2113 -91 
Q 1303 -91 875 529 
Q 447 1150 447 2328 
Q 447 3434 972 4092 
Q 1497 4750 2381 4750 
Q 2619 4750 2861 4703 
Q 3103 4656 3366 4563 
z
" transform="scale(0.015625)"/>
      </defs>
      <use xlink:href="#DejaVuSans-Oblique-76" transform="translate(0 0.125)"/>
      <use xlink:href="#DejaVuSans-28" transform="translate(59.179688 0.125)"/>
      <use xlink:href="#DejaVuSans-Oblique-74" transform="translate(98.193359 0.125)"/>
      <use xlink:href="#DejaVuSans-3d" transform="translate(156.884766 0.125)"/>
      <use xlink:href="#DejaVuSans-33" transform="translate(260.15625 0.125)"/>
      <use xlink:href="#DejaVuSans-30" transform="translate(323.779297 0.125)"/>
      <use xlink:href="#DejaVuSans-29" transform="translate(387.402344 0.125)"/>
      <use xlink:href="#DejaVuSans-3d" transform="translate(445.898438 0.125)"/>
      <use xlink:href="#DejaVuSans-31" transform="translate(549.169922 0.125)"/>
      <use xlink:href="#DejaVuSans-2e" transform="translate(612.792969 0.125)"/>
      <use xlink:href="#DejaVuSans-39" transform="translate(644.580078 0.125)"/>
      <use xlink:href="#DejaVuSans-36" transform="translate(708.203125 0.125)"/>
      <use xlink:href="#DejaVuSans-32" transform="translate(771.826172 0.125)"/>
     </g>
    </g>
    <g id="line2d_16">
     <path d="M 315.275 34.986688 
L 324.075 34.986688 
L 332.875 34.986688 
" style="fill: none; stroke: #de8f05; stroke-opacity: 0.7; stroke-width: 1.8; stroke-linecap: square"/>
    </g>
    <g id="text_18">
     <!-- $v_r(t=30)= 0.010$ -->
     <g transform="translate(339.915 38.066688) scale(0.088 -0.088)">
      <use xlink:href="#DejaVuSans-Oblique-76" transform="translate(0 0.125)"/>
      <use xlink:href="#DejaVuSans-Oblique-72" transform="translate(59.179688 -16.28125) scale(0.7)"/>
      <use xlink:href="#DejaVuSans-28" transform="translate(90.693359 0.125)"/>
      <use xlink:href="#DejaVuSans-Oblique-74" transform="translate(129.707031 0.125)"/>
      <use xlink:href="#DejaVuSans-3d" transform="translate(188.398438 0.125)"/>
      <use xlink:href="#DejaVuSans-33" transform="translate(291.669922 0.125)"/>
      <use xlink:href="#DejaVuSans-30" transform="translate(355.292969 0.125)"/>
      <use xlink:href="#DejaVuSans-29" transform="translate(418.916016 0.125)"/>
      <use xlink:href="#DejaVuSans-3d" transform="translate(477.412109 0.125)"/>
      <use xlink:href="#DejaVuSans-30" transform="translate(580.683594 0.125)"/>
      <use xlink:href="#DejaVuSans-2e" transform="translate(644.306641 0.125)"/>
      <use xlink:href="#DejaVuSans-30" transform="translate(676.09375 0.125)"/>
      <use xlink:href="#DejaVuSans-31" transform="translate(739.716797 0.125)"/>
      <use xlink:href="#DejaVuSans-30" transform="translate(803.339844 0.125)"/>
     </g>
    </g>
   </g>
   <g id="line2d_17">
    <path d="M 39.515 44.439611 
L 39.8498 50.484739 
L 41.12204 78.355675 
L 41.5238 81.585297 
L 41.8586 82.651135 
L 42.12644 82.898869 
L 42.39428 82.872332 
L 43.46564 82.519351 
L 43.8674 82.756845 
L 44.26916 83.291077 
L 44.73788 84.324813 
L 45.27356 86.112889 
L 45.8762 89.026398 
L 46.5458 93.526855 
L 48.08588 104.95301 
L 48.28676 105.304108 
L 48.42068 105.197239 
L 48.62156 104.467181 
L 48.8894 102.401422 
L 49.29116 97.326467 
L 50.42948 81.871707 
L 50.83124 79.159007 
L 51.233 77.854095 
L 51.5678 77.492774 
L 51.83564 77.500296 
L 52.2374 77.79491 
L 52.907 78.627475 
L 53.9114 80.241578 
L 54.581 81.70768 
L 55.18364 83.554222 
L 55.78628 86.191442 
L 56.38892 89.955733 
L 57.05852 95.777455 
L 58.39772 108.33571 
L 58.5986 108.75034 
L 58.73252 108.540978 
L 58.9334 107.407805 
L 59.20124 104.341333 
L 59.66996 95.727261 
L 60.47348 81.007076 
L 60.87524 76.948777 
L 61.277 74.986143 
L 61.6118 74.392479 
L 61.87964 74.307904 
L 62.2814 74.49202 
L 63.35276 75.136603 
L 63.88844 75.16864 
L 64.42412 74.953925 
L 64.9598 74.476557 
L 65.49548 73.690551 
L 66.03116 72.502543 
L 66.56684 70.758302 
L 67.10252 68.231062 
L 67.6382 64.625593 
L 68.24084 58.923266 
L 69.78092 42.395809 
L 69.91484 42.346549 
L 70.04876 42.837101 
L 70.24964 44.671387 
L 70.58444 50.543147 
L 71.92364 78.711942 
L 72.3254 81.551526 
L 72.6602 82.443672 
L 72.92804 82.622148 
L 73.26284 82.5327 
L 74.06636 82.199819 
L 74.46812 82.311769 
L 74.86988 82.697208 
L 75.3386 83.529366 
L 75.87428 85.043939 
L 76.40996 87.259998 
L 77.0126 90.746651 
L 77.74916 96.498413 
L 78.82052 104.933872 
L 79.08836 105.732673 
L 79.22228 105.72955 
L 79.3562 105.417094 
L 79.55708 104.332512 
L 79.89188 100.933108 
L 80.56148 90.614954 
L 81.16412 82.504273 
L 81.63284 78.913532 
L 82.0346 77.48972 
L 82.3694 77.077937 
L 82.63724 77.061876 
L 83.039 77.330257 
L 83.77556 78.188968 
L 84.91388 79.84009 
L 85.58348 81.168364 
L 86.18612 82.855335 
L 86.78876 85.293474 
L 87.3914 88.833181 
L 87.99404 93.823109 
L 88.86452 103.337562 
L 89.46716 108.904981 
L 89.735 109.726118 
L 89.86892 109.519891 
L 90.0698 108.316432 
L 90.33764 105.007313 
L 90.80636 95.686434 
L 91.60988 80.070672 
L 92.01164 75.938038 
L 92.34644 74.223963 
L 92.68124 73.537066 
L 92.94908 73.420133 
L 93.28388 73.538292 
L 94.35524 74.055366 
L 94.82396 73.96247 
L 95.29268 73.602362 
L 95.7614 72.948156 
L 96.29708 71.778432 
L 96.83276 70.038804 
L 97.36844 67.542684 
L 97.97108 63.539629 
L 98.64068 57.333172 
L 99.84596 45.380946 
L 100.04684 44.760439 
L 100.18076 44.84004 
L 100.38164 45.811561 
L 100.64948 48.769295 
L 101.1182 57.583176 
L 101.92172 73.214448 
L 102.32348 77.575469 
L 102.72524 79.685373 
L 103.06004 80.327834 
L 103.32788 80.428449 
L 103.72964 80.258643 
L 104.66708 79.751255 
L 105.1358 79.763167 
L 105.60452 80.014317 
L 106.07324 80.524836 
L 106.60892 81.473445 
L 107.1446 82.910635 
L 107.68028 85.001689 
L 108.21596 87.976403 
L 108.8186 92.695667 
L 109.55516 100.54802 
L 110.35868 108.924435 
L 110.62652 110.073576 
L 110.76044 110.047276 
L 110.89436 109.547079 
L 111.09524 107.845676 
L 111.43004 102.598313 
L 112.8362 76.486881 
L 113.23796 74.016479 
L 113.57276 73.226052 
L 113.8406 73.068059 
L 114.1754 73.16331 
L 115.24676 73.642677 
L 115.64852 73.543963 
L 116.05028 73.231551 
L 116.519 72.571781 
L 117.05468 71.370419 
L 117.59036 69.577488 
L 118.12604 67.015986 
L 118.72868 62.952108 
L 119.39828 56.784244 
L 120.46964 46.47504 
L 120.73748 45.542845 
L 120.8714 45.615942 
L 121.07228 46.517691 
L 121.34012 49.264504 
L 121.74188 56.142645 
L 122.67932 73.295256 
L 123.08108 77.212498 
L 123.41588 78.885129 
L 123.75068 79.583835 
L 124.01852 79.71697 
L 124.35332 79.605422 
L 125.82644 78.796875 
L 126.36212 78.85596 
L 126.8978 79.149329 
L 127.43348 79.699281 
L 127.96916 80.56502 
L 128.50484 81.856334 
L 129.04052 83.747114 
L 129.5762 86.487044 
L 130.11188 90.391859 
L 130.71452 96.522018 
L 132.12068 112.103001 
L 132.2546 112.241237 
L 132.38852 111.831451 
L 132.5894 110.087902 
L 132.9242 104.238102 
L 134.2634 75.202796 
L 134.66516 72.255333 
L 134.99996 71.331731 
L 135.2678 71.146485 
L 135.6026 71.235073 
L 136.40612 71.551408 
L 136.80788 71.412442 
L 137.20964 70.98507 
L 137.67836 70.084591 
L 138.21404 68.467274 
L 138.74972 66.128731 
L 139.35236 62.510059 
L 140.15588 56.172678 
L 140.9594 50.128948 
L 141.2942 49.017892 
L 141.42812 49.000779 
L 141.56204 49.271662 
L 141.76292 50.252434 
L 142.09772 53.382629 
L 142.70036 62.058637 
L 143.36996 70.940515 
L 143.83868 74.542465 
L 144.24044 76.028754 
L 144.57524 76.490067 
L 144.84308 76.533502 
L 145.17788 76.340397 
L 145.78052 75.646219 
L 146.71796 74.191011 
L 147.45452 72.669559 
L 148.05716 70.935886 
L 148.6598 68.480642 
L 149.26244 64.980127 
L 149.86508 60.142401 
L 151.47212 45.801585 
L 151.60604 45.668385 
L 151.73996 45.927895 
L 151.94084 47.120936 
L 152.20868 50.221468 
L 152.6774 58.738895 
L 153.48092 73.088337 
L 153.88268 77.027851 
L 154.28444 78.933311 
L 154.61924 79.508086 
L 154.88708 79.586272 
L 155.28884 79.395794 
L 156.49412 78.655224 
L 157.0298 78.614513 
L 157.56548 78.787328 
L 158.10116 79.182383 
L 158.63684 79.837169 
L 159.17252 80.831593 
L 159.7082 82.300522 
L 160.24388 84.448494 
L 160.77956 87.559902 
L 161.31524 91.973944 
L 161.98484 99.642959 
L 162.98924 111.79624 
L 163.19012 112.690968 
L 163.25708 112.743118 
L 163.32404 112.655523 
L 163.45796 112.03003 
L 163.65884 109.901819 
L 163.99364 103.373361 
L 165.19892 75.706101 
L 165.60068 72.186895 
L 165.93548 71.010646 
L 166.20332 70.725951 
L 166.47116 70.739403 
L 167.54252 71.074724 
L 167.87732 70.873745 
L 168.27908 70.346684 
L 168.7478 69.304579 
L 169.28348 67.493198 
L 169.88612 64.560648 
L 170.55572 60.113984 
L 171.96188 50.158028 
L 172.22972 49.645686 
L 172.36364 49.759173 
L 172.56452 50.45006 
L 172.83236 52.364837 
L 173.30108 57.961082 
L 174.30548 70.918124 
L 174.7742 74.169004 
L 175.17596 75.494412 
L 175.51076 75.887008 
L 175.7786 75.89804 
L 176.1134 75.674422 
L 176.64908 75.010944 
L 177.4526 73.637698 
L 178.18916 71.940821 
L 178.7918 70.013602 
L 179.39444 67.321587 
L 179.99708 63.57028 
L 180.66668 57.956841 
L 181.87196 47.520294 
L 182.1398 46.889189 
L 182.27372 47.069925 
L 182.4746 48.048221 
L 182.74244 50.696091 
L 183.21116 58.207832 
L 184.08164 72.419496 
L 184.55036 76.445958 
L 184.88516 77.829406 
L 185.21996 78.387799 
L 185.4878 78.466883 
L 185.8226 78.314743 
L 186.69308 77.538415 
L 187.76444 76.741878 
L 189.37148 75.632766 
L 190.04108 74.859497 
L 190.64372 73.791453 
L 191.1794 72.36937 
L 191.71508 70.272814 
L 192.25076 67.189872 
L 192.78644 62.727884 
L 193.38908 55.648887 
L 194.59436 40.048443 
L 194.79524 39.576361 
L 194.92916 40.05931 
L 195.13004 42.138859 
L 195.46484 49.118179 
L 196.73708 80.773183 
L 197.07188 83.650052 
L 197.40668 84.82213 
L 197.67452 85.067099 
L 197.94236 85.016772 
L 198.81284 84.683402 
L 199.14764 84.845288 
L 199.5494 85.354929 
L 200.01812 86.413157 
L 200.5538 88.259414 
L 201.15644 91.163583 
L 202.02692 96.608913 
L 202.83044 101.237344 
L 203.16524 102.126475 
L 203.29916 102.186498 
L 203.43308 102.050006 
L 203.63396 101.45317 
L 203.96876 99.415553 
L 204.50444 94.095296 
L 205.44188 84.630094 
L 205.9106 81.940319 
L 206.31236 80.780672 
L 206.64716 80.41977 
L 206.915 80.414429 
L 207.2498 80.658253 
L 207.71852 81.322651 
L 208.32116 82.579661 
L 208.99076 84.503243 
L 209.66036 87.160319 
L 210.32996 90.792793 
L 211.20044 96.988458 
L 212.07092 102.811209 
L 212.40572 103.728567 
L 212.53964 103.723721 
L 212.67356 103.472544 
L 212.87444 102.608663 
L 213.20924 99.905644 
L 213.81188 92.402234 
L 214.54844 83.8347 
L 215.01716 80.688302 
L 215.41892 79.364333 
L 215.75372 78.952584 
L 216.02156 78.928028 
L 216.35636 79.146703 
L 216.89204 79.841956 
L 217.6286 81.219697 
L 218.2982 82.915249 
L 218.9678 85.272205 
L 219.57044 88.239985 
L 220.24004 92.770995 
L 221.981 105.937093 
L 222.11492 106.039727 
L 222.24884 105.833041 
L 222.44972 104.895751 
L 222.71756 102.467047 
L 223.18628 95.698525 
L 224.05676 82.724727 
L 224.52548 78.873615 
L 224.92724 77.315463 
L 225.26204 76.841287 
L 225.52988 76.795778 
L 225.86468 76.980015 
L 226.53428 77.688953 
L 227.94044 79.545972 
L 228.677 80.910228 
L 229.27964 82.525719 
L 229.81532 84.572853 
L 230.351 87.452596 
L 230.95364 92.031423 
L 231.62324 99.001631 
L 232.62764 109.557543 
L 232.89548 110.376366 
L 233.0294 110.129052 
L 233.23028 108.80704 
L 233.49812 105.241368 
L 233.96684 95.354311 
L 234.7034 80.224578 
L 235.10516 75.675254 
L 235.43996 73.76651 
L 235.77476 72.984483 
L 236.0426 72.833323 
L 236.3774 72.93252 
L 237.3818 73.374696 
L 237.78356 73.274742 
L 238.18532 72.950645 
L 238.65404 72.261896 
L 239.18972 71.006056 
L 239.7254 69.135859 
L 240.26108 66.477982 
L 240.86372 62.303354 
L 241.60028 55.408725 
L 242.47076 47.251035 
L 242.7386 46.106317 
L 242.87252 46.019519 
L 243.00644 46.317418 
L 243.20732 47.545708 
L 243.54212 51.645088 
L 244.21172 64.269512 
L 244.81436 73.729205 
L 245.21612 77.193689 
L 245.55092 78.629866 
L 245.88572 79.196237 
L 246.15356 79.273074 
L 246.55532 79.078537 
L 247.89452 78.200358 
L 248.49716 78.110644 
L 249.0998 78.227417 
L 249.7694 78.598863 
L 250.37204 79.195811 
L 250.97468 80.144147 
L 251.51036 81.423124 
L 252.04604 83.312206 
L 252.58172 86.090792 
L 253.1174 90.124895 
L 253.72004 96.611609 
L 255.19316 114.187339 
L 255.26012 114.211449 
L 255.39404 113.775051 
L 255.59492 111.805549 
L 255.92972 105.088983 
L 257.20196 73.859218 
L 257.53676 70.914047 
L 257.87156 69.681457 
L 258.1394 69.403375 
L 258.40724 69.434721 
L 259.34468 69.767518 
L 259.67948 69.584014 
L 260.08124 69.051506 
L 260.54996 67.970463 
L 261.08564 66.096411 
L 261.68828 63.141582 
L 262.55876 57.53241 
L 263.36228 52.62692 
L 263.69708 51.619264 
L 263.89796 51.547621 
L 264.09884 51.953413 
L 264.36668 53.279807 
L 264.76844 56.786893 
L 266.24156 71.554735 
L 266.64332 73.274341 
L 266.97812 73.96129 
L 267.24596 74.151255 
L 267.5138 74.109824 
L 267.8486 73.827006 
L 268.38428 73.018457 
L 269.05388 71.554596 
L 269.72348 69.537835 
L 270.39308 66.73855 
L 271.06268 62.888749 
L 271.93316 56.339217 
L 272.73668 50.757506 
L 273.00452 49.892083 
L 273.13844 49.78838 
L 273.27236 49.940086 
L 273.47324 50.683894 
L 273.74108 52.650756 
L 274.2098 58.25551 
L 275.2142 70.969856 
L 275.68292 74.121436 
L 276.08468 75.39612 
L 276.41948 75.764597 
L 276.68732 75.763533 
L 277.02212 75.529144 
L 277.5578 74.849378 
L 278.36132 73.436042 
L 279.09788 71.672989 
L 279.70052 69.664041 
L 280.30316 66.86316 
L 280.9058 62.986248 
L 281.64236 56.638397 
L 282.64676 48.01351 
L 282.9146 47.15449 
L 283.04852 47.185004 
L 283.18244 47.570437 
L 283.38332 48.854533 
L 283.71812 52.799461 
L 284.52164 66.669087 
L 285.05732 73.712545 
L 285.45908 76.609252 
L 285.79388 77.782345 
L 286.12868 78.214491 
L 286.39652 78.235754 
L 286.79828 77.989667 
L 289.9454 75.126158 
L 290.615 74.113361 
L 291.15068 72.910372 
L 291.68636 71.164276 
L 292.22204 68.620172 
L 292.75772 64.943657 
L 293.36036 59.017433 
L 294.16388 48.326496 
L 294.76652 41.514186 
L 294.9674 40.739325 
L 295.03436 40.749451 
L 295.16828 41.231606 
L 295.36916 43.197404 
L 295.70396 49.683031 
L 296.9762 79.560764 
L 297.37796 82.819134 
L 297.71276 83.831065 
L 297.9806 84.033165 
L 298.3154 83.942731 
L 299.05196 83.650221 
L 299.38676 83.753691 
L 299.72156 84.073493 
L 300.12332 84.768454 
L 300.59204 86.037352 
L 301.12772 88.141492 
L 301.73036 91.406059 
L 302.60084 97.558105 
L 303.3374 102.433324 
L 303.6722 103.525656 
L 303.80612 103.616805 
L 303.94004 103.473912 
L 304.14092 102.788126 
L 304.40876 100.984061 
L 304.87748 95.834714 
L 305.94884 83.327011 
L 306.41756 80.498267 
L 306.81932 79.366213 
L 307.15412 79.05815 
L 307.355 79.063199 
L 307.355 79.063199 
" style="fill: none; stroke: #0173b2; stroke-width: 1.2; stroke-linecap: square"/>
   </g>
   <g id="line2d_18">
    <path d="M 39.515 76.904992 
L 40.65332 19.441879 
L 40.92116 14.193703 
L 40.98812 14.233812 
L 41.12204 16.424721 
L 41.32292 25.698652 
L 41.65772 55.769729 
L 42.26036 110.141378 
L 42.5282 119.478056 
L 42.72908 121.371923 
L 42.79604 121.284518 
L 42.92996 120.239156 
L 43.1978 115.251175 
L 43.59956 102.243086 
L 44.47004 71.826148 
L 44.80484 66.86428 
L 45.00572 66.049256 
L 45.07268 66.090838 
L 45.2066 66.585788 
L 45.47444 68.949293 
L 45.94316 76.006445 
L 48.08588 112.170864 
L 48.28676 113.182879 
L 48.35372 113.245558 
L 48.48764 112.894932 
L 48.68852 111.066951 
L 48.95636 106.152405 
L 49.559 88.940401 
L 50.02772 78.186603 
L 50.36252 74.747869 
L 50.5634 74.205915 
L 50.69732 74.318207 
L 50.8982 74.986483 
L 51.43388 78.014318 
L 51.96956 80.589586 
L 52.37132 81.56089 
L 52.63916 81.781797 
L 52.907 81.755238 
L 53.37572 81.403701 
L 53.97836 81.021343 
L 54.31316 81.079028 
L 54.64796 81.421221 
L 55.04972 82.264275 
L 55.51844 83.906168 
L 56.05412 86.751096 
L 56.65676 91.370001 
L 57.32636 98.378108 
L 58.39772 109.710947 
L 58.5986 110.373937 
L 58.66556 110.377194 
L 58.79948 110.007553 
L 59.00036 108.427563 
L 59.33516 103.030967 
L 60.74132 75.113203 
L 61.00916 73.824946 
L 61.21004 73.560815 
L 61.41092 73.69476 
L 61.74572 74.387186 
L 62.54924 76.128707 
L 62.951 76.469908 
L 63.2858 76.468076 
L 63.68756 76.208372 
L 64.2902 75.499298 
L 65.16068 74.119468 
L 65.89724 72.555042 
L 66.49988 70.716793 
L 67.03556 68.35825 
L 67.57124 64.987687 
L 68.17388 59.575561 
L 68.91044 50.558696 
L 69.58004 42.733796 
L 69.84788 41.43251 
L 69.91484 41.412027 
L 70.04876 41.814354 
L 70.24964 43.643985 
L 70.51748 48.453015 
L 71.05316 63.54453 
L 71.6558 78.18955 
L 71.9906 82.083674 
L 72.25844 83.308408 
L 72.45932 83.477874 
L 72.6602 83.248349 
L 73.12892 82.083843 
L 73.6646 80.957395 
L 73.9994 80.696295 
L 74.26724 80.757766 
L 74.60204 81.141393 
L 75.0038 81.982015 
L 75.53948 83.628967 
L 76.20908 86.463566 
L 76.87868 90.306808 
L 77.61524 95.924586 
L 78.82052 105.492835 
L 79.08836 106.224449 
L 79.22228 106.16422 
L 79.42316 105.445504 
L 79.691 103.236152 
L 80.09276 97.544277 
L 81.16412 80.959971 
L 81.56588 78.188922 
L 81.90068 77.287933 
L 82.16852 77.165126 
L 82.43636 77.345965 
L 83.17292 78.312856 
L 83.97644 79.170583 
L 85.0478 80.248224 
L 85.58348 81.140086 
L 86.11916 82.486305 
L 86.65484 84.465719 
L 87.19052 87.29942 
L 87.79316 91.826013 
L 88.46276 98.76055 
L 89.53412 110.160391 
L 89.735 110.828768 
L 89.80196 110.82897 
L 89.93588 110.443379 
L 90.13676 108.809399 
L 90.47156 103.232063 
L 91.87772 74.4229 
L 92.14556 73.077381 
L 92.34644 72.779085 
L 92.54732 72.881644 
L 92.88212 73.522814 
L 93.61868 75.048593 
L 94.02044 75.380482 
L 94.35524 75.344492 
L 94.757 74.993031 
L 95.29268 74.142345 
L 95.96228 72.623985 
L 96.63188 70.54784 
L 97.23452 67.938274 
L 97.83716 64.248281 
L 98.4398 59.122407 
L 100.04684 44.108084 
L 100.18076 44.14511 
L 100.31468 44.665429 
L 100.51556 46.437867 
L 100.85036 51.994963 
L 102.18956 78.605368 
L 102.52436 80.457372 
L 102.72524 80.796745 
L 102.92612 80.763181 
L 103.19396 80.38366 
L 104.1314 78.796195 
L 104.4662 78.612554 
L 104.801 78.664779 
L 105.20276 78.982375 
L 105.73844 79.724484 
L 106.40804 81.049881 
L 107.07764 82.892946 
L 107.68028 85.253902 
L 108.28292 88.656241 
L 108.88556 93.506439 
L 109.62212 101.545313 
L 110.42564 109.93712 
L 110.69348 110.887471 
L 110.76044 110.84977 
L 110.89436 110.38382 
L 111.09524 108.624132 
L 111.43004 102.861334 
L 112.76924 74.704409 
L 113.10404 72.843262 
L 113.30492 72.543276 
L 113.5058 72.629957 
L 113.8406 73.225018 
L 114.57716 74.631976 
L 114.91196 74.892086 
L 115.24676 74.86752 
L 115.58156 74.5941 
L 116.05028 73.879789 
L 116.65292 72.516136 
L 117.32252 70.416074 
L 117.92516 67.793516 
L 118.5278 64.139226 
L 119.1974 58.496514 
L 120.67052 45.048741 
L 120.80444 44.894172 
L 120.93836 45.164097 
L 121.13924 46.460976 
L 121.40708 49.92133 
L 121.8758 59.652094 
L 122.61236 74.566182 
L 123.01412 78.588044 
L 123.28196 79.709645 
L 123.48284 79.978554 
L 123.68372 79.923342 
L 124.01852 79.443855 
L 124.82204 78.152404 
L 125.2238 77.888893 
L 125.62556 77.902513 
L 126.09428 78.176477 
L 126.76388 78.861163 
L 127.5674 80.006142 
L 128.237 81.360482 
L 128.83964 83.154693 
L 129.37532 85.491494 
L 129.911 88.854206 
L 130.51364 94.289798 
L 131.2502 103.463709 
L 131.98676 112.216202 
L 132.2546 113.266993 
L 132.38852 112.961939 
L 132.5894 111.242571 
L 132.85724 106.468599 
L 133.39292 90.981924 
L 133.99556 75.69104 
L 134.33036 71.622461 
L 134.5982 70.356335 
L 134.79908 70.19303 
L 134.99996 70.446619 
L 135.46868 71.687018 
L 136.00436 72.870315 
L 136.33916 73.135873 
L 136.607 73.060295 
L 136.9418 72.639315 
L 137.34356 71.729883 
L 137.87924 69.960474 
L 138.54884 66.941046 
L 139.2854 62.447415 
L 140.15588 55.507751 
L 140.9594 49.532602 
L 141.22724 48.616799 
L 141.36116 48.530043 
L 141.49508 48.737319 
L 141.69596 49.652434 
L 141.9638 52.032857 
L 142.43252 58.77569 
L 143.303 71.715179 
L 143.70476 74.850853 
L 144.03956 76.043375 
L 144.3074 76.346167 
L 144.57524 76.289768 
L 144.977 75.871879 
L 147.52148 72.452726 
L 148.05716 71.03996 
L 148.59284 68.983997 
L 149.12852 66.070255 
L 149.73116 61.495287 
L 150.46772 53.974002 
L 151.27124 45.90212 
L 151.53908 44.716683 
L 151.673 44.692064 
L 151.80692 45.12658 
L 152.0078 46.725007 
L 152.3426 51.901482 
L 153.74876 78.323109 
L 154.08356 79.867905 
L 154.28444 80.087995 
L 154.48532 79.972682 
L 154.82012 79.38748 
L 155.62364 77.91339 
L 156.0254 77.611736 
L 156.42716 77.612302 
L 156.89588 77.884212 
L 157.63244 78.630221 
L 158.50292 79.80956 
L 159.17252 81.074012 
L 159.77516 82.74683 
L 160.31084 84.93828 
L 160.84652 88.118088 
L 161.3822 92.648518 
L 162.0518 100.551119 
L 163.0562 112.998301 
L 163.25708 113.780494 
L 163.32404 113.762353 
L 163.45796 113.236115 
L 163.65884 111.098052 
L 163.99364 103.915006 
L 165.19892 72.469534 
L 165.53372 70.02004 
L 165.7346 69.651805 
L 165.86852 69.706604 
L 166.13636 70.245971 
L 167.0738 72.560122 
L 167.34164 72.744853 
L 167.60948 72.658445 
L 167.94428 72.203269 
L 168.34604 71.22648 
L 168.94868 69.053629 
L 169.61828 65.752125 
L 170.35484 60.961995 
L 171.96188 49.576371 
L 172.16276 49.210445 
L 172.29668 49.284691 
L 172.49756 49.937787 
L 172.7654 51.875642 
L 173.16716 56.809306 
L 174.30548 72.215868 
L 174.70724 74.660075 
L 175.04204 75.508473 
L 175.30988 75.668128 
L 175.57772 75.550249 
L 176.1134 74.951437 
L 177.85436 72.530869 
L 178.457 71.149776 
L 178.99268 69.34113 
L 179.52836 66.777972 
L 180.131 62.746417 
L 180.86756 56.030855 
L 181.87196 46.816215 
L 182.1398 45.984702 
L 182.27372 46.107486 
L 182.4746 47.092444 
L 182.74244 49.991802 
L 183.1442 57.229111 
L 184.01468 73.835857 
L 184.41644 77.558955 
L 184.68428 78.598734 
L 184.88516 78.840697 
L 185.08604 78.772719 
L 185.42084 78.277951 
L 186.35828 76.709067 
L 186.827 76.36462 
L 187.36268 76.264559 
L 188.76884 76.171118 
L 189.37148 75.829104 
L 189.90716 75.276014 
L 190.44284 74.422925 
L 190.97852 73.162764 
L 191.5142 71.320018 
L 192.04988 68.626931 
L 192.58556 64.71189 
L 193.12124 59.152049 
L 193.79084 49.684464 
L 194.5274 39.396917 
L 194.79524 38.082688 
L 194.8622 38.159689 
L 194.99612 38.903592 
L 195.197 41.635808 
L 195.5318 50.417662 
L 196.60316 82.97585 
L 196.93796 86.076475 
L 197.13884 86.551363 
L 197.27276 86.489485 
L 197.5406 85.824621 
L 198.47804 82.936463 
L 198.74588 82.698374 
L 198.94676 82.741532 
L 199.2146 83.074324 
L 199.61636 84.082788 
L 200.15204 86.170766 
L 200.8886 90.066699 
L 201.95996 97.16581 
L 202.69652 101.535757 
L 203.03132 102.534609 
L 203.2322 102.622262 
L 203.43308 102.247572 
L 203.70092 100.975905 
L 204.10268 97.537354 
L 205.5758 82.954721 
L 205.97756 81.440447 
L 206.31236 80.922764 
L 206.5802 80.835502 
L 206.915 80.981213 
L 207.45068 81.535779 
L 208.12028 82.558343 
L 208.72292 83.854895 
L 209.32556 85.713604 
L 209.9282 88.356766 
L 210.5978 92.411732 
L 212.33876 104.222955 
L 212.53964 104.374517 
L 212.67356 104.139969 
L 212.87444 103.234176 
L 213.20924 100.240152 
L 213.74492 92.694807 
L 214.48148 82.929184 
L 214.88324 80.068508 
L 215.21804 79.007298 
L 215.48588 78.779562 
L 215.75372 78.90425 
L 216.15548 79.433628 
L 218.09732 82.737155 
L 218.69996 84.326114 
L 219.23564 86.382351 
L 219.83828 89.681931 
L 220.50788 94.783076 
L 221.91404 106.439198 
L 222.11492 106.842316 
L 222.24884 106.696839 
L 222.44972 105.767822 
L 222.71756 103.135857 
L 223.18628 95.388703 
L 223.9898 81.534204 
L 224.39156 77.915263 
L 224.72636 76.664093 
L 224.92724 76.461299 
L 225.12812 76.529142 
L 225.46292 76.984664 
L 226.60124 78.781015 
L 227.3378 79.389024 
L 228.14132 80.085704 
L 228.677 80.884362 
L 229.21268 82.143398 
L 229.74836 84.037963 
L 230.28404 86.78822 
L 230.88668 91.238502 
L 231.55628 98.193222 
L 232.6946 110.885452 
L 232.89548 111.566244 
L 232.96244 111.555651 
L 233.09636 111.121837 
L 233.29724 109.342709 
L 233.63204 103.342273 
L 234.97124 74.02703 
L 235.23908 72.46181 
L 235.43996 72.084072 
L 235.57388 72.096037 
L 235.77476 72.373134 
L 237.047 74.798383 
L 237.31484 74.822518 
L 237.64964 74.589773 
L 238.0514 73.997199 
L 238.65404 72.627069 
L 239.32364 70.512995 
L 239.99324 67.592887 
L 240.59588 63.935668 
L 241.26548 58.371657 
L 242.67164 45.740086 
L 242.87252 45.455171 
L 243.00644 45.764884 
L 243.20732 47.079811 
L 243.47516 50.466093 
L 243.94388 59.812117 
L 244.68044 74.085271 
L 245.0822 78.003592 
L 245.417 79.277791 
L 245.61788 79.455583 
L 245.81876 79.359408 
L 246.22052 78.766988 
L 246.95708 77.689188 
L 247.35884 77.43582 
L 247.7606 77.413124 
L 248.29628 77.622123 
L 249.23372 78.278346 
L 250.17116 79.155368 
L 250.84076 80.0887 
L 251.37644 81.207702 
L 251.91212 82.863175 
L 252.4478 85.3218 
L 252.98348 88.938598 
L 253.51916 94.120665 
L 254.18876 103.081722 
L 255.05924 114.663473 
L 255.26012 115.475377 
L 255.32708 115.427692 
L 255.461 114.771045 
L 255.66188 112.241935 
L 255.99668 103.937558 
L 257.06804 71.937764 
L 257.40284 68.6222 
L 257.60372 68.02121 
L 257.73764 68.009529 
L 257.93852 68.37202 
L 258.54116 70.376598 
L 259.00988 71.454084 
L 259.27772 71.64474 
L 259.4786 71.577351 
L 259.74644 71.227091 
L 260.1482 70.218579 
L 260.68388 68.157988 
L 261.42044 64.292758 
L 262.35788 58.024878 
L 263.29532 52.10332 
L 263.63012 51.133913 
L 263.76404 51.063759 
L 263.89796 51.208034 
L 264.09884 51.857987 
L 264.36668 53.55115 
L 264.8354 58.411602 
L 265.90676 70.259549 
L 266.30852 72.511436 
L 266.64332 73.432359 
L 266.91116 73.716859 
L 267.179 73.732513 
L 267.58076 73.457643 
L 268.25036 72.631784 
L 268.98692 71.372534 
L 269.58956 69.891428 
L 270.1922 67.751976 
L 270.79484 64.722639 
L 271.46444 60.149769 
L 272.93756 49.449048 
L 273.13844 49.110237 
L 273.27236 49.227692 
L 273.47324 49.986198 
L 273.74108 52.134408 
L 274.14284 57.46046 
L 275.2142 72.599833 
L 275.61596 75.102184 
L 275.95076 75.879285 
L 276.15164 75.954122 
L 276.41948 75.769413 
L 276.95516 74.961959 
L 278.2274 73.023292 
L 278.96396 71.749019 
L 279.49964 70.366657 
L 280.03532 68.356388 
L 280.571 65.507039 
L 281.17364 61.079529 
L 282.04412 52.65448 
L 282.71372 47.023921 
L 282.98156 46.233525 
L 283.11548 46.369573 
L 283.31636 47.360342 
L 283.5842 50.234063 
L 284.05292 58.753931 
L 284.85644 73.687432 
L 285.2582 77.368102 
L 285.593 78.527945 
L 285.79388 78.656211 
L 285.99476 78.516683 
L 286.39652 77.840422 
L 287.20004 76.499286 
L 287.66876 76.115868 
L 288.2714 75.942909 
L 289.34276 75.707502 
L 289.87844 75.336823 
L 290.41412 74.681131 
L 290.9498 73.652815 
L 291.48548 72.121523 
L 292.02116 69.88424 
L 292.55684 66.644887 
L 293.09252 62.029368 
L 293.69516 54.823622 
L 294.90044 39.60382 
L 295.03436 39.315113 
L 295.16828 39.688483 
L 295.36916 41.678435 
L 295.637 47.129446 
L 296.17268 64.402089 
L 296.70836 79.249408 
L 297.04316 83.786804 
L 297.311 85.139325 
L 297.51188 85.262592 
L 297.71276 84.921541 
L 298.3154 83.015979 
L 298.78412 81.989263 
L 299.05196 81.805212 
L 299.3198 81.921375 
L 299.6546 82.44671 
L 300.12332 83.766208 
L 300.72596 86.239884 
L 301.46252 90.276357 
L 302.333 96.385768 
L 303.27044 102.829022 
L 303.60524 103.93772 
L 303.73916 104.031316 
L 303.87308 103.884651 
L 304.07396 103.173927 
L 304.3418 101.282539 
L 304.81052 95.80469 
L 305.81492 83.301361 
L 306.21668 80.735267 
L 306.55148 79.71253 
L 306.81932 79.415496 
L 307.08716 79.419274 
L 307.355 79.604253 
L 307.355 79.604253 
" style="fill: none; stroke: #de8f05; stroke-opacity: 0.7; stroke-width: 1.8; stroke-linecap: square"/>
   </g>
   <g id="PathCollection_1">
    <defs>
     <path id="m6a8f5bbf1c" d="M 0 3.162278 
C 0.838646 3.162278 1.643056 2.82908 2.236068 2.236068 
C 2.82908 1.643056 3.162278 0.838646 3.162278 0 
C 3.162278 -0.838646 2.82908 -1.643056 2.236068 -2.236068 
C 1.643056 -2.82908 0.838646 -3.162278 0 -3.162278 
C -0.838646 -3.162278 -1.643056 -2.82908 -2.236068 -2.236068 
C -2.82908 -1.643056 -3.162278 -0.838646 -3.162278 0 
C -3.162278 0.838646 -2.82908 1.643056 -2.236068 2.236068 
C -1.643056 2.82908 -0.838646 3.162278 0 3.162278 
z
" style="stroke: #0173b2; stroke-width: 0.8"/>
    </defs>
    <g>
     <use xlink:href="#m6a8f5bbf1c" x="39.515" y="44.439611" style="fill: #0173b2; stroke: #0173b2; stroke-width: 0.8"/>
    </g>
   </g>
   <g id="PathCollection_2">
    <defs>
     <path id="m780c0030df" d="M 0 3.162278 
C 0.838646 3.162278 1.643056 2.82908 2.236068 2.236068 
C 2.82908 1.643056 3.162278 0.838646 3.162278 0 
C 3.162278 -0.838646 2.82908 -1.643056 2.236068 -2.236068 
C 1.643056 -2.82908 0.838646 -3.162278 0 -3.162278 
C -0.838646 -3.162278 -1.643056 -2.82908 -2.236068 -2.236068 
C -2.82908 -1.643056 -3.162278 -0.838646 -3.162278 0 
C -3.162278 0.838646 -2.82908 1.643056 -2.236068 2.236068 
C -1.643056 2.82908 -0.838646 3.162278 0 3.162278 
z
" style="stroke: #de8f05; stroke-width: 0.8"/>
    </defs>
    <g>
     <use xlink:href="#m780c0030df" x="39.515" y="76.904992" style="fill: #de8f05; stroke: #de8f05; stroke-width: 0.8"/>
    </g>
   </g>
  </g>
 </g>
</svg>
