<?xml version="1.0" encoding="utf-8" standalone="no"?>
<!DOCTYPE svg PUBLIC "-//W3C//DTD SVG 1.1//EN"
  "http://www.w3.org/Graphics/SVG/1.1/DTD/svg11.dtd">
<svg xmlns:xlink="http://www.w3.org/1999/xlink" width="435.471125pt" height="176.012273pt" viewBox="0 0 435.471125 176.012273" xmlns="http://www.w3.org/2000/svg" version="1.1">
 <metadata>
  <rdf:RDF xmlns:dc="http://purl.org/dc/elements/1.1/" xmlns:cc="http://creativecommons.org/ns#" xmlns:rdf="http://www.w3.org/1999/02/22-rdf-syntax-ns#">
   <cc:Work>
    <dc:type rdf:resource="http://purl.org/dc/dcmitype/StillImage"/>
    <dc:date>2024-04-08T02:27:48.827950</dc:date>
    <dc:format>image/svg+xml</dc:format>
    <dc:creator>
     <cc:Agent>
      <dc:title>Matplotlib v3.8.3, https://matplotlib.org/</dc:title>
     </cc:Agent>
    </dc:creator>
   </cc:Work>
  </rdf:RDF>
 </metadata>
 <defs>
  <style type="text/css">*{stroke-linejoin: round; stroke-linecap: butt}</style>
 </defs>
 <g id="figure_1">
  <g id="patch_1">
   <path d="M 0 176.012273 
L 435.471125 176.012273 
L 435.471125 0 
L 0 0 
z
" style="fill: #ffffff"/>
  </g>
  <g id="axes_1">
   <g id="patch_2">
    <path d="M 45.063125 143.004523 
L 312.903125 143.004523 
L 312.903125 9.948523 
L 45.063125 9.948523 
z
" style="fill: #ffffff"/>
   </g>
   <g id="matplotlib.axis_1">
    <g id="xtick_1">
     <g id="line2d_1">
      <defs>
       <path id="mf5374b26c9" d="M 0 0 
L 0 -3 
" style="stroke: #000000; stroke-width: 0.5"/>
      </defs>
      <g>
       <use xlink:href="#mf5374b26c9" x="45.063125" y="143.004523" style="stroke: #000000; stroke-width: 0.5"/>
      </g>
     </g>
     <g id="text_1">
      <!-- 0 -->
      <g transform="translate(42.263625 152.691148) scale(0.088 -0.088)">
       <defs>
        <path id="DejaVuSerif-30" d="M 2034 219 
Q 2513 219 2750 744 
Q 2988 1269 2988 2328 
Q 2988 3391 2750 3916 
Q 2513 4441 2034 4441 
Q 1556 4441 1318 3916 
Q 1081 3391 1081 2328 
Q 1081 1269 1318 744 
Q 1556 219 2034 219 
z
M 2034 -91 
Q 1275 -91 848 546 
Q 422 1184 422 2328 
Q 422 3475 848 4112 
Q 1275 4750 2034 4750 
Q 2797 4750 3222 4112 
Q 3647 3475 3647 2328 
Q 3647 1184 3222 546 
Q 2797 -91 2034 -91 
z
" transform="scale(0.015625)"/>
       </defs>
       <use xlink:href="#DejaVuSerif-30"/>
      </g>
     </g>
    </g>
    <g id="xtick_2">
     <g id="line2d_2">
      <g>
       <use xlink:href="#mf5374b26c9" x="98.631125" y="143.004523" style="stroke: #000000; stroke-width: 0.5"/>
      </g>
     </g>
     <g id="text_2">
      <!-- 10 -->
      <g transform="translate(93.032125 152.691148) scale(0.088 -0.088)">
       <defs>
        <path id="DejaVuSerif-31" d="M 909 0 
L 909 331 
L 1722 331 
L 1722 4213 
L 781 3603 
L 781 4013 
L 1919 4750 
L 2350 4750 
L 2350 331 
L 3163 331 
L 3163 0 
L 909 0 
z
" transform="scale(0.015625)"/>
       </defs>
       <use xlink:href="#DejaVuSerif-31"/>
       <use xlink:href="#DejaVuSerif-30" x="63.623047"/>
      </g>
     </g>
    </g>
    <g id="xtick_3">
     <g id="line2d_3">
      <g>
       <use xlink:href="#mf5374b26c9" x="152.199125" y="143.004523" style="stroke: #000000; stroke-width: 0.5"/>
      </g>
     </g>
     <g id="text_3">
      <!-- 20 -->
      <g transform="translate(146.600125 152.691148) scale(0.088 -0.088)">
       <defs>
        <path id="DejaVuSerif-32" d="M 819 3553 
L 469 3553 
L 469 4384 
Q 803 4563 1142 4656 
Q 1481 4750 1806 4750 
Q 2534 4750 2956 4397 
Q 3378 4044 3378 3438 
Q 3378 2753 2422 1800 
Q 2347 1728 2309 1691 
L 1131 513 
L 3078 513 
L 3078 1088 
L 3444 1088 
L 3444 0 
L 434 0 
L 434 341 
L 1850 1753 
Q 2319 2222 2519 2614 
Q 2719 3006 2719 3438 
Q 2719 3909 2473 4175 
Q 2228 4441 1797 4441 
Q 1350 4441 1106 4219 
Q 863 3997 819 3553 
z
" transform="scale(0.015625)"/>
       </defs>
       <use xlink:href="#DejaVuSerif-32"/>
       <use xlink:href="#DejaVuSerif-30" x="63.623047"/>
      </g>
     </g>
    </g>
    <g id="xtick_4">
     <g id="line2d_4">
      <g>
       <use xlink:href="#mf5374b26c9" x="205.767125" y="143.004523" style="stroke: #000000; stroke-width: 0.5"/>
      </g>
     </g>
     <g id="text_4">
      <!-- 30 -->
      <g transform="translate(200.168125 152.691148) scale(0.088 -0.088)">
       <defs>
        <path id="DejaVuSerif-33" d="M 622 4469 
Q 988 4606 1323 4678 
Q 1659 4750 1953 4750 
Q 2638 4750 3022 4454 
Q 3406 4159 3406 3634 
Q 3406 3213 3140 2930 
Q 2875 2647 2388 2547 
Q 2963 2466 3280 2130 
Q 3597 1794 3597 1259 
Q 3597 606 3158 257 
Q 2719 -91 1894 -91 
Q 1528 -91 1179 -12 
Q 831 66 488 225 
L 488 1131 
L 838 1131 
Q 869 681 1141 450 
Q 1413 219 1906 219 
Q 2384 219 2661 495 
Q 2938 772 2938 1253 
Q 2938 1803 2653 2086 
Q 2369 2369 1819 2369 
L 1522 2369 
L 1522 2688 
L 1678 2688 
Q 2225 2688 2498 2914 
Q 2772 3141 2772 3597 
Q 2772 4006 2547 4223 
Q 2322 4441 1900 4441 
Q 1478 4441 1245 4241 
Q 1013 4041 972 3647 
L 622 3647 
L 622 4469 
z
" transform="scale(0.015625)"/>
       </defs>
       <use xlink:href="#DejaVuSerif-33"/>
       <use xlink:href="#DejaVuSerif-30" x="63.623047"/>
      </g>
     </g>
    </g>
    <g id="xtick_5">
     <g id="line2d_5">
      <g>
       <use xlink:href="#mf5374b26c9" x="259.335125" y="143.004523" style="stroke: #000000; stroke-width: 0.5"/>
      </g>
     </g>
     <g id="text_5">
      <!-- 40 -->
      <g transform="translate(253.736125 152.691148) scale(0.088 -0.088)">
       <defs>
        <path id="DejaVuSerif-34" d="M 2234 1581 
L 2234 4063 
L 641 1581 
L 2234 1581 
z
M 3609 0 
L 1484 0 
L 1484 331 
L 2234 331 
L 2234 1247 
L 197 1247 
L 197 1588 
L 2241 4750 
L 2859 4750 
L 2859 1581 
L 3750 1581 
L 3750 1247 
L 2859 1247 
L 2859 331 
L 3609 331 
L 3609 0 
z
" transform="scale(0.015625)"/>
       </defs>
       <use xlink:href="#DejaVuSerif-34"/>
       <use xlink:href="#DejaVuSerif-30" x="63.623047"/>
      </g>
     </g>
    </g>
    <g id="xtick_6">
     <g id="line2d_6">
      <g>
       <use xlink:href="#mf5374b26c9" x="312.903125" y="143.004523" style="stroke: #000000; stroke-width: 0.5"/>
      </g>
     </g>
     <g id="text_6">
      <!-- 50 -->
      <g transform="translate(307.304125 152.691148) scale(0.088 -0.088)">
       <defs>
        <path id="DejaVuSerif-35" d="M 3219 4666 
L 3219 4153 
L 1081 4153 
L 1081 2816 
Q 1244 2928 1461 2984 
Q 1678 3041 1947 3041 
Q 2703 3041 3140 2622 
Q 3578 2203 3578 1478 
Q 3578 738 3136 323 
Q 2694 -91 1894 -91 
Q 1572 -91 1234 -12 
Q 897 66 544 225 
L 544 1131 
L 897 1131 
Q 925 688 1179 453 
Q 1434 219 1894 219 
Q 2388 219 2653 544 
Q 2919 869 2919 1478 
Q 2919 2084 2655 2407 
Q 2391 2731 1894 2731 
Q 1613 2731 1398 2631 
Q 1184 2531 1019 2322 
L 750 2322 
L 750 4666 
L 3219 4666 
z
" transform="scale(0.015625)"/>
       </defs>
       <use xlink:href="#DejaVuSerif-35"/>
       <use xlink:href="#DejaVuSerif-30" x="63.623047"/>
      </g>
     </g>
    </g>
    <g id="text_7">
     <!-- $t$ -->
     <g transform="translate(177.063125 166.815773) scale(0.096 -0.096)">
      <defs>
       <path id="DejaVuSans-Oblique-74" d="M 2706 3500 
L 2619 3053 
L 1472 3053 
L 1100 1153 
Q 1081 1047 1072 975 
Q 1063 903 1063 863 
Q 1063 663 1183 572 
Q 1303 481 1569 481 
L 2150 481 
L 2053 0 
L 1503 0 
Q 991 0 739 200 
Q 488 400 488 806 
Q 488 878 497 964 
Q 506 1050 525 1153 
L 897 3053 
L 409 3053 
L 500 3500 
L 978 3500 
L 1172 4494 
L 1747 4494 
L 1556 3500 
L 2706 3500 
z
" transform="scale(0.015625)"/>
      </defs>
      <use xlink:href="#DejaVuSans-Oblique-74" transform="translate(0 0.78125)"/>
     </g>
    </g>
   </g>
   <g id="matplotlib.axis_2">
    <g id="ytick_1">
     <g id="line2d_7">
      <defs>
       <path id="m9a49c77680" d="M 0 0 
L 3 0 
" style="stroke: #000000; stroke-width: 0.5"/>
      </defs>
      <g>
       <use xlink:href="#m9a49c77680" x="45.063125" y="129.152595" style="stroke: #000000; stroke-width: 0.5"/>
      </g>
     </g>
     <g id="text_8">
      <!-- −20 -->
      <g transform="translate(21.491 132.495907) scale(0.088 -0.088)">
       <defs>
        <path id="DejaVuSerif-2212" d="M 678 2259 
L 4684 2259 
L 4684 1753 
L 678 1753 
L 678 2259 
z
" transform="scale(0.015625)"/>
       </defs>
       <use xlink:href="#DejaVuSerif-2212"/>
       <use xlink:href="#DejaVuSerif-32" x="83.789062"/>
       <use xlink:href="#DejaVuSerif-30" x="147.412109"/>
      </g>
     </g>
    </g>
    <g id="ytick_2">
     <g id="line2d_8">
      <g>
       <use xlink:href="#m9a49c77680" x="45.063125" y="105.430738" style="stroke: #000000; stroke-width: 0.5"/>
      </g>
     </g>
     <g id="text_9">
      <!-- −10 -->
      <g transform="translate(21.491 108.774051) scale(0.088 -0.088)">
       <use xlink:href="#DejaVuSerif-2212"/>
       <use xlink:href="#DejaVuSerif-31" x="83.789062"/>
       <use xlink:href="#DejaVuSerif-30" x="147.412109"/>
      </g>
     </g>
    </g>
    <g id="ytick_3">
     <g id="line2d_9">
      <g>
       <use xlink:href="#m9a49c77680" x="45.063125" y="81.708882" style="stroke: #000000; stroke-width: 0.5"/>
      </g>
     </g>
     <g id="text_10">
      <!-- 0 -->
      <g transform="translate(34.464125 85.052194) scale(0.088 -0.088)">
       <use xlink:href="#DejaVuSerif-30"/>
      </g>
     </g>
    </g>
    <g id="ytick_4">
     <g id="line2d_10">
      <g>
       <use xlink:href="#m9a49c77680" x="45.063125" y="57.987025" style="stroke: #000000; stroke-width: 0.5"/>
      </g>
     </g>
     <g id="text_11">
      <!-- 10 -->
      <g transform="translate(28.865125 61.330338) scale(0.088 -0.088)">
       <use xlink:href="#DejaVuSerif-31"/>
       <use xlink:href="#DejaVuSerif-30" x="63.623047"/>
      </g>
     </g>
    </g>
    <g id="ytick_5">
     <g id="line2d_11">
      <g>
       <use xlink:href="#m9a49c77680" x="45.063125" y="34.265169" style="stroke: #000000; stroke-width: 0.5"/>
      </g>
     </g>
     <g id="text_12">
      <!-- 20 -->
      <g transform="translate(28.865125 37.608481) scale(0.088 -0.088)">
       <use xlink:href="#DejaVuSerif-32"/>
       <use xlink:href="#DejaVuSerif-30" x="63.623047"/>
      </g>
     </g>
    </g>
    <g id="ytick_6">
     <g id="line2d_12">
      <g>
       <use xlink:href="#m9a49c77680" x="45.063125" y="10.543313" style="stroke: #000000; stroke-width: 0.5"/>
      </g>
     </g>
     <g id="text_13">
      <!-- 30 -->
      <g transform="translate(28.865125 13.886625) scale(0.088 -0.088)">
       <use xlink:href="#DejaVuSerif-33"/>
       <use xlink:href="#DejaVuSerif-30" x="63.623047"/>
      </g>
     </g>
    </g>
    <g id="text_14">
     <!-- $Y$ -->
     <g transform="translate(14.4945 79.452523) rotate(-90) scale(0.096 -0.096)">
      <defs>
       <path id="DejaVuSans-Oblique-59" d="M 403 4666 
L 1081 4666 
L 1953 2747 
L 3616 4666 
L 4325 4666 
L 2209 2222 
L 1778 0 
L 1147 0 
L 1575 2222 
L 403 4666 
z
" transform="scale(0.015625)"/>
      </defs>
      <use xlink:href="#DejaVuSans-Oblique-59" transform="translate(0 0.09375)"/>
     </g>
    </g>
   </g>
   <g id="patch_3">
    <path d="M 45.063125 143.004523 
L 45.063125 9.948523 
" style="fill: none; stroke: #000000; stroke-width: 0.625; stroke-linejoin: miter; stroke-linecap: square"/>
   </g>
   <g id="patch_4">
    <path d="M 312.903125 143.004523 
L 312.903125 9.948523 
" style="fill: none; stroke: #000000; stroke-width: 0.625; stroke-linejoin: miter; stroke-linecap: square"/>
   </g>
   <g id="patch_5">
    <path d="M 45.063125 143.004523 
L 312.903125 143.004523 
" style="fill: none; stroke: #000000; stroke-width: 0.625; stroke-linejoin: miter; stroke-linecap: square"/>
   </g>
   <g id="patch_6">
    <path d="M 45.063125 9.948523 
L 312.903125 9.948523 
" style="fill: none; stroke: #000000; stroke-width: 0.625; stroke-linejoin: miter; stroke-linecap: square"/>
   </g>
   <g id="legend_1">
    <g id="patch_7">
     <path d="M 317.303125 42.822023 
L 428.271125 42.822023 
L 428.271125 14.348523 
L 317.303125 14.348523 
z
" style="fill: #ffffff; stroke: #000000; stroke-width: 0.5; stroke-linejoin: miter"/>
    </g>
    <g id="line2d_13">
     <path d="M 320.823125 21.475148 
L 329.623125 21.475148 
L 338.423125 21.475148 
" style="fill: none; stroke: #0173b2; stroke-width: 1.2; stroke-linecap: square"/>
    </g>
    <g id="text_15">
     <!-- $Y(t=0)= 0.10000$ -->
     <g transform="translate(345.463125 24.555148) scale(0.088 -0.088)">
      <defs>
       <path id="DejaVuSans-28" d="M 1984 4856 
Q 1566 4138 1362 3434 
Q 1159 2731 1159 2009 
Q 1159 1288 1364 580 
Q 1569 -128 1984 -844 
L 1484 -844 
Q 1016 -109 783 600 
Q 550 1309 550 2009 
Q 550 2706 781 3412 
Q 1013 4119 1484 4856 
L 1984 4856 
z
" transform="scale(0.015625)"/>
       <path id="DejaVuSans-3d" d="M 678 2906 
L 4684 2906 
L 4684 2381 
L 678 2381 
L 678 2906 
z
M 678 1631 
L 4684 1631 
L 4684 1100 
L 678 1100 
L 678 1631 
z
" transform="scale(0.015625)"/>
       <path id="DejaVuSans-30" d="M 2034 4250 
Q 1547 4250 1301 3770 
Q 1056 3291 1056 2328 
Q 1056 1369 1301 889 
Q 1547 409 2034 409 
Q 2525 409 2770 889 
Q 3016 1369 3016 2328 
Q 3016 3291 2770 3770 
Q 2525 4250 2034 4250 
z
M 2034 4750 
Q 2819 4750 3233 4129 
Q 3647 3509 3647 2328 
Q 3647 1150 3233 529 
Q 2819 -91 2034 -91 
Q 1250 -91 836 529 
Q 422 1150 422 2328 
Q 422 3509 836 4129 
Q 1250 4750 2034 4750 
z
" transform="scale(0.015625)"/>
       <path id="DejaVuSans-29" d="M 513 4856 
L 1013 4856 
Q 1481 4119 1714 3412 
Q 1947 2706 1947 2009 
Q 1947 1309 1714 600 
Q 1481 -109 1013 -844 
L 513 -844 
Q 928 -128 1133 580 
Q 1338 1288 1338 2009 
Q 1338 2731 1133 3434 
Q 928 4138 513 4856 
z
" transform="scale(0.015625)"/>
       <path id="DejaVuSans-2e" d="M 684 794 
L 1344 794 
L 1344 0 
L 684 0 
L 684 794 
z
" transform="scale(0.015625)"/>
       <path id="DejaVuSans-31" d="M 794 531 
L 1825 531 
L 1825 4091 
L 703 3866 
L 703 4441 
L 1819 4666 
L 2450 4666 
L 2450 531 
L 3481 531 
L 3481 0 
L 794 0 
L 794 531 
z
" transform="scale(0.015625)"/>
      </defs>
      <use xlink:href="#DejaVuSans-Oblique-59" transform="translate(0 0.125)"/>
      <use xlink:href="#DejaVuSans-28" transform="translate(61.083984 0.125)"/>
      <use xlink:href="#DejaVuSans-Oblique-74" transform="translate(100.097656 0.125)"/>
      <use xlink:href="#DejaVuSans-3d" transform="translate(158.789062 0.125)"/>
      <use xlink:href="#DejaVuSans-30" transform="translate(262.060547 0.125)"/>
      <use xlink:href="#DejaVuSans-29" transform="translate(325.683594 0.125)"/>
      <use xlink:href="#DejaVuSans-3d" transform="translate(384.179688 0.125)"/>
      <use xlink:href="#DejaVuSans-30" transform="translate(487.451172 0.125)"/>
      <use xlink:href="#DejaVuSans-2e" transform="translate(551.074219 0.125)"/>
      <use xlink:href="#DejaVuSans-31" transform="translate(582.861328 0.125)"/>
      <use xlink:href="#DejaVuSans-30" transform="translate(646.484375 0.125)"/>
      <use xlink:href="#DejaVuSans-30" transform="translate(710.107422 0.125)"/>
      <use xlink:href="#DejaVuSans-30" transform="translate(773.730469 0.125)"/>
      <use xlink:href="#DejaVuSans-30" transform="translate(837.353516 0.125)"/>
     </g>
    </g>
    <g id="line2d_14">
     <path d="M 320.823125 34.391898 
L 329.623125 34.391898 
L 338.423125 34.391898 
" style="fill: none; stroke: #de8f05; stroke-opacity: 0.8; stroke-width: 1.2; stroke-linecap: square"/>
    </g>
    <g id="text_16">
     <!-- $Y(t=0)= 0.10001$ -->
     <g transform="translate(345.463125 37.471898) scale(0.088 -0.088)">
      <use xlink:href="#DejaVuSans-Oblique-59" transform="translate(0 0.125)"/>
      <use xlink:href="#DejaVuSans-28" transform="translate(61.083984 0.125)"/>
      <use xlink:href="#DejaVuSans-Oblique-74" transform="translate(100.097656 0.125)"/>
      <use xlink:href="#DejaVuSans-3d" transform="translate(158.789062 0.125)"/>
      <use xlink:href="#DejaVuSans-30" transform="translate(262.060547 0.125)"/>
      <use xlink:href="#DejaVuSans-29" transform="translate(325.683594 0.125)"/>
      <use xlink:href="#DejaVuSans-3d" transform="translate(384.179688 0.125)"/>
      <use xlink:href="#DejaVuSans-30" transform="translate(487.451172 0.125)"/>
      <use xlink:href="#DejaVuSans-2e" transform="translate(551.074219 0.125)"/>
      <use xlink:href="#DejaVuSans-31" transform="translate(582.861328 0.125)"/>
      <use xlink:href="#DejaVuSans-30" transform="translate(646.484375 0.125)"/>
      <use xlink:href="#DejaVuSans-30" transform="translate(710.107422 0.125)"/>
      <use xlink:href="#DejaVuSans-30" transform="translate(773.730469 0.125)"/>
      <use xlink:href="#DejaVuSans-31" transform="translate(837.353516 0.125)"/>
     </g>
    </g>
   </g>
   <g id="line2d_15">
    <path d="M 45.063125 81.471663 
L 45.411317 81.366842 
L 45.759509 81.009747 
L 46.054133 80.37689 
L 46.348757 79.159686 
L 46.643381 76.829645 
L 46.938005 72.38905 
L 47.232629 64.046846 
L 47.554037 47.435232 
L 48.062933 15.996656 
L 48.116501 16.64736 
L 48.223637 23.311999 
L 48.464693 59.33697 
L 48.786101 97.532596 
L 49.000373 103.624667 
L 49.107509 103.960576 
L 49.134293 103.916233 
L 49.294997 103.183369 
L 49.669973 101.616698 
L 49.830677 101.534709 
L 49.991381 101.785942 
L 50.286005 102.833094 
L 50.902037 105.060297 
L 51.062741 105.130292 
L 51.196661 104.935503 
L 51.410933 104.155424 
L 51.866261 101.332549 
L 52.348373 98.914626 
L 52.589429 98.536175 
L 52.750133 98.623681 
L 52.964405 99.123934 
L 53.312597 100.676897 
L 54.250037 105.233156 
L 54.410741 105.271041 
L 54.571445 104.936799 
L 54.839285 103.63823 
L 55.749941 98.494173 
L 55.964213 98.32317 
L 56.124917 98.521696 
L 56.365973 99.279281 
L 56.767733 101.435251 
L 57.490901 105.30407 
L 57.678389 105.528219 
L 57.812309 105.360768 
L 58.026581 104.529904 
L 58.428341 101.738604 
L 58.937237 98.639035 
L 59.205077 98.093565 
L 59.338997 98.139565 
L 59.526485 98.530417 
L 59.821109 99.790965 
L 60.463925 103.910122 
L 60.838901 105.603954 
L 61.026389 105.761728 
L 61.160309 105.51785 
L 61.374581 104.531454 
L 61.856693 100.827596 
L 62.285237 98.305342 
L 62.526293 97.844751 
L 62.660213 97.90248 
L 62.847701 98.325031 
L 63.142325 99.663853 
L 63.785141 104.035693 
L 64.186901 105.913979 
L 64.347605 106.026094 
L 64.481525 105.765548 
L 64.695797 104.70433 
L 65.177909 100.727127 
L 65.606453 98.054183 
L 65.847509 97.578918 
L 65.981429 97.645884 
L 66.168917 98.097517 
L 66.463541 99.512659 
L 67.079573 103.959941 
L 67.481333 106.112974 
L 67.642037 106.324499 
L 67.668821 106.312559 
L 67.802741 106.041042 
L 68.017013 104.907945 
L 68.499125 100.638375 
L 68.927669 97.792665 
L 69.168725 97.294344 
L 69.302645 97.367009 
L 69.490133 97.843818 
L 69.784757 99.33162 
L 70.374005 103.835624 
L 70.802549 106.382421 
L 70.990037 106.623236 
L 71.097173 106.434611 
L 71.284661 105.530051 
L 71.632853 102.442333 
L 72.195317 97.762018 
L 72.463157 97.00511 
L 72.597077 97.028306 
L 72.757781 97.373837 
L 73.025621 98.60851 
L 73.480949 102.03686 
L 74.123765 106.65802 
L 74.311253 106.959688 
L 74.418389 106.781352 
L 74.605877 105.84318 
L 74.954069 102.544894 
L 75.516533 97.502992 
L 75.784373 96.68071 
L 75.918293 96.695496 
L 76.078997 97.047466 
L 76.346837 98.325498 
L 76.775381 101.67552 
L 77.471765 107.036495 
L 77.632469 107.322198 
L 77.659253 107.310542 
L 77.766389 107.08436 
L 77.953877 106.01182 
L 78.328853 102.074529 
L 78.837749 97.245431 
L 79.105589 96.33483 
L 79.239509 96.332262 
L 79.400213 96.681635 
L 79.668053 97.991004 
L 80.096597 101.482275 
L 80.819765 107.429389 
L 80.980469 107.709782 
L 81.007253 107.691848 
L 81.114389 107.424423 
L 81.301877 106.222273 
L 81.676853 101.923795 
L 82.185749 96.832928 
L 82.453589 95.937079 
L 82.587509 95.964809 
L 82.748213 96.362649 
L 83.016053 97.773432 
L 83.444597 101.479816 
L 84.167765 107.835531 
L 84.328469 108.132503 
L 84.355253 108.111633 
L 84.462389 107.814676 
L 84.649877 106.494428 
L 85.051637 101.454 
L 85.533749 96.415149 
L 85.801589 95.512271 
L 85.935509 95.561128 
L 86.096213 95.997582 
L 86.364053 97.495997 
L 86.792597 101.40797 
L 87.542549 108.359345 
L 87.676469 108.596455 
L 87.703253 108.577849 
L 87.810389 108.270368 
L 87.997877 106.853833 
L 88.372853 101.78856 
L 88.854965 96.175459 
L 89.122805 95.083324 
L 89.256725 95.07575 
L 89.417429 95.469878 
L 89.685269 96.944598 
L 90.087029 100.646417 
L 90.944117 108.984962 
L 91.051253 109.095945 
L 91.078037 109.062243 
L 91.211957 108.508721 
L 91.426229 106.365839 
L 92.390453 94.779563 
L 92.551157 94.540298 
L 92.577941 94.550299 
L 92.711861 94.792069 
L 92.926133 95.764907 
L 93.274325 98.594748 
L 93.917141 106.250117 
L 94.292117 109.457656 
L 94.399253 109.663879 
L 94.426037 109.64941 
L 94.533173 109.311244 
L 94.720661 107.653228 
L 95.095637 101.64826 
L 95.577749 95.198369 
L 95.845589 94.029364 
L 95.952725 94.013433 
L 95.979509 94.04457 
L 96.140213 94.495822 
L 96.408053 96.112357 
L 96.809813 100.156917 
L 97.747253 110.262544 
L 97.800821 110.274185 
L 97.827605 110.234705 
L 97.934741 109.764674 
L 98.149013 107.385443 
L 99.140021 93.595602 
L 99.300725 93.391825 
L 99.434645 93.62847 
L 99.648917 94.63677 
L 99.997109 97.615542 
L 100.506005 104.245302 
L 101.041685 110.595151 
L 101.175605 110.976257 
L 101.202389 110.95718 
L 101.309525 110.537039 
L 101.497013 108.491546 
L 101.898773 100.671214 
L 102.327317 94.121344 
L 102.595157 92.761891 
L 102.702293 92.729551 
L 102.729077 92.759928 
L 102.889781 93.225971 
L 103.157621 94.914257 
L 103.559381 99.198796 
L 104.577173 111.755618 
L 104.603957 111.747236 
L 104.684309 111.49406 
L 104.845013 109.942812 
L 105.139637 104.228824 
L 105.702101 93.699047 
L 105.969941 92.054344 
L 106.077077 91.957322 
L 106.103861 91.974566 
L 106.237781 92.279026 
L 106.478837 93.597544 
L 106.827029 96.927688 
L 107.309141 103.94673 
L 107.925173 112.418764 
L 108.032309 112.639498 
L 108.059093 112.592933 
L 108.166229 111.971494 
L 108.353717 109.247431 
L 109.344725 91.330082 
L 109.505429 91.101542 
L 109.612565 91.285605 
L 109.826837 92.281528 
L 110.148245 95.028314 
L 110.576789 100.820548 
L 111.460661 113.671779 
L 111.514229 113.623767 
L 111.621365 112.939146 
L 111.808853 109.877729 
L 112.773077 90.413708 
L 112.933781 90.10431 
L 112.960565 90.118584 
L 113.094485 90.420827 
L 113.335541 91.747363 
L 113.683733 95.083235 
L 114.112277 101.494187 
L 114.942581 114.872162 
L 114.996149 114.861037 
L 115.103285 114.167711 
L 115.290773 110.796844 
L 116.228213 89.371786 
L 116.415701 88.941687 
L 116.522837 89.108303 
L 116.737109 90.077459 
L 117.058517 92.728201 
L 117.460277 98.013446 
L 117.969173 108.169336 
L 118.424501 116.083341 
L 118.504853 116.369066 
L 118.558421 116.254692 
L 118.665557 115.22958 
L 118.879829 110.12368 
L 119.629781 88.974902 
L 119.870837 87.574393 
L 119.951189 87.544203 
L 119.977973 87.570406 
L 120.111893 87.924593 
L 120.379733 89.464072 
L 120.754709 93.076135 
L 121.156469 99.231368 
L 121.692149 111.583468 
L 122.067125 118.101291 
L 122.120693 118.234179 
L 122.147477 118.190856 
L 122.254613 117.229018 
L 122.442101 112.52221 
L 123.272405 86.745038 
L 123.486677 85.783132 
L 123.593813 85.850795 
L 123.781301 86.500912 
L 124.102709 88.585219 
L 124.504469 92.707262 
L 124.906229 99.438037 
L 125.388341 111.97775 
L 125.790101 120.576739 
L 125.843669 120.754283 
L 125.897237 120.56635 
L 126.004373 118.998154 
L 126.218645 111.351293 
L 126.861461 85.850226 
L 127.102517 83.586446 
L 127.236437 83.422667 
L 127.263221 83.448191 
L 127.423925 83.871384 
L 127.772117 85.649883 
L 128.227445 89.166881 
L 128.602421 93.962042 
L 128.977397 101.989909 
L 129.807701 124.629644 
L 129.888053 123.876059 
L 130.048757 118.72026 
L 130.932629 80.414575 
L 131.120117 79.819767 
L 131.227253 79.942208 
L 131.521877 80.84202 
L 132.164693 82.640992 
L 132.700373 84.219037 
L 133.048565 86.086243 
L 133.369973 89.159344 
L 133.691381 94.618367 
L 134.012789 104.102206 
L 134.468117 125.732269 
L 134.735957 134.547644 
L 134.762741 134.570831 
L 134.843093 133.238888 
L 135.003797 123.858369 
L 135.700181 72.506188 
L 135.914453 70.866788 
L 136.021589 70.910872 
L 136.396565 71.385294 
L 136.530485 71.126328 
L 136.744757 70.007403 
L 137.039381 66.935358 
L 137.414357 60.285964 
L 138.191093 45.139896 
L 138.244661 45.260933 
L 138.351797 46.457016 
L 138.566069 52.520182 
L 139.289237 76.054543 
L 139.530293 77.625279 
L 139.610645 77.672976 
L 139.637429 77.651458 
L 139.771349 77.323306 
L 140.039189 75.908935 
L 140.440949 72.437607 
L 140.842709 66.793424 
L 141.271253 57.058304 
L 141.887285 42.700325 
L 141.914069 42.620047 
L 141.967637 42.734226 
L 142.074773 44.149773 
L 142.262261 50.362805 
L 142.985429 78.27733 
L 143.226485 79.993152 
L 143.306837 80.047452 
L 143.360405 79.99276 
L 143.547893 79.420939 
L 143.949653 77.203443 
L 144.378197 73.614147 
L 144.753173 68.374049 
L 145.128149 59.639014 
L 145.878101 38.690197 
L 145.931669 38.903612 
L 146.038805 40.943133 
L 146.253077 51.103403 
L 146.815541 80.096062 
L 147.056597 83.324879 
L 147.217301 83.675557 
L 147.351221 83.46882 
L 148.851125 79.278681 
L 149.199317 77.449236 
L 149.520725 74.416729 
L 149.842133 69.002857 
L 150.163541 59.543418 
L 150.592085 39.073356 
L 150.886709 28.440336 
L 150.913493 28.37042 
L 150.940277 28.52837 
L 151.047413 31.667345 
L 151.234901 46.473351 
L 151.743797 88.597739 
L 151.984853 92.72687 
L 152.118773 92.975272 
L 152.145557 92.952378 
L 152.547317 92.440034 
L 152.600885 92.509406 
L 152.761589 93.035685 
L 153.002645 94.787744 
L 153.324053 99.032253 
L 153.779381 108.596957 
L 154.261493 117.547211 
L 154.315061 117.720068 
L 154.368629 117.614859 
L 154.475765 116.50041 
L 154.690037 110.778095 
L 155.413205 87.963735 
L 155.654261 86.333499 
L 155.761397 86.283301 
L 155.788181 86.316238 
L 155.948885 86.80358 
L 156.243509 88.592348 
L 156.645269 92.538771 
L 157.047029 98.946311 
L 157.529141 110.888193 
L 157.957685 119.850643 
L 158.011253 120.026074 
L 158.064821 119.857676 
L 158.171957 118.400521 
L 158.386229 111.228847 
L 159.029045 86.63575 
L 159.270101 84.298747 
L 159.404021 84.09686 
L 159.430805 84.116784 
L 159.564725 84.428334 
L 159.859349 85.873098 
L 160.287893 89.140969 
L 160.662869 93.721681 
L 161.037845 101.249282 
L 161.573525 117.656423 
L 161.868149 123.411722 
L 161.894933 123.433749 
L 161.921717 123.34196 
L 162.028853 121.755457 
L 162.216341 114.368074 
L 162.885941 83.343438 
L 163.126997 81.063766 
L 163.234133 80.927876 
L 163.260917 80.943237 
L 163.421621 81.292064 
L 163.957301 83.397107 
L 164.492981 86.053791 
L 164.841173 88.997949 
L 165.189365 94.137933 
L 165.537557 103.084419 
L 166.019669 122.756376 
L 166.287509 130.201664 
L 166.314293 130.264395 
L 166.341077 130.151937 
L 166.448213 127.789466 
L 166.635701 116.442157 
L 167.198165 78.495402 
L 167.439221 74.985045 
L 167.573141 74.713833 
L 167.599925 74.726325 
L 167.787413 75.053743 
L 168.055253 75.382984 
L 168.189173 75.256518 
L 168.376661 74.660477 
L 168.644501 72.857376 
L 168.965909 68.897459 
L 169.314101 61.646466 
L 169.876565 43.838961 
L 170.144405 39.200078 
L 170.197973 39.45078 
L 170.305109 41.512296 
L 170.519381 51.463248 
L 171.081845 79.657138 
L 171.322901 82.84921 
L 171.483605 83.204197 
L 171.617525 82.996412 
L 172.046069 81.542693 
L 173.010293 77.889844 
L 173.358485 75.132446 
L 173.679893 70.634221 
L 174.001301 62.869585 
L 174.376277 47.892597 
L 174.831605 30.724848 
L 174.858389 30.700039 
L 174.938741 31.892578 
L 175.099445 40.350221 
L 175.822613 89.411926 
L 176.036885 90.897731 
L 176.144021 90.856022 
L 176.545781 90.378211 
L 176.679701 90.632825 
L 176.893973 91.688257 
L 177.188597 94.589189 
L 177.536789 100.533977 
L 178.045685 113.892518 
L 178.393877 120.543527 
L 178.447445 120.619578 
L 178.474229 120.520523 
L 178.581365 119.142028 
L 178.768853 113.044961 
L 179.492021 85.34198 
L 179.733077 83.595294 
L 179.813429 83.533496 
L 179.866997 83.584431 
L 180.027701 84.042653 
L 180.375893 85.872623 
L 180.804437 89.239097 
L 181.179413 94.046757 
L 181.554389 102.066094 
L 182.357909 124.416463 
L 182.438261 124.02289 
L 182.572181 120.717523 
L 182.840021 105.994702 
L 183.268565 84.527578 
L 183.536405 80.431354 
L 183.697109 80.015832 
L 183.723893 80.025429 
L 183.857813 80.266583 
L 184.875605 83.421318 
L 185.277365 85.007053 
L 185.625557 87.427222 
L 185.946965 91.403811 
L 186.268373 98.366632 
L 186.616565 111.14681 
L 187.179029 133.581323 
L 187.205813 133.53087 
L 187.286165 132.028006 
L 187.446869 122.66862 
L 188.116469 73.883343 
L 188.330741 71.809066 
L 188.411093 71.741674 
L 188.464661 71.791527 
L 188.839637 72.279553 
L 188.866421 72.259463 
L 189.000341 71.979424 
L 189.214613 70.851002 
L 189.509237 67.797388 
L 189.884213 61.091265 
L 190.714517 43.907416 
L 190.741301 43.990046 
L 190.848437 45.211665 
L 191.035925 50.710532 
L 191.812661 77.552888 
L 192.026933 78.801087 
L 192.107285 78.836136 
L 192.134069 78.81115 
L 192.294773 78.376295 
L 192.616181 76.611104 
L 193.044725 72.903597 
L 193.419701 67.608925 
L 193.821461 58.358136 
L 194.517845 40.79125 
L 194.544629 40.80288 
L 194.624981 41.506306 
L 194.785685 46.056006 
L 195.214229 68.92929 
L 195.535637 79.368898 
L 195.776693 81.609489 
L 195.883829 81.747608 
L 195.910613 81.732507 
L 196.044533 81.458476 
L 196.392725 80.039776 
L 196.981973 76.774114 
L 197.356949 73.263944 
L 197.705141 67.629024 
L 198.080117 57.257392 
L 198.749717 35.152155 
L 198.803285 35.319373 
L 198.910421 37.683907 
L 199.124693 50.143022 
L 199.660373 83.046048 
L 199.901429 86.582064 
L 200.062133 86.911106 
L 200.196053 86.712502 
L 200.624597 86.006389 
L 200.785301 86.124067 
L 200.972789 86.614952 
L 201.240629 88.053574 
L 201.562037 91.233517 
L 201.910229 97.338582 
L 202.285205 108.46412 
L 202.901237 127.825623 
L 202.954805 127.526853 
L 203.061941 124.934154 
L 203.276213 112.370801 
L 203.785109 81.293095 
L 204.026165 77.370424 
L 204.186869 76.917256 
L 204.213653 76.924677 
L 204.374357 77.197783 
L 204.776117 77.908293 
L 204.936821 77.849401 
L 205.124309 77.460245 
L 205.392149 76.244546 
L 205.686773 73.7916 
L 206.008181 69.164852 
L 206.356373 60.607193 
L 206.865269 40.942642 
L 207.133109 34.588016 
L 207.186677 34.82765 
L 207.293813 37.421232 
L 207.508085 50.528476 
L 208.016981 83.044661 
L 208.258037 86.992025 
L 208.418741 87.414617 
L 208.552661 87.244536 
L 208.981205 86.593831 
L 209.115125 86.71485 
L 209.302613 87.240953 
L 209.570453 88.797822 
L 209.891861 92.235043 
L 210.240053 98.751672 
L 210.641813 111.22212 
L 211.150709 126.64016 
L 211.177493 126.71706 
L 211.204277 126.654409 
L 211.284629 125.563206 
L 211.445333 119.178991 
L 212.248853 78.93545 
L 212.463125 77.927498 
L 212.570261 78.010861 
L 213.320213 79.223428 
L 213.507701 78.998176 
L 213.748757 78.317132 
L 214.043381 76.762495 
L 214.364789 73.734665 
L 214.686197 68.413116 
L 215.034389 58.431054 
L 215.757557 31.569593 
L 215.837909 32.609116 
L 215.971829 38.644271 
L 216.828917 89.657692 
L 216.989621 90.128006 
L 217.123541 89.961001 
L 217.444949 89.549525 
L 217.578869 89.724608 
L 217.766357 90.45187 
L 218.034197 92.580592 
L 218.355605 97.120378 
L 218.757365 106.47379 
L 219.400181 121.824742 
L 219.453749 121.724835 
L 219.560885 120.239704 
L 219.748373 113.57561 
L 220.444757 84.507142 
L 220.685813 82.509798 
L 220.792949 82.418558 
L 220.819733 82.442623 
L 220.980437 82.846043 
L 221.355413 84.599067 
L 221.837525 87.807716 
L 222.212501 91.959252 
L 222.560693 98.495279 
L 222.962453 110.848894 
L 223.471349 126.477486 
L 223.498133 126.599113 
L 223.551701 126.42701 
L 223.658837 124.258118 
L 223.873109 112.972119 
L 224.408789 82.134179 
L 224.649845 78.448773 
L 224.810549 78.021086 
L 224.837333 78.030216 
L 224.998037 78.319987 
L 225.506933 79.352343 
L 225.694421 79.348473 
L 225.881909 79.100628 
L 226.149749 78.297113 
L 226.444373 76.651335 
L 226.765781 73.4715 
L 227.087189 67.88374 
L 227.435381 57.423981 
L 228.131765 31.211961 
L 228.185333 31.707457 
L 228.319253 36.774487 
L 228.587093 59.584045 
L 228.962069 85.475107 
L 229.203125 90.006432 
L 229.363829 90.447527 
L 229.497749 90.270621 
L 229.792373 89.877864 
L 229.926293 90.027563 
L 230.113781 90.725746 
L 230.381621 92.828775 
L 230.703029 97.343056 
L 231.104789 106.590761 
L 231.720821 121.263493 
L 231.747605 121.335905 
L 231.801173 121.193007 
L 231.908309 119.665023 
L 232.122581 111.844587 
L 232.765397 85.367439 
L 233.006453 83.050564 
L 233.140373 82.882165 
L 233.167157 82.906887 
L 233.327861 83.319463 
L 233.702837 85.162351 
L 234.158165 88.446079 
L 234.533141 92.912322 
L 234.908117 100.529697 
L 235.363445 115.401686 
L 235.738421 125.523479 
L 235.791989 125.652308 
L 235.818773 125.519038 
L 235.925909 123.547935 
L 236.113397 114.73643 
L 236.729429 81.921646 
L 236.970485 79.102357 
L 237.104405 78.882811 
L 237.131189 78.899664 
L 237.291893 79.225127 
L 237.907925 80.66555 
L 238.202549 80.816468 
L 238.470389 80.688328 
L 238.765013 80.268968 
L 239.086421 79.375938 
L 239.407829 77.733519 
L 239.729237 74.737614 
L 240.050645 69.27521 
L 240.372053 59.544973 
L 240.773813 39.45467 
L 241.095221 26.549713 
L 241.122005 26.492278 
L 241.148789 26.686502 
L 241.255925 30.234465 
L 241.470197 49.680777 
L 241.898741 88.73415 
L 242.139797 94.207735 
L 242.273717 94.653148 
L 242.300501 94.645248 
L 242.461205 94.341072 
L 242.702261 94.035175 
L 242.809397 94.184995 
L 242.996885 94.992162 
L 243.264725 97.40551 
L 243.639701 103.18985 
L 244.389653 115.526016 
L 244.416437 115.557309 
L 244.443221 115.531759 
L 244.550357 114.828908 
L 244.737845 111.282521 
L 245.675285 88.747619 
L 245.862773 88.325519 
L 245.969909 88.500021 
L 246.184181 89.47429 
L 246.532373 92.368232 
L 246.934133 97.747331 
L 247.416245 107.644825 
L 247.925141 116.993853 
L 247.978709 117.172579 
L 248.032277 117.08701 
L 248.139413 116.057204 
L 248.326901 111.547127 
L 249.157205 87.695688 
L 249.371477 86.778466 
L 249.478613 86.852256 
L 249.666101 87.524005 
L 249.987509 89.732988 
L 250.389269 94.192851 
L 250.791029 101.344259 
L 251.648117 119.299204 
L 251.701685 119.114357 
L 251.835605 117.110303 
L 252.076661 108.541805 
L 252.639125 87.796957 
L 252.906965 84.992451 
L 253.040885 84.775116 
L 253.067669 84.792597 
L 253.201589 85.099497 
L 253.469429 86.427416 
L 253.871189 89.578608 
L 254.272949 94.657506 
L 254.674709 103.102302 
L 255.451445 122.309865 
L 255.478229 122.263624 
L 255.558581 121.465275 
L 255.719285 116.807483 
L 256.629941 82.456228 
L 256.817429 81.972133 
L 256.924565 82.130637 
L 257.192405 83.121321 
L 257.781653 86.318501 
L 258.156629 89.55934 
L 258.504821 94.644382 
L 258.853013 103.177948 
L 259.629749 127.575928 
L 259.710101 126.813129 
L 259.844021 122.230767 
L 260.165429 99.760242 
L 260.513621 81.430335 
L 260.754677 77.582622 
L 260.915381 77.14195 
L 260.942165 77.15038 
L 261.102869 77.428634 
L 261.531413 78.191523 
L 261.692117 78.129728 
L 261.879605 77.753103 
L 262.147445 76.590382 
L 262.442069 74.249303 
L 262.763477 69.817934 
L 263.111669 61.537763 
L 263.540213 45.106344 
L 263.888405 34.139291 
L 263.915189 34.001461 
L 263.968757 34.220925 
L 264.075893 36.847724 
L 264.290165 50.329447 
L 264.799061 83.625579 
L 265.040117 87.552248 
L 265.200821 87.947383 
L 265.334741 87.769032 
L 265.709717 87.20015 
L 265.843637 87.305184 
L 266.031125 87.833845 
L 266.298965 89.453097 
L 266.620373 93.051221 
L 266.968565 99.802949 
L 267.397109 113.276227 
L 267.825653 125.454093 
L 267.879221 125.623123 
L 267.906005 125.512226 
L 268.013141 123.640888 
L 268.200629 114.99389 
L 268.843445 81.504221 
L 269.084501 79.058739 
L 269.191637 78.917587 
L 269.218421 78.931669 
L 269.379125 79.248486 
L 270.021941 80.744312 
L 270.316565 80.892947 
L 270.584405 80.77918 
L 270.879029 80.396489 
L 271.200437 79.578224 
L 271.521845 78.070432 
L 271.843253 75.31434 
L 272.164661 70.27032 
L 272.486069 61.201298 
L 272.861045 43.283727 
L 273.262805 26.152666 
L 273.289589 26.191887 
L 273.369941 27.939405 
L 273.530645 39.130302 
L 274.146677 92.218338 
L 274.360949 94.866011 
L 274.441301 94.958166 
L 274.494869 94.901884 
L 274.869845 94.332731 
L 274.896629 94.357045 
L 275.030549 94.685507 
L 275.244821 95.97079 
L 275.539445 99.280532 
L 275.994773 107.376689 
L 276.476885 114.940199 
L 276.557237 115.173975 
L 276.610805 115.06017 
L 276.744725 113.752867 
L 276.985781 108.021731 
L 277.655381 90.50394 
L 277.896437 88.806843 
L 278.003573 88.690671 
L 278.030357 88.708481 
L 278.164277 89.028812 
L 278.405333 90.361776 
L 278.780309 93.948545 
L 279.208853 100.536394 
L 280.119509 116.692271 
L 280.146293 116.636799 
L 280.253429 115.730642 
L 280.440917 111.548003 
L 281.298005 88.026691 
L 281.512277 87.22715 
L 281.619413 87.335699 
L 281.806901 88.055244 
L 282.128309 90.361404 
L 282.530069 95.022036 
L 282.958613 103.003212 
L 283.735349 118.660332 
L 283.788917 118.523907 
L 283.896053 117.259247 
L 284.110325 110.933322 
L 284.806709 87.275646 
L 285.047765 85.466295 
L 285.154901 85.380692 
L 285.181685 85.40646 
L 285.342389 85.852988 
L 285.637013 87.523618 
L 286.038773 91.133519 
L 286.413749 96.52993 
L 286.815509 105.705248 
L 287.485109 121.35811 
L 287.538677 121.235935 
L 287.645813 119.748495 
L 287.833301 113.239269 
L 288.529685 84.940595 
L 288.770741 82.948237 
L 288.877877 82.852372 
L 288.904661 82.875713 
L 289.065365 83.282273 
L 289.440341 85.114928 
L 289.895669 88.373506 
L 290.270645 92.79814 
L 290.618837 99.673121 
L 291.047381 113.210144 
L 291.475925 125.52736 
L 291.529493 125.719883 
L 291.556277 125.620397 
L 291.663413 123.788552 
L 291.850901 115.162985 
L 292.493717 81.448459 
L 292.734773 78.975887 
L 292.841909 78.830477 
L 292.868693 78.843821 
L 293.029397 79.157071 
L 293.645429 80.582948 
L 293.913269 80.713191 
L 294.154325 80.596697 
L 294.448949 80.165893 
L 294.770357 79.234015 
L 295.091765 77.519027 
L 295.413173 74.399582 
L 295.734581 68.736805 
L 296.055989 58.726686 
L 296.511317 35.647293 
L 296.779157 26.925795 
L 296.832725 27.440759 
L 296.939861 31.755191 
L 297.180917 55.065566 
L 297.582677 89.071446 
L 297.823733 93.92274 
L 297.957653 94.259514 
L 297.984437 94.241636 
L 298.386197 93.670384 
L 298.466549 93.784191 
L 298.627253 94.388384 
L 298.868309 96.289043 
L 299.216501 101.154225 
L 300.100373 116.0519 
L 300.153941 115.954661 
L 300.261077 114.994 
L 300.475349 110.112384 
L 301.252085 89.074486 
L 301.493141 87.865352 
L 301.600277 87.912958 
L 301.760981 88.433787 
L 302.055605 90.367321 
L 302.430581 94.383006 
L 302.859125 101.666061 
L 303.689429 117.8022 
L 303.716213 117.796684 
L 303.796565 117.334459 
L 303.957269 114.328739 
L 304.278677 102.393672 
L 304.707221 89.11781 
L 304.975061 86.40757 
L 305.108981 86.175299 
L 305.135765 86.189854 
L 305.269685 86.492382 
L 305.537525 87.899556 
L 305.912501 91.149934 
L 306.314261 96.730329 
L 306.742805 106.24683 
L 307.358837 120.073138 
L 307.412405 120.144129 
L 307.439189 120.047427 
L 307.546325 118.715285 
L 307.733813 112.839836 
L 308.483765 85.471862 
L 308.698037 84.042604 
L 308.805173 83.984687 
L 308.831957 84.01572 
L 308.992661 84.469586 
L 309.340853 86.358819 
L 309.769397 89.934257 
L 310.144373 95.060039 
L 310.519349 103.464974 
L 311.296085 123.641468 
L 311.322869 123.531988 
L 311.430005 121.850922 
L 311.617493 114.242044 
L 312.287093 83.053325 
L 312.528149 80.849127 
L 312.635285 80.73309 
L 312.662069 80.751995 
L 312.822773 81.111184 
L 312.903125 81.384328 
L 312.903125 81.384328 
" style="fill: none; stroke: #0173b2; stroke-width: 1.2; stroke-linecap: square"/>
   </g>
   <g id="line2d_16">
    <path d="M 45.063125 81.47164 
L 45.411317 81.366807 
L 45.759509 81.009677 
L 46.054133 80.376757 
L 46.348757 79.159431 
L 46.643381 76.829158 
L 46.938005 72.388126 
L 47.232629 64.045133 
L 47.554037 47.432219 
L 48.062933 15.996523 
L 48.116501 16.648628 
L 48.223637 23.316382 
L 48.464693 59.344709 
L 48.786101 97.535152 
L 49.000373 103.625047 
L 49.107509 103.960533 
L 49.134293 103.916128 
L 49.294997 103.183111 
L 49.669973 101.616622 
L 49.830677 101.534736 
L 49.991381 101.786053 
L 50.286005 102.83329 
L 50.902037 105.060361 
L 51.062741 105.130266 
L 51.196661 104.935398 
L 51.410933 104.155205 
L 51.866261 101.332252 
L 52.348373 98.914496 
L 52.589429 98.536162 
L 52.750133 98.623742 
L 52.964405 99.124082 
L 53.312597 100.677143 
L 54.250037 105.233217 
L 54.410741 105.271 
L 54.571445 104.936653 
L 54.839285 103.637949 
L 55.749941 98.494082 
L 55.964213 98.323187 
L 56.124917 98.521789 
L 56.365973 99.279469 
L 56.767733 101.435533 
L 57.490901 105.304184 
L 57.678389 105.52821 
L 57.812309 105.360664 
L 58.026581 104.529662 
L 58.428341 101.738258 
L 58.937237 98.63887 
L 59.205077 98.093546 
L 59.338997 98.139615 
L 59.526485 98.530554 
L 59.821109 99.791209 
L 60.463925 103.910401 
L 60.838901 105.604058 
L 61.026389 105.761697 
L 61.160309 105.517717 
L 61.374581 104.531177 
L 61.856693 100.827243 
L 62.285237 98.305185 
L 62.526293 97.844734 
L 62.660213 97.902535 
L 62.847701 98.325178 
L 63.142325 99.664112 
L 63.785141 104.035991 
L 64.186901 105.914072 
L 64.347605 106.026062 
L 64.481525 105.765405 
L 64.695797 104.704032 
L 65.177909 100.726749 
L 65.606453 98.054019 
L 65.847509 97.578902 
L 65.981429 97.645944 
L 66.168917 98.097672 
L 66.463541 99.512931 
L 67.079573 103.960266 
L 67.481333 106.113098 
L 67.642037 106.32449 
L 67.668821 106.312527 
L 67.802741 106.04089 
L 68.017013 104.907626 
L 68.499125 100.637971 
L 68.927669 97.792492 
L 69.168725 97.294328 
L 69.302645 97.367073 
L 69.490133 97.843982 
L 69.784757 99.331906 
L 70.374005 103.835979 
L 70.802549 106.382561 
L 70.990037 106.623208 
L 71.097173 106.434479 
L 71.284661 105.529751 
L 71.632853 102.441873 
L 72.195317 97.761796 
L 72.463157 97.005074 
L 72.597077 97.028356 
L 72.757781 97.37398 
L 73.025621 98.608779 
L 73.480949 102.037249 
L 74.123765 106.658179 
L 74.311253 106.959668 
L 74.418389 106.78122 
L 74.605877 105.842863 
L 74.954069 102.544399 
L 75.516533 97.502752 
L 75.784373 96.680669 
L 75.918293 96.695546 
L 76.078997 97.047612 
L 76.346837 98.325777 
L 76.775381 101.675928 
L 77.471765 107.036656 
L 77.632469 107.322194 
L 77.659253 107.310508 
L 77.766389 107.084203 
L 77.953877 106.011464 
L 78.328853 102.073995 
L 78.837749 97.24517 
L 79.105589 96.33478 
L 79.239509 96.332308 
L 79.400213 96.681784 
L 79.668053 97.991292 
L 80.096597 101.482705 
L 80.819765 107.429556 
L 80.980469 107.709768 
L 81.007253 107.691801 
L 81.114389 107.424244 
L 81.301877 106.221879 
L 81.676853 101.92322 
L 82.185749 96.832662 
L 82.453589 95.937038 
L 82.587509 95.964867 
L 82.748213 96.362813 
L 83.016053 97.77374 
L 83.444597 101.480272 
L 84.167765 107.83571 
L 84.328469 108.132486 
L 84.355253 108.11158 
L 84.462389 107.814478 
L 84.649877 106.493997 
L 85.051637 101.453384 
L 85.533749 96.414875 
L 85.801589 95.512235 
L 85.935509 95.561195 
L 86.096213 95.997758 
L 86.364053 97.496322 
L 86.792597 101.408453 
L 87.542549 108.359513 
L 87.676469 108.596443 
L 87.703253 108.577798 
L 87.810389 108.270158 
L 87.997877 106.853367 
L 88.372853 101.787889 
L 88.854965 96.175142 
L 89.122805 95.083265 
L 89.256725 95.075802 
L 89.417429 95.470045 
L 89.685269 96.944924 
L 90.087029 100.646913 
L 90.944117 108.985088 
L 91.051253 109.095909 
L 91.078037 109.062164 
L 91.211957 108.508425 
L 91.426229 106.365247 
L 92.390453 94.779419 
L 92.551157 94.540303 
L 92.577941 94.550327 
L 92.711861 94.792202 
L 92.926133 95.765181 
L 93.274325 98.595202 
L 93.917141 106.250652 
L 94.292117 109.457828 
L 94.399253 109.663878 
L 94.426037 109.649362 
L 94.533173 109.311004 
L 94.720661 107.652676 
L 95.095637 101.64747 
L 95.577749 95.19802 
L 95.845589 94.029307 
L 95.952725 94.013474 
L 95.979509 94.044634 
L 96.140213 94.496009 
L 96.408053 96.112711 
L 96.809813 100.157465 
L 97.747253 110.262604 
L 97.800821 110.274144 
L 97.827605 110.234612 
L 97.934741 109.764368 
L 98.149013 107.384762 
L 99.140021 93.59546 
L 99.300725 93.391846 
L 99.434645 93.628605 
L 99.648917 94.637056 
L 99.997109 97.616025 
L 100.506005 104.245962 
L 101.041685 110.595404 
L 101.175605 110.976253 
L 101.202389 110.957119 
L 101.309525 110.536743 
L 101.497013 108.490867 
L 101.898773 100.670291 
L 102.327317 94.120938 
L 102.595157 92.761822 
L 102.702293 92.72959 
L 102.729077 92.759992 
L 102.889781 93.226166 
L 103.157621 94.914627 
L 103.559381 99.199387 
L 104.577173 111.755635 
L 104.603957 111.74719 
L 104.684309 111.493818 
L 104.845013 109.942185 
L 105.139637 104.227784 
L 105.702101 93.698574 
L 105.969941 92.054244 
L 106.077077 91.957338 
L 106.103861 91.974608 
L 106.237781 92.279187 
L 106.478837 93.597873 
L 106.827029 96.928223 
L 107.309141 103.947488 
L 107.925173 112.418987 
L 108.032309 112.639455 
L 108.059093 112.592818 
L 108.166229 111.971082 
L 108.353717 109.246547 
L 109.344725 91.329919 
L 109.505429 91.101568 
L 109.612565 91.285732 
L 109.826837 92.281816 
L 110.148245 95.028798 
L 110.576789 100.821286 
L 111.460661 113.671818 
L 111.514229 113.623645 
L 111.621365 112.938687 
L 111.808853 109.876734 
L 112.773077 90.413513 
L 112.933781 90.10432 
L 112.960565 90.118622 
L 113.094485 90.420989 
L 113.335541 91.747693 
L 113.683733 95.083775 
L 114.112277 101.495002 
L 114.942581 114.872242 
L 114.996149 114.860936 
L 115.103285 114.167223 
L 115.290773 110.79573 
L 116.228213 89.371546 
L 116.415701 88.941702 
L 116.522837 89.108425 
L 116.737109 90.077738 
L 117.058517 92.728668 
L 117.460277 98.014183 
L 117.969173 108.170347 
L 118.424501 116.083645 
L 118.504853 116.369076 
L 118.558421 116.254486 
L 118.665557 115.228917 
L 118.879829 110.122243 
L 119.629781 88.974406 
L 119.870837 87.574325 
L 119.951189 87.544233 
L 119.977973 87.570465 
L 120.111893 87.924769 
L 120.379733 89.464408 
L 120.754709 93.076682 
L 121.156469 99.232228 
L 121.692149 111.584577 
L 122.067125 118.101522 
L 122.120693 118.234169 
L 122.147477 118.190718 
L 122.254613 117.228337 
L 122.442101 112.520661 
L 123.272405 86.744629 
L 123.486677 85.783099 
L 123.593813 85.85088 
L 123.781301 86.501131 
L 124.102709 88.585583 
L 124.504469 92.707849 
L 124.906229 99.438993 
L 125.388341 111.979056 
L 125.790101 120.577033 
L 125.843669 120.754282 
L 125.897237 120.566027 
L 126.004373 118.997145 
L 126.218645 111.349176 
L 126.861461 85.849464 
L 127.102517 83.586291 
L 127.236437 83.422697 
L 127.263221 83.448248 
L 127.423925 83.871555 
L 127.772117 85.650162 
L 128.227445 89.167328 
L 128.602421 93.962788 
L 128.977397 101.991132 
L 129.807701 124.629548 
L 129.861269 124.259755 
L 129.995189 120.965407 
L 130.263029 106.100551 
L 130.691573 84.365034 
L 130.959413 80.236281 
L 131.120117 79.819769 
L 131.146901 79.829319 
L 131.280821 80.06866 
L 132.753941 84.442131 
L 133.102133 86.485212 
L 133.423541 89.866687 
L 133.744949 95.869992 
L 134.093141 107.303982 
L 134.762741 134.570679 
L 134.816309 133.926828 
L 134.950229 127.939446 
L 135.244853 99.330061 
L 135.593045 75.146427 
L 135.834101 71.101975 
L 135.968021 70.85397 
L 135.994805 70.875805 
L 136.396565 71.385261 
L 136.450133 71.319796 
L 136.610837 70.811812 
L 136.851893 69.101719 
L 137.173301 64.915803 
L 137.601845 55.92238 
L 138.137525 45.31189 
L 138.191093 45.139867 
L 138.244661 45.261165 
L 138.351797 46.4578 
L 138.566069 52.521897 
L 139.289237 76.055109 
L 139.530293 77.625362 
L 139.610645 77.672957 
L 139.637429 77.651411 
L 139.771349 77.323144 
L 140.039189 75.908633 
L 140.440949 72.437116 
L 140.842709 66.792616 
L 141.271253 57.057061 
L 141.887285 42.70011 
L 141.914069 42.619981 
L 141.967637 42.73448 
L 142.074773 44.150714 
L 142.262261 50.364791 
L 142.985429 78.277959 
L 143.226485 79.993242 
L 143.306837 80.047438 
L 143.360405 79.992692 
L 143.547893 79.420753 
L 143.949653 77.203146 
L 144.378197 73.61367 
L 144.753173 68.373246 
L 145.128149 59.637714 
L 145.878101 38.690156 
L 145.931669 38.903999 
L 146.038805 40.944443 
L 146.253077 51.106161 
L 146.815541 80.09713 
L 147.056597 83.325128 
L 147.217301 83.675551 
L 147.351221 83.468717 
L 148.851125 79.278541 
L 149.199317 77.448981 
L 149.520725 74.416271 
L 149.842133 69.002033 
L 150.163541 59.542004 
L 150.592085 39.07137 
L 150.886709 28.440039 
L 150.913493 28.370431 
L 150.940277 28.528711 
L 151.047413 31.66914 
L 151.234901 46.477207 
L 151.743797 88.599066 
L 151.984853 92.727108 
L 152.118773 92.975292 
L 152.145557 92.952377 
L 152.547317 92.440107 
L 152.600885 92.509515 
L 152.761589 93.035913 
L 153.002645 94.788163 
L 153.324053 99.032943 
L 153.779381 108.597912 
L 154.261493 117.547386 
L 154.315061 117.72004 
L 154.368629 117.614613 
L 154.475765 116.499703 
L 154.690037 110.776627 
L 155.413205 87.963286 
L 155.654261 86.333471 
L 155.761397 86.283391 
L 155.788181 86.316352 
L 155.948885 86.803807 
L 156.243509 88.59271 
L 156.645269 92.53934 
L 157.047029 98.947206 
L 157.529141 110.889391 
L 157.957685 119.850845 
L 158.011253 120.026004 
L 158.064821 119.85731 
L 158.171957 118.399537 
L 158.386229 111.226882 
L 159.029045 86.63508 
L 159.270101 84.298656 
L 159.404021 84.096951 
L 159.430805 84.116902 
L 159.564725 84.428555 
L 159.859349 85.873441 
L 160.287893 89.141492 
L 160.662869 93.722512 
L 161.037845 101.250594 
L 161.573525 117.657927 
L 161.868149 123.411747 
L 161.894933 123.433559 
L 161.921717 123.341546 
L 162.028853 121.754094 
L 162.216341 114.365309 
L 162.885941 83.34265 
L 163.126997 81.063725 
L 163.234133 80.928004 
L 163.260917 80.943395 
L 163.421621 81.292338 
L 163.957301 83.397474 
L 164.492981 86.054409 
L 164.841173 88.99897 
L 165.189365 94.139678 
L 165.537557 103.08728 
L 166.019669 122.759802 
L 166.287509 130.201801 
L 166.314293 130.263981 
L 166.341077 130.15094 
L 166.448213 127.785974 
L 166.635701 116.435148 
L 167.198165 78.493372 
L 167.439221 74.984944 
L 167.573141 74.714152 
L 167.599925 74.726691 
L 167.787413 75.054223 
L 168.055253 75.383309 
L 168.189173 75.256725 
L 168.376661 74.660513 
L 168.644501 72.857159 
L 168.965909 68.896877 
L 169.314101 61.645328 
L 169.876565 43.837236 
L 170.144405 39.199539 
L 170.197973 39.450668 
L 170.305109 41.513159 
L 170.519381 51.465879 
L 171.081845 79.658769 
L 171.322901 82.849985 
L 171.483605 83.204683 
L 171.617525 82.996788 
L 172.046069 81.543125 
L 173.010293 77.891423 
L 173.358485 75.135073 
L 173.679893 70.638489 
L 174.001301 62.876365 
L 174.376277 47.902174 
L 174.831605 30.723777 
L 174.858389 30.697397 
L 174.938741 31.884853 
L 175.099445 40.333106 
L 175.822613 89.410759 
L 176.036885 90.899375 
L 176.144021 90.858114 
L 176.545781 90.379958 
L 176.679701 90.63427 
L 176.893973 91.689233 
L 177.188597 94.589548 
L 177.536789 100.533427 
L 178.045685 113.889945 
L 178.393877 120.540625 
L 178.447445 120.616924 
L 178.474229 120.518034 
L 178.581365 119.14045 
L 178.768853 113.045674 
L 179.492021 85.345395 
L 179.733077 83.597987 
L 179.813429 83.536024 
L 179.866997 83.586876 
L 180.027701 84.044971 
L 180.375893 85.875195 
L 180.804437 89.242768 
L 181.179413 94.052084 
L 181.554389 102.073447 
L 182.357909 124.412369 
L 182.438261 124.015167 
L 182.572181 120.704237 
L 182.840021 105.978578 
L 183.268565 84.525277 
L 183.536405 80.434321 
L 183.697109 80.02009 
L 183.723893 80.02982 
L 183.857813 80.271442 
L 184.875605 83.431769 
L 185.277365 85.025205 
L 185.625557 87.458143 
L 185.946965 91.455483 
L 186.268373 98.452025 
L 186.616565 111.277965 
L 187.179029 133.566188 
L 187.205813 133.492429 
L 187.286165 131.914329 
L 187.446869 122.417875 
L 188.116469 73.845842 
L 188.330741 71.820696 
L 188.411093 71.76049 
L 188.464661 71.812964 
L 188.839637 72.295979 
L 188.866421 72.274868 
L 189.000341 71.989447 
L 189.214613 70.852121 
L 189.509237 67.785713 
L 189.884213 61.060214 
L 190.687733 43.881568 
L 190.741301 43.97187 
L 190.848437 45.2157 
L 191.035925 50.756761 
L 191.785877 77.281643 
L 192.026933 78.8275 
L 192.107285 78.858733 
L 192.134069 78.832694 
L 192.294773 78.393482 
L 192.616181 76.62632 
L 193.044725 72.921955 
L 193.419701 67.630743 
L 193.821461 58.378485 
L 194.517845 40.753658 
L 194.544629 40.762093 
L 194.624981 41.457172 
L 194.785685 45.999751 
L 195.214229 68.922509 
L 195.535637 79.395929 
L 195.776693 81.644289 
L 195.883829 81.783679 
L 195.910613 81.76882 
L 196.044533 81.495943 
L 196.392725 80.08328 
L 196.981973 76.850512 
L 197.356949 73.386786 
L 197.705141 67.823452 
L 198.053333 58.464042 
L 198.776501 35.050368 
L 198.830069 35.439097 
L 198.963989 39.448274 
L 199.231829 57.943358 
L 199.633589 82.10792 
L 199.874645 86.441386 
L 200.062133 86.993137 
L 200.196053 86.808319 
L 200.624597 86.101022 
L 200.758517 86.180047 
L 200.946005 86.619032 
L 201.213845 87.982034 
L 201.535253 91.048036 
L 201.856661 96.381486 
L 202.231637 106.840657 
L 202.901237 127.636833 
L 202.928021 127.518064 
L 203.035157 125.411392 
L 203.222645 115.592991 
L 203.811893 80.54628 
L 204.052949 77.350861 
L 204.186869 77.083578 
L 204.213653 77.094801 
L 204.374357 77.38071 
L 204.776117 78.111051 
L 204.936821 78.071012 
L 205.124309 77.717104 
L 205.365365 76.732866 
L 205.659989 74.541701 
L 205.981397 70.361491 
L 206.329589 62.513312 
L 206.758133 46.600331 
L 207.133109 34.351748 
L 207.186677 34.161954 
L 207.213461 34.313678 
L 207.320597 36.735409 
L 207.508085 47.719589 
L 208.070549 84.029175 
L 208.311605 87.513168 
L 208.445525 87.806107 
L 208.472309 87.796989 
L 208.633013 87.529658 
L 208.954421 87.041312 
L 209.088341 87.118455 
L 209.275829 87.597135 
L 209.516885 88.918467 
L 209.811509 91.830591 
L 210.159701 97.804904 
L 210.534677 108.448237 
L 211.123925 125.870946 
L 211.150709 125.909136 
L 211.177493 125.812954 
L 211.284629 123.977455 
L 211.472117 115.272924 
L 212.114933 81.267679 
L 212.355989 78.801437 
L 212.463125 78.660064 
L 212.489909 78.674085 
L 212.650613 78.987317 
L 213.239861 80.30585 
L 213.480917 80.386631 
L 213.721973 80.200015 
L 213.989813 79.675735 
L 214.311221 78.478145 
L 214.632629 76.287227 
L 214.954037 72.336062 
L 215.275445 65.281358 
L 215.623637 52.068547 
L 216.186101 28.164119 
L 216.212885 28.216037 
L 216.293237 29.848102 
L 216.453941 40.056529 
L 217.096757 90.738618 
L 217.311029 93.084002 
L 217.391381 93.167027 
L 217.444949 93.117104 
L 217.819925 92.61688 
L 217.846709 92.641465 
L 217.980629 92.959166 
L 218.194901 94.196436 
L 218.489525 97.454399 
L 218.891285 104.845661 
L 219.560885 117.421418 
L 219.587669 117.470589 
L 219.641237 117.361818 
L 219.748373 116.260998 
L 219.962645 110.651355 
L 220.685813 88.209258 
L 220.926869 86.5737 
L 221.034005 86.518279 
L 221.060789 86.550115 
L 221.221493 87.034206 
L 221.516117 88.836761 
L 221.917877 92.842338 
L 222.319637 99.329468 
L 222.828533 111.942236 
L 223.203509 119.448237 
L 223.257077 119.676163 
L 223.310645 119.575401 
L 223.417781 118.294421 
L 223.605269 112.648701 
L 224.355221 85.96303 
L 224.596277 84.448868 
L 224.676629 84.425159 
L 224.703413 84.453251 
L 224.864117 84.89992 
L 225.185525 86.659575 
L 225.614069 90.317838 
L 225.989045 95.542665 
L 226.390805 104.731613 
L 227.113973 122.896918 
L 227.167541 122.639811 
L 227.301461 119.923421 
L 227.542517 108.523989 
L 228.051413 85.08556 
L 228.292469 81.840455 
L 228.453173 81.425317 
L 228.479957 81.434572 
L 228.613877 81.686444 
L 228.962069 83.053983 
L 229.578101 86.259479 
L 229.953077 89.546554 
L 230.301269 94.85405 
L 230.649461 103.895145 
L 231.399413 128.890945 
L 231.479765 128.125958 
L 231.613685 123.254362 
L 231.935093 99.179308 
L 232.283285 80.089965 
L 232.524341 76.325196 
L 232.685045 75.954529 
L 232.818965 76.139934 
L 233.220725 76.767003 
L 233.354645 76.667905 
L 233.542133 76.17257 
L 233.809973 74.660698 
L 234.131381 71.290567 
L 234.479573 64.883924 
L 234.881333 52.581923 
L 235.390229 36.944189 
L 235.417013 36.819304 
L 235.470581 36.984199 
L 235.577717 39.137048 
L 235.791989 50.397199 
L 236.354453 81.94809 
L 236.595509 85.11146 
L 236.729429 85.396326 
L 236.756213 85.387631 
L 236.916917 85.09924 
L 237.425813 84.065463 
L 237.613301 84.068335 
L 237.800789 84.315133 
L 238.068629 85.116905 
L 238.363253 86.759967 
L 238.684661 89.934967 
L 239.006069 95.514608 
L 239.354261 105.961269 
L 240.050645 132.208186 
L 240.104213 131.725854 
L 240.238133 126.69364 
L 240.505973 103.915287 
L 240.880949 77.971161 
L 241.122005 73.416142 
L 241.282709 72.969084 
L 241.416629 73.144519 
L 241.711253 73.538995 
L 241.845173 73.390932 
L 242.032661 72.695309 
L 242.300501 70.596325 
L 242.621909 66.087837 
L 243.023669 56.848148 
L 243.639701 42.159125 
L 243.666485 42.084134 
L 243.720053 42.221463 
L 243.827189 43.737345 
L 244.041461 51.537242 
L 244.684277 78.035697 
L 244.925333 80.363105 
L 245.059253 80.534668 
L 245.086037 80.510403 
L 245.246741 80.099678 
L 245.621717 78.25822 
L 246.077045 74.976154 
L 246.452021 70.513349 
L 246.826997 62.902175 
L 247.282325 48.037538 
L 247.657301 37.900938 
L 247.710869 37.766897 
L 247.737653 37.897309 
L 247.844789 39.855951 
L 248.032277 48.647943 
L 248.648309 81.481191 
L 248.889365 84.310481 
L 249.023285 84.532626 
L 249.050069 84.516105 
L 249.210773 84.191693 
L 249.826805 82.749073 
L 250.121429 82.595968 
L 250.389269 82.721337 
L 250.683893 83.136016 
L 251.005301 84.020387 
L 251.326709 85.647377 
L 251.648117 88.615538 
L 251.969525 94.028992 
L 252.290933 103.681346 
L 252.692693 123.698146 
L 253.014101 136.854977 
L 253.040885 136.956523 
L 253.067669 136.809293 
L 253.174805 133.464454 
L 253.362293 117.348823 
L 253.844405 73.758489 
L 254.085461 69.039896 
L 254.219381 68.749078 
L 254.246165 68.773102 
L 254.647925 69.349461 
L 254.701493 69.279538 
L 254.862197 68.733254 
L 255.103253 66.918775 
L 255.451445 62.2024 
L 256.335317 47.887304 
L 256.388885 47.980996 
L 256.496021 48.893514 
L 256.710293 53.52079 
L 257.513813 74.058584 
L 257.728085 75.048992 
L 257.835221 75.017855 
L 257.995925 74.514043 
L 258.290549 72.578064 
L 258.665525 68.51264 
L 259.094069 61.209911 
L 259.897589 46.280387 
L 259.951157 46.353297 
L 260.058293 47.353482 
L 260.245781 51.808271 
L 261.076085 75.667732 
L 261.290357 76.606431 
L 261.397493 76.539935 
L 261.558197 76.005104 
L 261.852821 74.119522 
L 262.254581 69.946046 
L 262.656341 63.222782 
L 263.566997 44.162212 
L 263.647349 44.562931 
L 263.781269 46.993915 
L 264.049109 57.283158 
L 264.531221 75.042668 
L 264.799061 78.261801 
L 264.959765 78.601916 
L 265.066901 78.441194 
L 265.281173 77.569171 
L 265.656149 75.004601 
L 266.057909 70.69091 
L 266.432885 64.106776 
L 266.888213 51.601362 
L 267.316757 41.360356 
L 267.370325 41.174024 
L 267.397109 41.232746 
L 267.504245 42.573894 
L 267.691733 49.158558 
L 268.414901 79.573551 
L 268.655957 81.332427 
L 268.736309 81.383393 
L 268.763093 81.363428 
L 268.923797 80.981634 
L 269.325557 79.17671 
L 269.834453 75.974295 
L 270.209429 71.980995 
L 270.557621 65.615555 
L 270.932597 54.304405 
L 271.521845 35.986408 
L 271.575413 36.194112 
L 271.682549 38.541468 
L 271.896821 50.529934 
L 272.432501 82.244367 
L 272.673557 85.78898 
L 272.834261 86.147798 
L 272.968181 85.955916 
L 273.477077 85.059941 
L 273.637781 85.15525 
L 273.852053 85.649335 
L 274.119893 86.924498 
L 274.441301 89.719444 
L 274.762709 94.628965 
L 275.110901 103.725766 
L 275.860853 129.771888 
L 275.941205 129.063812 
L 276.075125 124.093516 
L 276.369749 101.226744 
L 276.717941 80.090913 
L 276.958997 75.672272 
L 277.146485 75.160383 
L 277.307189 75.41072 
L 277.628597 75.868618 
L 277.762517 75.761137 
L 277.950005 75.214105 
L 278.217845 73.53304 
L 278.539253 69.804578 
L 278.887445 62.867952 
L 279.342773 48.426191 
L 279.717749 38.554518 
L 279.771317 38.396176 
L 279.798101 38.50484 
L 279.905237 40.309062 
L 280.092725 48.620777 
L 280.735541 81.282086 
L 280.976597 83.787926 
L 281.083733 83.950814 
L 281.137301 83.914918 
L 281.324789 83.470887 
L 282.021173 81.639505 
L 283.012181 79.758268 
L 283.333589 78.363347 
L 283.654997 75.852311 
L 283.976405 71.273787 
L 284.297813 63.013179 
L 284.646005 47.700249 
L 285.128117 26.324433 
L 285.154901 26.378271 
L 285.235253 28.160247 
L 285.395957 39.348709 
L 286.011989 92.067989 
L 286.226261 94.707597 
L 286.306613 94.80195 
L 286.360181 94.747445 
L 286.735157 94.184944 
L 286.761941 94.209158 
L 286.895861 94.536202 
L 287.110133 95.817542 
L 287.404757 99.126368 
L 287.860085 107.281186 
L 288.342197 115.08361 
L 288.422549 115.367008 
L 288.476117 115.28379 
L 288.583253 114.405805 
L 288.770741 110.62898 
L 289.654613 89.132032 
L 289.868885 88.502815 
L 289.976021 88.658028 
L 290.163509 89.449278 
L 290.484917 91.940198 
L 290.886677 96.978513 
L 291.342005 105.804842 
L 291.931253 116.776918 
L 291.984821 116.937924 
L 292.038389 116.839255 
L 292.145525 115.80115 
L 292.359797 110.477767 
L 293.109749 88.436144 
L 293.350805 87.030378 
L 293.431157 87.005171 
L 293.457941 87.032962 
L 293.618645 87.501332 
L 293.913269 89.318763 
L 294.315029 93.42136 
L 294.716789 100.025469 
L 295.332821 115.000776 
L 295.600661 118.921369 
L 295.627445 118.980564 
L 295.681013 118.861274 
L 295.788149 117.60431 
L 296.002421 111.169626 
L 296.698805 86.988398 
L 296.939861 85.163403 
L 297.046997 85.078276 
L 297.073781 85.104139 
L 297.234485 85.548134 
L 297.529109 87.189544 
L 297.930869 90.694971 
L 298.305845 95.931917 
L 298.707605 104.960224 
L 299.403989 121.826918 
L 299.457557 121.714472 
L 299.564693 120.200978 
L 299.752181 113.491361 
L 300.448565 84.474932 
L 300.689621 82.501655 
L 300.796757 82.416225 
L 300.823541 82.441385 
L 300.984245 82.849171 
L 301.386005 84.752046 
L 301.868117 88.04836 
L 302.243093 92.369098 
L 302.591285 99.178495 
L 302.993045 111.896076 
L 303.475157 126.493163 
L 303.501941 126.608478 
L 303.555509 126.422432 
L 303.662645 124.222335 
L 303.876917 112.883908 
L 304.412597 82.091913 
L 304.653653 78.434137 
L 304.814357 78.014894 
L 304.841141 78.024849 
L 305.001845 78.317156 
L 305.510741 79.344863 
L 305.698229 79.337527 
L 305.912501 79.029113 
L 306.180341 78.160155 
L 306.474965 76.412753 
L 306.796373 73.051889 
L 307.117781 67.160383 
L 307.465973 56.21582 
L 308.135573 31.245127 
L 308.162357 31.421225 
L 308.269493 34.28241 
L 308.483765 49.70338 
L 308.965877 85.595887 
L 309.206933 90.012166 
L 309.367637 90.425262 
L 309.501557 90.241675 
L 309.796181 89.856522 
L 309.930101 90.01305 
L 310.117589 90.721327 
L 310.385429 92.839198 
L 310.706837 97.374143 
L 311.108597 106.654404 
L 311.724629 121.305089 
L 311.751413 121.370327 
L 311.804981 121.211282 
L 311.912117 119.645464 
L 312.126389 111.749365 
L 312.769205 85.296368 
L 312.903125 83.624812 
L 312.903125 83.624812 
" style="fill: none; stroke: #de8f05; stroke-opacity: 0.8; stroke-width: 1.2; stroke-linecap: square"/>
   </g>
  </g>
 </g>
</svg>
