<?xml version="1.0" encoding="utf-8" standalone="no"?>
<!DOCTYPE svg PUBLIC "-//W3C//DTD SVG 1.1//EN"
  "http://www.w3.org/Graphics/SVG/1.1/DTD/svg11.dtd">
<svg xmlns:xlink="http://www.w3.org/1999/xlink" width="413.731792pt" height="176.748012pt" viewBox="0 0 413.731792 176.748012" xmlns="http://www.w3.org/2000/svg" version="1.1">
 <metadata>
  <rdf:RDF xmlns:dc="http://purl.org/dc/elements/1.1/" xmlns:cc="http://creativecommons.org/ns#" xmlns:rdf="http://www.w3.org/1999/02/22-rdf-syntax-ns#">
   <cc:Work>
    <dc:type rdf:resource="http://purl.org/dc/dcmitype/StillImage"/>
    <dc:date>2024-12-10T03:19:53.355886</dc:date>
    <dc:format>image/svg+xml</dc:format>
    <dc:creator>
     <cc:Agent>
      <dc:title>Matplotlib v3.8.0, https://matplotlib.org/</dc:title>
     </cc:Agent>
    </dc:creator>
   </cc:Work>
  </rdf:RDF>
 </metadata>
 <defs>
  <style type="text/css">*{stroke-linejoin: round; stroke-linecap: butt}</style>
 </defs>
 <g id="figure_1">
  <g id="patch_1">
   <path d="M 0 176.748012 
L 413.731792 176.748012 
L 413.731792 0 
L 0 0 
z
" style="fill: #ffffff"/>
  </g>
  <g id="axes_1">
   <g id="patch_2">
    <path d="M 35.681065 143.214898 
L 303.521065 143.214898 
L 303.521065 10.158898 
L 35.681065 10.158898 
z
" style="fill: #ffffff"/>
   </g>
   <g id="matplotlib.axis_1">
    <g id="xtick_1">
     <g id="line2d_1">
      <defs>
       <path id="ma83182de32" d="M 0 0 
L 0 -3 
" style="stroke: #000000; stroke-width: 0.5"/>
      </defs>
      <g>
       <use xlink:href="#ma83182de32" x="35.681065" y="143.214898" style="stroke: #000000; stroke-width: 0.5"/>
      </g>
     </g>
     <g id="text_1">
      <!-- $30$ -->
      <g transform="translate(31.29751 154.132693) scale(0.088 -0.088)">
       <defs>
        <path id="NimbusRomNo9L-Regu-33" d="M 979 2137 
C 1357 2137 1504 2124 1658 2067 
C 2054 1926 2304 1561 2304 1120 
C 2304 582 1939 166 1466 166 
C 1293 166 1165 211 928 364 
C 736 480 627 524 518 524 
C 371 524 275 435 275 300 
C 275 76 550 -64 998 -64 
C 1491 -64 1997 102 2298 364 
C 2598 627 2765 998 2765 1427 
C 2765 1753 2662 2054 2477 2252 
C 2349 2393 2227 2470 1946 2592 
C 2387 2892 2547 3129 2547 3475 
C 2547 3993 2138 4352 1549 4352 
C 1229 4352 947 4243 717 4038 
C 525 3865 429 3699 288 3315 
L 384 3289 
C 646 3757 934 3967 1338 3967 
C 1754 3967 2042 3686 2042 3283 
C 2042 3052 1946 2822 1786 2662 
C 1594 2470 1414 2374 979 2220 
L 979 2137 
z
" transform="scale(0.015625)"/>
        <path id="NimbusRomNo9L-Regu-30" d="M 1626 4352 
C 1274 4352 1005 4243 768 4019 
C 397 3661 154 2924 154 2176 
C 154 1478 365 729 666 371 
C 902 89 1229 -64 1600 -64 
C 1926 -64 2202 44 2432 268 
C 2803 620 3046 1363 3046 2137 
C 3046 3449 2464 4352 1626 4352 
z
M 1606 4185 
C 2144 4185 2432 3462 2432 2124 
C 2432 787 2150 102 1600 102 
C 1050 102 768 787 768 2118 
C 768 3475 1056 4185 1606 4185 
z
" transform="scale(0.015625)"/>
       </defs>
       <use xlink:href="#NimbusRomNo9L-Regu-33" transform="scale(0.996264)"/>
       <use xlink:href="#NimbusRomNo9L-Regu-30" transform="translate(49.8132 0) scale(0.996264)"/>
      </g>
     </g>
    </g>
    <g id="xtick_2">
     <g id="line2d_2">
      <g>
       <use xlink:href="#ma83182de32" x="69.161065" y="143.214898" style="stroke: #000000; stroke-width: 0.5"/>
      </g>
     </g>
     <g id="text_2">
      <!-- $32.5$ -->
      <g transform="translate(61.489843 154.132693) scale(0.088 -0.088)">
       <defs>
        <path id="NimbusRomNo9L-Regu-32" d="M 3040 879 
L 2957 912 
C 2720 544 2637 486 2349 486 
L 819 486 
L 1894 1621 
C 2464 2221 2714 2711 2714 3214 
C 2714 3858 2195 4352 1530 4352 
C 1178 4352 845 4211 608 3955 
C 403 3736 307 3530 198 3072 
L 333 3039 
C 589 3671 819 3878 1261 3878 
C 1798 3878 2163 3510 2163 2969 
C 2163 2466 1869 1866 1331 1292 
L 192 76 
L 192 0 
L 2688 0 
L 3040 879 
z
" transform="scale(0.015625)"/>
        <path id="rtxmi-3a" d="M 1158 217 
C 1158 416 992 582 800 582 
C 608 582 448 422 448 217 
C 448 -26 666 -128 800 -128 
C 934 -128 1158 -20 1158 217 
z
" transform="scale(0.015625)"/>
        <path id="NimbusRomNo9L-Regu-35" d="M 1158 3718 
L 2413 3718 
C 2515 3718 2541 3731 2560 3775 
L 2803 4345 
L 2746 4390 
C 2650 4256 2586 4224 2451 4224 
L 1114 4224 
L 416 2717 
C 410 2705 410 2698 410 2686 
C 410 2654 435 2635 486 2635 
C 691 2635 947 2591 1210 2508 
C 1946 2274 2285 1882 2285 1255 
C 2285 647 1894 172 1395 172 
C 1267 172 1158 217 966 356 
C 762 502 614 565 480 565 
C 294 565 205 489 205 331 
C 205 89 506 -64 986 -64 
C 1523 -64 1984 108 2304 432 
C 2598 717 2733 1078 2733 1559 
C 2733 2015 2611 2306 2291 2622 
C 2010 2901 1645 3047 890 3180 
L 1158 3718 
z
" transform="scale(0.015625)"/>
       </defs>
       <use xlink:href="#NimbusRomNo9L-Regu-33" transform="scale(0.996264)"/>
       <use xlink:href="#NimbusRomNo9L-Regu-32" transform="translate(49.8132 0) scale(0.996264)"/>
       <use xlink:href="#rtxmi-3a" transform="translate(99.626401 0) scale(0.996264)"/>
       <use xlink:href="#NimbusRomNo9L-Regu-35" transform="translate(124.533001 0) scale(0.996264)"/>
      </g>
     </g>
    </g>
    <g id="xtick_3">
     <g id="line2d_3">
      <g>
       <use xlink:href="#ma83182de32" x="102.641065" y="143.214898" style="stroke: #000000; stroke-width: 0.5"/>
      </g>
     </g>
     <g id="text_3">
      <!-- $35$ -->
      <g transform="translate(98.25751 154.132693) scale(0.088 -0.088)">
       <use xlink:href="#NimbusRomNo9L-Regu-33" transform="scale(0.996264)"/>
       <use xlink:href="#NimbusRomNo9L-Regu-35" transform="translate(49.8132 0) scale(0.996264)"/>
      </g>
     </g>
    </g>
    <g id="xtick_4">
     <g id="line2d_4">
      <g>
       <use xlink:href="#ma83182de32" x="136.121065" y="143.214898" style="stroke: #000000; stroke-width: 0.5"/>
      </g>
     </g>
     <g id="text_4">
      <!-- $37.5$ -->
      <g transform="translate(128.449843 154.132693) scale(0.088 -0.088)">
       <defs>
        <path id="NimbusRomNo9L-Regu-37" d="M 2874 4224 
L 506 4224 
L 128 3283 
L 237 3232 
C 512 3667 627 3750 979 3750 
L 2368 3750 
L 1101 -64 
L 1517 -64 
L 2874 4121 
L 2874 4224 
z
" transform="scale(0.015625)"/>
       </defs>
       <use xlink:href="#NimbusRomNo9L-Regu-33" transform="scale(0.996264)"/>
       <use xlink:href="#NimbusRomNo9L-Regu-37" transform="translate(49.8132 0) scale(0.996264)"/>
       <use xlink:href="#rtxmi-3a" transform="translate(99.626401 0) scale(0.996264)"/>
       <use xlink:href="#NimbusRomNo9L-Regu-35" transform="translate(124.533001 0) scale(0.996264)"/>
      </g>
     </g>
    </g>
    <g id="xtick_5">
     <g id="line2d_5">
      <g>
       <use xlink:href="#ma83182de32" x="169.601065" y="143.214898" style="stroke: #000000; stroke-width: 0.5"/>
      </g>
     </g>
     <g id="text_5">
      <!-- $40$ -->
      <g transform="translate(165.21751 154.132693) scale(0.088 -0.088)">
       <defs>
        <path id="NimbusRomNo9L-Regu-34" d="M 3021 1497 
L 2368 1497 
L 2368 4352 
L 2086 4352 
L 77 1497 
L 77 1088 
L 1875 1088 
L 1875 0 
L 2368 0 
L 2368 1088 
L 3021 1088 
L 3021 1497 
z
M 1869 1497 
L 333 1497 
L 1869 3697 
L 1869 1497 
z
" transform="scale(0.015625)"/>
       </defs>
       <use xlink:href="#NimbusRomNo9L-Regu-34" transform="scale(0.996264)"/>
       <use xlink:href="#NimbusRomNo9L-Regu-30" transform="translate(49.8132 0) scale(0.996264)"/>
      </g>
     </g>
    </g>
    <g id="xtick_6">
     <g id="line2d_6">
      <g>
       <use xlink:href="#ma83182de32" x="203.081065" y="143.214898" style="stroke: #000000; stroke-width: 0.5"/>
      </g>
     </g>
     <g id="text_6">
      <!-- $42.5$ -->
      <g transform="translate(195.409843 154.132693) scale(0.088 -0.088)">
       <use xlink:href="#NimbusRomNo9L-Regu-34" transform="scale(0.996264)"/>
       <use xlink:href="#NimbusRomNo9L-Regu-32" transform="translate(49.8132 0) scale(0.996264)"/>
       <use xlink:href="#rtxmi-3a" transform="translate(99.626401 0) scale(0.996264)"/>
       <use xlink:href="#NimbusRomNo9L-Regu-35" transform="translate(124.533001 0) scale(0.996264)"/>
      </g>
     </g>
    </g>
    <g id="xtick_7">
     <g id="line2d_7">
      <g>
       <use xlink:href="#ma83182de32" x="236.561065" y="143.214898" style="stroke: #000000; stroke-width: 0.5"/>
      </g>
     </g>
     <g id="text_7">
      <!-- $45$ -->
      <g transform="translate(232.17751 154.132693) scale(0.088 -0.088)">
       <use xlink:href="#NimbusRomNo9L-Regu-34" transform="scale(0.996264)"/>
       <use xlink:href="#NimbusRomNo9L-Regu-35" transform="translate(49.8132 0) scale(0.996264)"/>
      </g>
     </g>
    </g>
    <g id="xtick_8">
     <g id="line2d_8">
      <g>
       <use xlink:href="#ma83182de32" x="270.041065" y="143.214898" style="stroke: #000000; stroke-width: 0.5"/>
      </g>
     </g>
     <g id="text_8">
      <!-- $47.5$ -->
      <g transform="translate(262.369843 154.132693) scale(0.088 -0.088)">
       <use xlink:href="#NimbusRomNo9L-Regu-34" transform="scale(0.996264)"/>
       <use xlink:href="#NimbusRomNo9L-Regu-37" transform="translate(49.8132 0) scale(0.996264)"/>
       <use xlink:href="#rtxmi-3a" transform="translate(99.626401 0) scale(0.996264)"/>
       <use xlink:href="#NimbusRomNo9L-Regu-35" transform="translate(124.533001 0) scale(0.996264)"/>
      </g>
     </g>
    </g>
    <g id="xtick_9">
     <g id="line2d_9">
      <g>
       <use xlink:href="#ma83182de32" x="303.521065" y="143.214898" style="stroke: #000000; stroke-width: 0.5"/>
      </g>
     </g>
     <g id="text_9">
      <!-- $50$ -->
      <g transform="translate(299.13751 154.132693) scale(0.088 -0.088)">
       <use xlink:href="#NimbusRomNo9L-Regu-35" transform="scale(0.996264)"/>
       <use xlink:href="#NimbusRomNo9L-Regu-30" transform="translate(49.8132 0) scale(0.996264)"/>
      </g>
     </g>
    </g>
    <g id="text_10">
     <!-- $t$ -->
     <g transform="translate(168.271654 167.482166) scale(0.096 -0.096)">
      <defs>
       <path id="NimbusRomNo9L-ReguItal-74" d="M 1894 2752 
L 1382 2752 
L 1562 3411 
C 1568 3424 1568 3436 1568 3443 
C 1568 3488 1549 3507 1517 3507 
C 1478 3507 1459 3500 1421 3449 
C 1171 3123 774 2803 570 2745 
C 410 2694 365 2655 365 2585 
C 365 2579 365 2566 371 2547 
L 845 2547 
L 384 782 
C 371 724 365 705 346 647 
C 288 454 237 230 237 179 
C 237 38 371 -64 544 -64 
C 838 -64 1050 115 1453 711 
L 1370 756 
C 1056 352 954 249 851 249 
C 794 249 755 300 755 377 
C 755 384 755 390 762 410 
L 1325 2547 
L 1862 2547 
L 1894 2752 
z
" transform="scale(0.015625)"/>
      </defs>
      <use xlink:href="#NimbusRomNo9L-ReguItal-74" transform="scale(0.996264)"/>
     </g>
    </g>
   </g>
   <g id="matplotlib.axis_2">
    <g id="ytick_1">
     <g id="line2d_10">
      <defs>
       <path id="m093de30f40" d="M 0 0 
L 3 0 
" style="stroke: #000000; stroke-width: 0.5"/>
      </defs>
      <g>
       <use xlink:href="#m093de30f40" x="35.681065" y="143.214898" style="stroke: #000000; stroke-width: 0.5"/>
      </g>
     </g>
     <g id="text_11">
      <!-- $-4$ -->
      <g transform="translate(20.721633 146.173795) scale(0.088 -0.088)">
       <defs>
        <path id="txsy-0" d="M 3674 1472 
L 3674 1830 
L 397 1830 
L 397 1472 
L 3674 1472 
z
" transform="scale(0.015625)"/>
       </defs>
       <use xlink:href="#txsy-0" transform="scale(0.996264)"/>
       <use xlink:href="#NimbusRomNo9L-Regu-34" transform="translate(63.362352 0) scale(0.996264)"/>
      </g>
     </g>
    </g>
    <g id="ytick_2">
     <g id="line2d_11">
      <g>
       <use xlink:href="#m093de30f40" x="35.681065" y="109.950898" style="stroke: #000000; stroke-width: 0.5"/>
      </g>
     </g>
     <g id="text_12">
      <!-- $-2$ -->
      <g transform="translate(20.721633 112.909795) scale(0.088 -0.088)">
       <use xlink:href="#txsy-0" transform="scale(0.996264)"/>
       <use xlink:href="#NimbusRomNo9L-Regu-32" transform="translate(63.362352 0) scale(0.996264)"/>
      </g>
     </g>
    </g>
    <g id="ytick_3">
     <g id="line2d_12">
      <g>
       <use xlink:href="#m093de30f40" x="35.681065" y="76.686898" style="stroke: #000000; stroke-width: 0.5"/>
      </g>
     </g>
     <g id="text_13">
      <!-- $0$ -->
      <g transform="translate(26.29751 79.645795) scale(0.088 -0.088)">
       <use xlink:href="#NimbusRomNo9L-Regu-30" transform="scale(0.996264)"/>
      </g>
     </g>
    </g>
    <g id="ytick_4">
     <g id="line2d_13">
      <g>
       <use xlink:href="#m093de30f40" x="35.681065" y="43.422898" style="stroke: #000000; stroke-width: 0.5"/>
      </g>
     </g>
     <g id="text_14">
      <!-- $2$ -->
      <g transform="translate(26.29751 46.381795) scale(0.088 -0.088)">
       <use xlink:href="#NimbusRomNo9L-Regu-32" transform="scale(0.996264)"/>
      </g>
     </g>
    </g>
    <g id="ytick_5">
     <g id="line2d_14">
      <g>
       <use xlink:href="#m093de30f40" x="35.681065" y="10.158898" style="stroke: #000000; stroke-width: 0.5"/>
      </g>
     </g>
     <g id="text_15">
      <!-- $4$ -->
      <g transform="translate(26.29751 13.117795) scale(0.088 -0.088)">
       <use xlink:href="#NimbusRomNo9L-Regu-34" transform="scale(0.996264)"/>
      </g>
     </g>
    </g>
    <g id="text_16">
     <!-- $v, v_r$ -->
     <g transform="translate(13.655787 84.228023) rotate(-90) scale(0.096 -0.096)">
      <defs>
       <path id="NimbusRomNo9L-ReguItal-76" d="M 134 2572 
C 205 2578 256 2578 326 2578 
C 576 2578 640 2469 730 1879 
C 794 1436 870 468 870 96 
C 870 -84 883 -128 928 -128 
C 1088 -128 1683 551 2336 1462 
C 2560 1783 2726 2200 2726 2437 
C 2726 2643 2560 2816 2368 2816 
C 2227 2816 2131 2732 2131 2598 
C 2131 2495 2170 2418 2285 2315 
C 2368 2238 2400 2187 2400 2123 
C 2400 1828 1978 1116 1523 641 
L 1325 436 
C 1280 1340 1242 1674 1158 2149 
C 1030 2803 1030 2816 973 2816 
C 941 2816 896 2809 845 2790 
C 730 2758 378 2694 134 2655 
L 134 2572 
z
" transform="scale(0.015625)"/>
       <path id="rtxmi-3b" d="M 1248 25 
C 1248 556 877 640 730 640 
C 570 640 358 543 358 268 
C 358 12 589 -52 755 -52 
C 800 -52 832 -45 851 -39 
C 877 -33 896 -26 909 -26 
C 954 -26 998 -58 998 -116 
C 998 -237 896 -525 474 -794 
L 531 -916 
C 723 -852 1248 -429 1248 25 
z
" transform="scale(0.015625)"/>
       <path id="NimbusRomNo9L-ReguItal-72" d="M 774 0 
C 1107 1085 1216 1360 1510 1845 
C 1722 2202 1901 2400 2010 2400 
C 2048 2400 2080 2375 2112 2311 
C 2163 2202 2214 2170 2342 2170 
C 2528 2170 2637 2285 2637 2483 
C 2637 2681 2515 2816 2336 2816 
C 2189 2816 2016 2719 1850 2547 
C 1587 2279 1331 1902 1229 1647 
L 1139 1417 
L 1478 2803 
L 1459 2816 
C 992 2732 934 2719 467 2643 
L 467 2534 
C 621 2566 640 2566 685 2566 
C 826 2566 909 2502 909 2387 
C 909 2298 909 2298 806 1864 
L 288 0 
L 774 0 
z
" transform="scale(0.015625)"/>
      </defs>
      <use xlink:href="#NimbusRomNo9L-ReguItal-76" transform="scale(0.996264)"/>
      <use xlink:href="#rtxmi-3b" transform="translate(44.234146 0) scale(0.996264)"/>
      <use xlink:href="#NimbusRomNo9L-ReguItal-76" transform="translate(85.745106 0) scale(0.996264)"/>
      <use xlink:href="#NimbusRomNo9L-ReguItal-72" transform="translate(129.979253 -14.943915) scale(0.697382)"/>
     </g>
    </g>
   </g>
   <g id="patch_3">
    <path d="M 35.681065 143.214898 
L 35.681065 10.158898 
" style="fill: none; stroke: #000000; stroke-width: 0.625; stroke-linejoin: miter; stroke-linecap: square"/>
   </g>
   <g id="patch_4">
    <path d="M 303.521065 143.214898 
L 303.521065 10.158898 
" style="fill: none; stroke: #000000; stroke-width: 0.625; stroke-linejoin: miter; stroke-linecap: square"/>
   </g>
   <g id="patch_5">
    <path d="M 35.681065 143.214898 
L 303.521065 143.214898 
" style="fill: none; stroke: #000000; stroke-width: 0.625; stroke-linejoin: miter; stroke-linecap: square"/>
   </g>
   <g id="patch_6">
    <path d="M 35.681065 10.158898 
L 303.521065 10.158898 
" style="fill: none; stroke: #000000; stroke-width: 0.625; stroke-linejoin: miter; stroke-linecap: square"/>
   </g>
   <g id="legend_1">
    <g id="patch_7">
     <path d="M 307.921065 42.10627 
L 406.531792 42.10627 
L 406.531792 14.558898 
L 307.921065 14.558898 
z
" style="fill: #ffffff; stroke: #000000; stroke-width: 0.5; stroke-linejoin: miter"/>
    </g>
    <g id="line2d_15">
     <path d="M 311.441065 21.158898 
L 320.241065 21.158898 
L 329.041065 21.158898 
" style="fill: none; stroke: #0173b2; stroke-width: 1.2; stroke-linecap: square"/>
    </g>
    <g id="text_17">
     <!-- $v(t=30.0$$)= 2.15$ -->
     <g transform="translate(336.081065 24.238898) scale(0.088 -0.088)">
      <defs>
       <path id="NimbusRomNo9L-Regu-28" d="M 1888 4352 
C 1414 4044 1222 3878 986 3583 
C 531 3027 307 2387 307 1638 
C 307 825 544 198 1107 -455 
C 1370 -762 1536 -903 1869 -1108 
L 1946 -1006 
C 1434 -602 1254 -378 1082 102 
C 928 530 858 1017 858 1657 
C 858 2329 941 2854 1114 3251 
C 1293 3647 1485 3878 1946 4249 
L 1888 4352 
z
" transform="scale(0.015625)"/>
       <path id="rtxr-3d" d="M 3674 2112 
L 3674 2470 
L 397 2470 
L 397 2112 
L 3674 2112 
z
M 3674 832 
L 3674 1190 
L 397 1190 
L 397 832 
L 3674 832 
z
" transform="scale(0.015625)"/>
       <path id="NimbusRomNo9L-Regu-29" d="M 243 -1108 
C 717 -801 909 -634 1146 -340 
C 1600 217 1824 857 1824 1606 
C 1824 2425 1587 3046 1024 3699 
C 762 4006 595 4147 262 4352 
L 186 4249 
C 698 3846 870 3622 1050 3142 
C 1203 2713 1274 2227 1274 1587 
C 1274 921 1190 390 1018 -1 
C 838 -404 646 -634 186 -1006 
L 243 -1108 
z
" transform="scale(0.015625)"/>
       <path id="NimbusRomNo9L-Regu-31" d="M 1862 4352 
L 710 3776 
L 710 3686 
C 787 3718 858 3743 883 3756 
C 998 3801 1107 3826 1171 3826 
C 1306 3826 1363 3731 1363 3525 
L 1363 599 
C 1363 386 1312 238 1210 179 
C 1114 121 1024 102 755 96 
L 755 0 
L 2522 0 
L 2522 96 
C 2016 102 1914 167 1914 477 
L 1914 4339 
L 1862 4352 
z
" transform="scale(0.015625)"/>
      </defs>
      <use xlink:href="#NimbusRomNo9L-ReguItal-76" transform="scale(0.996264)"/>
      <use xlink:href="#NimbusRomNo9L-Regu-28" transform="translate(44.234146 0) scale(0.996264)"/>
      <use xlink:href="#NimbusRomNo9L-ReguItal-74" transform="translate(77.409756 0) scale(0.996264)"/>
      <use xlink:href="#rtxr-3d" transform="translate(134.573049 0) scale(0.996264)"/>
      <use xlink:href="#NimbusRomNo9L-Regu-33" transform="translate(225.609333 0) scale(0.996264)"/>
      <use xlink:href="#NimbusRomNo9L-Regu-30" transform="translate(275.422534 0) scale(0.996264)"/>
      <use xlink:href="#rtxmi-3a" transform="translate(325.235734 0) scale(0.996264)"/>
      <use xlink:href="#NimbusRomNo9L-Regu-30" transform="translate(350.142334 0) scale(0.996264)"/>
      <use xlink:href="#NimbusRomNo9L-Regu-29" transform="translate(399.955535 0) scale(0.996264)"/>
      <use xlink:href="#rtxr-3d" transform="translate(460.805077 0) scale(0.996264)"/>
      <use xlink:href="#NimbusRomNo9L-Regu-32" transform="translate(551.841361 0) scale(0.996264)"/>
      <use xlink:href="#rtxmi-3a" transform="translate(601.654562 0) scale(0.996264)"/>
      <use xlink:href="#NimbusRomNo9L-Regu-31" transform="translate(626.561162 0) scale(0.996264)"/>
      <use xlink:href="#NimbusRomNo9L-Regu-35" transform="translate(676.374363 0) scale(0.996264)"/>
     </g>
    </g>
    <g id="line2d_16">
     <path d="M 311.441065 33.612584 
L 320.241065 33.612584 
L 329.041065 33.612584 
" style="fill: none; stroke: #de8f05; stroke-opacity: 0.7; stroke-width: 1.8; stroke-linecap: square"/>
    </g>
    <g id="text_18">
     <!-- $v_r(t=30.0$$)= 0.01$ -->
     <g transform="translate(336.081065 36.692584) scale(0.088 -0.088)">
      <use xlink:href="#NimbusRomNo9L-ReguItal-76" transform="scale(0.996264)"/>
      <use xlink:href="#NimbusRomNo9L-ReguItal-72" transform="translate(44.234146 -14.943915) scale(0.697382)"/>
      <use xlink:href="#NimbusRomNo9L-Regu-28" transform="translate(73.464377 0) scale(0.996264)"/>
      <use xlink:href="#NimbusRomNo9L-ReguItal-74" transform="translate(106.639987 0) scale(0.996264)"/>
      <use xlink:href="#rtxr-3d" transform="translate(163.803279 0) scale(0.996264)"/>
      <use xlink:href="#NimbusRomNo9L-Regu-33" transform="translate(254.839563 0) scale(0.996264)"/>
      <use xlink:href="#NimbusRomNo9L-Regu-30" transform="translate(304.652764 0) scale(0.996264)"/>
      <use xlink:href="#rtxmi-3a" transform="translate(354.465964 0) scale(0.996264)"/>
      <use xlink:href="#NimbusRomNo9L-Regu-30" transform="translate(379.372565 0) scale(0.996264)"/>
      <use xlink:href="#NimbusRomNo9L-Regu-29" transform="translate(429.185765 0) scale(0.996264)"/>
      <use xlink:href="#rtxr-3d" transform="translate(490.035308 0) scale(0.996264)"/>
      <use xlink:href="#NimbusRomNo9L-Regu-30" transform="translate(581.071592 0) scale(0.996264)"/>
      <use xlink:href="#rtxmi-3a" transform="translate(630.884792 0) scale(0.996264)"/>
      <use xlink:href="#NimbusRomNo9L-Regu-30" transform="translate(655.791393 0) scale(0.996264)"/>
      <use xlink:href="#NimbusRomNo9L-Regu-31" transform="translate(705.604593 0) scale(0.996264)"/>
     </g>
    </g>
   </g>
   <g id="line2d_17">
    <path d="M 35.681065 40.876308 
L 35.804807 41.403616 
L 36.004482 43.411913 
L 36.307141 49.078309 
L 37.765932 80.354398 
L 38.117874 82.415836 
L 38.419194 83.075611 
L 38.680873 83.194326 
L 39.021432 83.069761 
L 39.73094 82.803665 
L 40.09172 82.926664 
L 40.462143 83.307245 
L 40.888544 84.094216 
L 41.382575 85.511998 
L 41.941022 87.84122 
L 42.57299 91.504335 
L 43.444809 98.067516 
L 44.181102 102.998883 
L 44.487644 103.853092 
L 44.630671 103.845916 
L 44.636028 103.839979 
L 44.786152 103.49839 
L 45.011941 102.329049 
L 45.343661 99.255236 
L 45.968264 90.878593 
L 46.665184 82.704764 
L 47.120244 79.716787 
L 47.500175 78.502308 
L 47.818637 78.116384 
L 48.097592 78.093571 
L 48.432526 78.314679 
L 48.948788 78.959945 
L 49.711328 80.29296 
L 50.437978 82.006793 
L 51.075169 84.102737 
L 51.6833 86.911184 
L 52.306832 90.913066 
L 53.044195 97.242207 
L 54.037078 105.591236 
L 54.314828 106.408471 
L 54.429999 106.364784 
L 54.43549 106.35642 
L 54.579722 105.92153 
L 54.801627 104.417079 
L 55.131874 100.411608 
L 55.882629 87.610076 
L 56.447504 80.22167 
L 56.870156 77.262917 
L 57.228659 76.106663 
L 57.532792 75.759876 
L 57.812551 75.752322 
L 58.194624 75.998434 
L 59.328257 77.127376 
L 61.059173 78.962871 
L 61.698507 80.055177 
L 62.271283 81.495767 
L 62.819685 83.512064 
L 63.362999 86.411083 
L 63.91957 90.672176 
L 64.533192 97.234914 
L 65.838242 111.885063 
L 65.962386 112.072731 
L 66.001357 112.037225 
L 66.112912 111.665151 
L 66.297052 110.12126 
L 66.575606 105.594038 
L 67.077136 92.994526 
L 67.746602 77.894642 
L 68.158406 73.10822 
L 68.506866 71.281883 
L 68.805106 70.710342 
L 69.068393 70.620829 
L 69.437878 70.7727 
L 70.101184 71.021224 
L 70.471071 70.910612 
L 70.845913 70.548617 
L 71.273653 69.797821 
L 71.765408 68.448192 
L 72.315685 66.240424 
L 72.926092 62.80446 
L 73.674839 57.182342 
L 74.697854 49.650426 
L 74.99154 48.845307 
L 75.12613 48.873088 
L 75.129344 48.877177 
L 75.278933 49.253301 
L 75.505391 50.534734 
L 75.839522 53.903645 
L 76.50805 63.535081 
L 77.152607 71.319117 
L 77.598293 74.302012 
L 77.972198 75.502442 
L 78.286642 75.878385 
L 78.565329 75.897292 
L 78.909504 75.67066 
L 79.471298 74.99264 
L 80.350483 73.563201 
L 81.0924 71.944343 
L 81.72102 70.015965 
L 82.314688 67.436908 
L 82.912774 63.782504 
L 83.570589 58.271168 
L 84.96309 46.058931 
L 85.143078 45.79536 
L 85.160756 45.804241 
L 85.272311 46.015936 
L 85.450558 46.940357 
L 85.717729 49.69537 
L 86.142657 56.788561 
L 87.11197 73.220717 
L 87.539443 76.788347 
L 87.901428 78.197707 
L 88.210114 78.645131 
L 88.487194 78.696821 
L 88.853064 78.506482 
L 90.446176 77.471938 
L 91.144435 77.384447 
L 91.888093 77.517391 
L 92.615546 77.87243 
L 93.267201 78.439655 
L 93.853771 79.254137 
L 94.401771 80.413932 
L 94.930086 82.082938 
L 95.451034 84.512892 
L 95.975465 88.092358 
L 96.522394 93.474707 
L 97.162666 102.209065 
L 98.068501 114.37933 
L 98.272863 115.079502 
L 98.284916 115.074921 
L 98.366205 114.894954 
L 98.510571 113.895797 
L 98.736628 110.499708 
L 99.092721 101.20878 
L 100.07114 74.419061 
L 100.453884 70.001171 
L 100.779979 68.419976 
L 101.055185 67.989177 
L 101.302267 67.967648 
L 101.765764 68.230419 
L 102.224708 68.369432 
L 102.557633 68.236835 
L 102.909977 67.834063 
L 103.329548 66.981962 
L 103.836703 65.402259 
L 104.451262 62.697133 
L 105.327768 57.684132 
L 106.149903 53.400528 
L 106.490997 52.593151 
L 106.676209 52.564491 
L 106.841734 52.822405 
L 107.078504 53.680148 
L 107.420134 55.880012 
L 108.011525 61.438188 
L 108.843838 68.722143 
L 109.324343 71.13026 
L 109.717934 72.115151 
L 110.040815 72.411995 
L 110.323386 72.391363 
L 110.655909 72.119119 
L 111.112577 71.424463 
L 111.706914 70.084699 
L 112.364461 68.029274 
L 113.038212 65.154642 
L 113.775442 60.959299 
L 115.338154 51.675951 
L 115.590594 51.324715 
L 115.72987 51.427332 
L 115.913609 51.918211 
L 116.18185 53.374628 
L 116.582003 56.966136 
L 118.024054 71.065036 
L 118.449786 72.801974 
L 118.804406 73.447247 
L 119.098226 73.585243 
L 119.390172 73.470936 
L 119.780415 73.047753 
L 120.334844 72.084729 
L 121.002569 70.4599 
L 121.664535 68.243021 
L 122.315386 65.2433 
L 123.011369 60.908075 
L 124.684163 49.866208 
L 124.877544 49.710686 
L 124.882901 49.71352 
L 125.016151 49.91669 
L 125.21529 50.714513 
L 125.50737 52.949501 
L 125.971536 58.517361 
L 126.979284 70.706687 
L 127.432068 73.556863 
L 127.810258 74.710235 
L 128.126711 75.069826 
L 128.405666 75.080411 
L 128.744484 74.844397 
L 129.26262 74.174965 
L 130.006144 72.828308 
L 130.720741 71.074801 
L 131.357263 68.898802 
L 131.969947 65.966549 
L 132.605799 61.759818 
L 133.406373 54.783644 
L 134.216589 48.236893 
L 134.507999 47.318499 
L 134.62076 47.328645 
L 134.638169 47.350791 
L 134.780526 47.749582 
L 134.999619 49.147987 
L 135.324643 52.887535 
L 135.982592 63.769711 
L 136.605856 72.314956 
L 137.041364 75.572142 
L 137.40884 76.871243 
L 137.720472 77.281814 
L 137.998758 77.317284 
L 138.353512 77.109176 
L 139.083242 76.35618 
L 140.876966 74.193368 
L 141.538397 72.977703 
L 142.121485 71.41778 
L 142.678458 69.255617 
L 143.231949 66.158496 
L 143.805261 61.596102 
L 144.466156 54.377135 
L 145.503367 43.005856 
L 145.731298 42.376959 
L 145.731968 42.377088 
L 145.820891 42.508491 
L 145.966998 43.243981 
L 146.194126 45.731136 
L 146.542452 52.40145 
L 147.732867 77.192418 
L 148.119762 80.320783 
L 148.451348 81.4608 
L 148.734856 81.770503 
L 149.014615 81.761056 
L 150.340021 81.409152 
L 150.72772 81.711039 
L 151.159076 82.35271 
L 151.646545 83.507997 
L 152.181689 85.38876 
L 152.756206 88.27599 
L 153.387773 92.676725 
L 154.319722 101.046985 
L 154.91138 105.389496 
L 155.181497 106.11448 
L 155.299615 106.051112 
L 155.44773 105.597502 
L 155.674323 104.057493 
L 156.011667 99.994298 
L 157.603976 78.252632 
L 157.984041 76.64583 
L 158.30719 76.099425 
L 158.587083 76.006667 
L 158.911705 76.154136 
L 159.500551 76.719029 
L 161.498236 79.048995 
L 162.17038 80.231085 
L 162.756548 81.733676 
L 163.313789 83.80913 
L 163.865673 86.776784 
L 164.433628 91.132656 
L 165.072694 97.911064 
L 166.245834 110.705413 
L 166.430509 111.117167 
L 166.44899 111.108227 
L 166.546082 110.896597 
L 166.709197 109.882133 
L 166.958288 106.692377 
L 167.354691 98.249564 
L 168.296417 77.751055 
L 168.703801 73.603291 
L 169.050252 72.024291 
L 169.346751 71.540641 
L 169.614859 71.479808 
L 170.019431 71.664528 
L 170.673497 71.918522 
L 171.063204 71.824959 
L 171.451974 71.487857 
L 171.888285 70.789796 
L 172.381378 69.548246 
L 172.922147 67.541615 
L 173.504298 64.467921 
L 174.154881 59.741452 
L 175.733128 47.573871 
L 175.887002 47.443769 
L 175.91017 47.459604 
L 176.036859 47.721868 
L 176.233989 48.74738 
L 176.525935 51.634163 
L 177.010055 59.054367 
L 177.865402 71.743305 
L 178.310419 75.252548 
L 178.684055 76.669033 
L 179.001044 77.132357 
L 179.279464 77.190417 
L 179.618951 77.008374 
L 180.256946 76.357662 
L 181.92974 74.289376 
L 182.624116 73.048715 
L 183.21872 71.509151 
L 183.781318 69.40004 
L 184.338158 66.395104 
L 184.912808 61.987765 
L 185.568481 55.075436 
L 186.667428 43.324901 
L 186.884379 42.776781 
L 186.889468 42.778152 
L 186.981203 42.926623 
L 187.132934 43.715138 
L 187.367026 46.315275 
L 187.728075 53.225027 
L 188.860234 76.463667 
L 189.254897 79.806531 
L 189.592509 81.04831 
L 189.88124 81.401708 
L 190.157384 81.411972 
L 190.67177 81.138384 
L 191.229681 80.949884 
L 191.629566 81.048622 
L 192.031058 81.391201 
L 192.478351 82.089055 
L 192.977739 83.311368 
L 193.517838 85.261601 
L 194.090882 88.21991 
L 194.715217 92.700579 
L 195.592259 100.88651 
L 196.228915 105.938504 
L 196.503317 106.749782 
L 196.617283 106.698911 
L 196.620898 106.693123 
L 196.764595 106.244697 
L 196.986232 104.690945 
L 197.316479 100.549429 
L 198.122811 86.467219 
L 198.660232 79.606966 
L 199.074179 76.821736 
L 199.426522 75.750069 
L 199.7257 75.441153 
L 200.007869 75.450871 
L 200.414986 75.725155 
L 204.098054 79.085759 
L 204.685427 80.178114 
L 205.234901 81.694711 
L 205.769509 83.863011 
L 206.303314 87.018363 
L 206.85386 91.701923 
L 207.4719 99.040438 
L 208.618657 113.071224 
L 208.775745 113.430999 
L 208.805208 113.409834 
L 208.904443 113.11238 
L 209.07345 111.752294 
L 209.33138 107.564832 
L 209.765146 96.183343 
L 210.527687 77.000338 
L 210.932661 71.965699 
L 211.275496 70.07438 
L 211.567977 69.497363 
L 211.824032 69.413497 
L 212.191911 69.574134 
L 212.795086 69.796478 
L 213.146225 69.680524 
L 213.506068 69.307516 
L 213.9243 68.522266 
L 214.416188 67.084299 
L 214.984143 64.682964 
L 215.65227 60.81012 
L 217.285692 50.799736 
L 217.50224 50.597869 
L 217.638035 50.764102 
L 217.834362 51.437831 
L 218.121085 53.343551 
L 218.564762 58.034356 
L 219.704957 70.53888 
L 220.154392 72.988629 
L 220.529234 73.966172 
L 220.840464 74.250266 
L 221.120625 74.223566 
L 221.469353 73.938903 
L 221.982266 73.197742 
L 222.663919 71.799653 
L 223.346108 69.882703 
L 223.986781 67.388124 
L 224.626517 63.947727 
L 225.342319 58.775153 
L 226.635852 49.196172 
L 226.892309 48.671888 
L 227.013105 48.758074 
L 227.174345 49.24681 
L 227.416606 50.814842 
L 227.777654 54.837691 
L 229.283183 73.517003 
L 229.682131 75.294166 
L 230.019609 75.931224 
L 230.305394 76.062473 
L 230.607652 75.945576 
L 231.062712 75.493562 
L 231.871187 74.333147 
L 232.713142 72.760524 
L 233.373368 71.041814 
L 233.973195 68.827648 
L 234.560836 65.755807 
L 235.173922 61.282755 
L 235.935525 53.885917 
L 236.75458 46.431799 
L 237.030857 45.514528 
L 237.128484 45.54216 
L 237.145224 45.567725 
L 237.283698 46.02555 
L 237.499577 47.649191 
L 237.822324 52.036026 
L 238.579508 66.535395 
L 239.121884 74.297731 
L 239.533955 77.394164 
L 239.88496 78.58497 
L 240.184405 78.93811 
L 240.464164 78.949513 
L 240.876771 78.70289 
L 242.034242 77.950962 
L 242.639962 77.858778 
L 243.245146 77.993154 
L 243.856491 78.360936 
L 244.450292 78.984811 
L 245.01664 79.915641 
L 245.561828 81.262051 
L 246.095366 83.207637 
L 246.627028 86.041644 
L 247.170342 90.228184 
L 247.759322 96.637651 
L 249.197087 113.359066 
L 249.260967 113.381619 
L 249.304223 113.318266 
L 249.42609 112.776121 
L 249.623756 110.689757 
L 249.924005 104.767225 
L 251.357216 72.408319 
L 251.706882 70.253853 
L 252.005791 69.570246 
L 252.263453 69.448454 
L 252.595976 69.572203 
L 253.284995 69.833693 
L 253.635196 69.708206 
L 253.997315 69.321568 
L 254.418762 68.514498 
L 254.913864 67.044141 
L 255.484497 64.598185 
L 256.156641 60.654655 
L 257.753504 50.778517 
L 257.976748 50.542965 
L 258.110802 50.694721 
L 258.302843 51.330196 
L 258.583808 53.153146 
L 259.01436 57.644691 
L 260.213882 70.789327 
L 260.657559 73.123893 
L 261.028115 74.045603 
L 261.33573 74.304515 
L 261.616828 74.264856 
L 261.973189 73.960941 
L 262.499762 73.184003 
L 263.189718 71.749192 
L 263.869764 69.811256 
L 264.508294 67.288145 
L 265.147628 63.798861 
L 265.867582 58.525275 
L 267.120672 49.166464 
L 267.382753 48.595865 
L 267.50462 48.673256 
L 267.663048 49.140994 
L 267.901693 50.661001 
L 268.256581 54.580802 
L 269.806705 73.76437 
L 270.200564 75.435677 
L 270.533623 76.0232 
L 270.817132 76.133547 
L 271.125549 76.000169 
L 271.600698 75.51359 
L 272.453902 74.278736 
L 273.283268 72.71511 
L 273.935861 70.993789 
L 274.532206 68.760233 
L 275.118106 65.650578 
L 275.73079 61.111276 
L 276.499357 53.542458 
L 277.292565 46.288688 
L 277.568307 45.366034 
L 277.664729 45.393989 
L 277.681737 45.420202 
L 277.819942 45.882558 
L 278.035554 47.524383 
L 278.358033 51.963941 
L 279.131153 66.919 
L 279.665226 74.524802 
L 280.074486 77.569414 
L 280.423481 78.734381 
L 280.721185 79.075749 
L 281.001614 79.082108 
L 281.425203 78.826395 
L 282.489331 78.151671 
L 283.067732 78.073943 
L 283.63649 78.223691 
L 284.214622 78.611928 
L 284.788336 79.27449 
L 285.34638 80.27413 
L 285.889962 81.72908 
L 286.425642 83.836978 
L 286.962661 86.912118 
L 287.51709 91.471872 
L 288.139148 98.598665 
L 289.306395 112.398576 
L 289.466831 112.752942 
L 289.49482 112.733951 
L 289.594457 112.452606 
L 289.763464 111.165078 
L 290.020992 107.204484 
L 290.449268 96.524209 
L 291.241271 77.359473 
L 291.648656 72.502056 
L 291.993633 70.665653 
L 292.288391 70.100062 
L 292.548196 70.016179 
L 292.921565 70.175447 
L 293.541883 70.401867 
L 293.901592 70.287517 
L 294.268131 69.918702 
L 294.690514 69.14807 
L 295.181733 67.749659 
L 295.739912 65.43848 
L 296.375496 61.785455 
L 297.279054 55.077051 
L 297.976108 50.576534 
L 298.280508 49.762057 
L 298.428088 49.778476 
L 298.428891 49.779394 
L 298.581158 50.123436 
L 298.809358 51.2902 
L 299.144292 54.340877 
L 299.782019 62.706227 
L 300.472109 70.565837 
L 300.927838 73.477592 
L 301.308037 74.660376 
L 301.626097 75.033292 
L 301.905053 75.050094 
L 302.240388 74.822029 
L 302.750624 74.168914 
L 303.486782 72.841488 
L 303.521065 72.769556 
L 303.521065 72.769556 
" style="fill: none; stroke: #0173b2; stroke-width: 1.2; stroke-linecap: square"/>
   </g>
   <g id="line2d_18">
    <path d="M 35.681065 76.520578 
L 37.021872 13.16683 
L 37.105304 12.647457 
L 37.157399 12.871766 
L 37.262259 14.74067 
L 37.442649 22.703022 
L 37.747049 47.954356 
L 38.417988 103.203524 
L 38.721853 112.06919 
L 38.929563 113.476598 
L 38.9305 113.476504 
L 38.993443 113.356325 
L 39.123479 112.464684 
L 39.361455 109.010078 
L 39.77741 99.17467 
L 40.700521 77.132563 
L 41.051123 73.590052 
L 41.279323 72.954016 
L 41.383513 73.046918 
L 41.545154 73.60442 
L 41.816208 75.478353 
L 42.262698 80.359563 
L 43.135856 92.844187 
L 44.17695 106.894138 
L 44.507599 108.896325 
L 44.620493 109.016339 
L 44.660535 108.978684 
L 44.780126 108.60223 
L 44.975783 107.106235 
L 45.275764 102.810878 
L 45.976165 88.378832 
L 46.479169 80.779257 
L 46.840083 78.194616 
L 47.117565 77.500507 
L 47.311482 77.466006 
L 47.530441 77.706269 
L 47.994206 78.638985 
L 48.765183 80.0521 
L 49.495047 80.874327 
L 50.192904 81.75222 
L 50.692694 82.780435 
L 51.19851 84.369133 
L 51.737939 86.851203 
L 52.327857 90.691897 
L 53.041249 96.954528 
L 54.068147 105.865965 
L 54.338666 106.64774 
L 54.453837 106.585801 
L 54.598337 106.125897 
L 54.821313 104.539104 
L 55.154506 100.313807 
L 56.710925 77.945366 
L 57.084428 76.305578 
L 57.399541 75.766243 
L 57.669792 75.685009 
L 57.989459 75.845576 
L 58.637766 76.488032 
L 60.204362 77.999614 
L 61.073636 78.987622 
L 61.701453 80.054197 
L 62.270212 81.480933 
L 62.817275 83.489068 
L 63.360187 86.38211 
L 63.916624 90.637115 
L 64.52971 97.188133 
L 65.840787 111.903102 
L 65.962654 112.083188 
L 66.00216 112.046669 
L 66.114251 111.668965 
L 66.299061 110.107927 
L 66.578552 105.539894 
L 67.084904 92.780768 
L 67.74754 77.869383 
L 68.158942 73.096016 
L 68.507 71.276855 
L 68.804838 70.708918 
L 69.067723 70.621253 
L 69.437878 70.775304 
L 70.098773 71.025007 
L 70.468526 70.915602 
L 70.842967 70.55517 
L 71.270305 69.806778 
L 71.761926 68.460177 
L 72.312069 66.257051 
L 72.922342 62.827766 
L 73.669616 57.224156 
L 74.699059 49.644387 
L 74.992076 48.844608 
L 75.126933 48.874015 
L 75.129478 48.877275 
L 75.2792 49.254452 
L 75.505793 50.53825 
L 75.840057 53.9112 
L 76.510327 63.569695 
L 77.153545 71.328471 
L 77.598963 74.305515 
L 77.972733 75.503458 
L 78.287044 75.878248 
L 78.565731 75.896639 
L 78.910173 75.669398 
L 79.472771 74.989961 
L 80.352358 73.559392 
L 81.093739 71.940822 
L 81.722226 70.011644 
L 82.315893 67.43084 
L 82.91398 63.774004 
L 83.572063 58.257164 
L 84.962286 46.060682 
L 85.143078 45.794477 
L 85.160354 45.803077 
L 85.271775 46.013344 
L 85.449621 46.932674 
L 85.71639 49.677068 
L 86.140112 56.740227 
L 87.113577 73.240898 
L 87.540782 76.79747 
L 87.9025 78.201079 
L 88.210917 78.645867 
L 88.487864 78.696402 
L 88.854537 78.504678 
L 90.439078 77.473405 
L 91.136936 77.383996 
L 91.880593 77.514972 
L 92.60885 77.868123 
L 93.261308 78.433303 
L 93.848414 79.245097 
L 94.396682 80.400922 
L 94.925131 82.06407 
L 95.446079 84.485091 
L 95.97051 88.051876 
L 96.517038 93.412458 
L 97.1553 102.096321 
L 98.070777 114.395498 
L 98.272863 115.080859 
L 98.285853 115.075707 
L 98.367678 114.890702 
L 98.512981 113.872991 
L 98.740244 110.428944 
L 99.099015 101.014127 
L 100.064712 74.520653 
L 100.448527 70.038127 
L 100.775292 68.431199 
L 101.051033 67.991039 
L 101.29758 67.966271 
L 101.747685 68.220902 
L 102.216405 68.371512 
L 102.549732 68.2443 
L 102.90087 67.849424 
L 103.318567 67.01047 
L 103.823579 65.451082 
L 104.435192 62.777978 
L 105.296297 57.873441 
L 106.147225 53.409342 
L 106.48939 52.594215 
L 106.675271 52.563418 
L 106.840529 52.819298 
L 107.076764 53.671807 
L 107.41759 55.860407 
L 108.005499 61.37827 
L 108.843302 68.719446 
L 109.323941 71.129192 
L 109.717532 72.114512 
L 110.040413 72.411605 
L 110.322984 72.391152 
L 110.655508 72.119104 
L 111.112041 71.424986 
L 111.706244 70.086131 
L 112.363791 68.031568 
L 113.037409 65.158616 
L 113.774371 60.966223 
L 115.338824 51.67382 
L 115.590995 51.32424 
L 115.730272 51.427487 
L 115.914278 51.920301 
L 116.182788 53.380863 
L 116.583476 56.981808 
L 118.021509 71.051871 
L 118.447643 72.796718 
L 118.802531 73.44558 
L 119.096619 73.585191 
L 119.388297 73.47201 
L 119.77787 73.050811 
L 120.331629 72.090782 
L 120.999221 70.469015 
L 121.661187 68.255952 
L 122.311904 65.261946 
L 123.007217 60.93752 
L 124.68711 49.859802 
L 124.878213 49.71048 
L 124.88424 49.713751 
L 125.018026 49.920842 
L 125.218102 50.729545 
L 125.511521 52.989388 
L 125.97917 58.621573 
L 126.974731 70.669844 
L 127.428318 73.54144 
L 127.807044 74.704664 
L 128.123899 75.06857 
L 128.40272 75.081229 
L 128.740466 74.847894 
L 129.256594 74.183568 
L 129.999314 72.842048 
L 130.714849 71.091508 
L 131.351772 68.920859 
L 131.964456 65.997444 
L 132.599773 61.805968 
L 133.396195 54.879038 
L 134.216723 48.235694 
L 134.508133 47.317669 
L 134.620893 47.328033 
L 134.638169 47.350024 
L 134.780526 47.74879 
L 134.999619 49.147267 
L 135.324643 52.88722 
L 135.982592 63.770876 
L 136.605856 72.316718 
L 137.04123 75.572797 
L 137.408572 76.871375 
L 137.72007 77.281746 
L 137.998222 77.317183 
L 138.352976 77.10901 
L 139.083108 76.355493 
L 140.878172 74.191398 
L 141.539335 72.975691 
L 142.122288 71.415348 
L 142.679128 69.252689 
L 143.232619 66.154221 
L 143.805931 61.589989 
L 144.467094 54.365597 
L 145.502965 43.007094 
L 145.731298 42.375785 
L 145.731834 42.375887 
L 145.820623 42.506518 
L 145.966596 43.239786 
L 146.19359 45.722302 
L 146.541514 52.379769 
L 147.734206 77.210298 
L 148.120833 80.328266 
L 148.452151 81.463332 
L 148.735392 81.770908 
L 149.015151 81.760434 
L 150.336405 81.40632 
L 150.723836 81.705839 
L 151.154791 82.344059 
L 151.641858 83.494279 
L 152.176734 85.368092 
L 152.750849 88.244647 
L 153.381612 92.627801 
L 154.300705 100.874943 
L 154.90589 105.364451 
L 155.178819 106.113573 
L 155.298275 106.053804 
L 155.445587 105.607609 
L 155.671109 104.086737 
L 156.006712 100.066669 
L 157.614957 78.186113 
L 157.993415 76.620518 
L 158.314957 76.092866 
L 158.594314 76.007835 
L 158.922284 76.162495 
L 159.526264 76.747758 
L 161.520734 79.082224 
L 162.188459 80.269534 
L 162.773154 81.784942 
L 163.329993 83.881584 
L 163.882012 86.881761 
L 164.450904 91.289235 
L 165.094389 98.173364 
L 166.234986 110.656167 
L 166.430108 111.118426 
L 166.444437 111.112518 
L 166.538717 110.923845 
L 166.697412 109.985266 
L 166.940611 106.98276 
L 167.323086 99.02426 
L 168.323067 77.382019 
L 168.725898 73.455695 
L 169.069269 71.973033 
L 169.362822 71.528938 
L 169.631733 71.483401 
L 170.062018 71.690396 
L 170.675773 71.919902 
L 171.065079 71.825096 
L 171.453982 71.486342 
L 171.890562 70.785773 
L 172.384057 69.540267 
L 172.925094 67.528488 
L 173.507512 64.447684 
L 174.158631 59.709882 
L 175.730584 47.578717 
L 175.886467 47.442978 
L 175.909233 47.458244 
L 176.035386 47.71659 
L 176.231712 48.730831 
L 176.522453 51.590889 
L 177.002824 58.931945 
L 177.867009 71.761764 
L 178.311624 75.260177 
L 178.684993 76.671737 
L 179.001714 77.13283 
L 179.280133 77.189942 
L 179.620022 77.006893 
L 180.260428 76.352924 
L 181.933356 74.283792 
L 182.626794 73.042999 
L 183.221131 71.501791 
L 183.783595 69.389998 
L 184.340434 66.380658 
L 184.915219 61.966173 
L 185.571561 55.038753 
L 186.666089 43.330717 
L 186.884245 42.775622 
L 186.888932 42.776839 
L 186.980399 42.923094 
L 187.131595 43.70391 
L 187.365018 46.284964 
L 187.724727 53.148866 
L 188.86452 76.516715 
L 189.258379 79.827587 
L 189.595455 81.055532 
L 189.883651 81.403085 
L 190.160062 81.410759 
L 190.683555 81.130651 
L 191.234234 80.948534 
L 191.633584 81.049737 
L 192.035478 81.395623 
L 192.48344 82.098583 
L 192.983363 83.327954 
L 193.523864 85.287721 
L 194.097444 88.260167 
L 194.722716 92.763121 
L 195.611543 101.072181 
L 196.233468 105.96186 
L 196.505593 106.751784 
L 196.62197 106.691928 
L 196.766336 106.237115 
L 196.988777 104.667379 
L 197.320363 100.489588 
L 198.912939 77.674917 
L 199.288585 76.057741 
L 199.608654 75.512809 
L 199.887475 75.420956 
L 200.218257 75.568854 
L 200.908749 76.192149 
L 202.135858 77.214787 
L 203.544161 78.376911 
L 204.203984 79.251965 
L 204.782251 80.404388 
L 205.327975 82.015256 
L 205.861512 84.326297 
L 206.396657 87.699041 
L 206.953228 92.730623 
L 207.599526 100.803266 
L 208.562813 112.771128 
L 208.774272 113.432622 
L 208.782843 113.429965 
L 208.866543 113.269559 
L 209.011712 112.37881 
L 209.238305 109.360682 
L 209.591318 101.174646 
L 210.645403 75.149685 
L 211.030423 71.245743 
L 211.35933 69.834277 
L 211.638553 69.445641 
L 211.89876 69.430451 
L 212.465777 69.721734 
L 212.893116 69.788403 
L 213.238362 69.61203 
L 213.610793 69.148369 
L 214.048176 68.214562 
L 214.560286 66.552545 
L 215.150204 63.824058 
L 215.865336 59.364191 
L 217.153781 51.169883 
L 217.434611 50.601503 
L 217.575763 50.657865 
L 217.741556 51.054125 
L 217.986495 52.317181 
L 218.346874 55.523933 
L 220.038953 72.508194 
L 220.432276 73.789685 
L 220.760112 74.213155 
L 221.040943 74.25259 
L 221.360208 74.051253 
L 221.820223 73.463655 
L 222.468664 72.245654 
L 223.163173 70.459086 
L 223.811881 68.151962 
L 224.446796 65.024715 
L 225.126842 60.472162 
L 226.768299 48.813209 
L 226.939181 48.677297 
L 226.954582 48.686772 
L 227.084886 48.9208 
L 227.283891 49.831533 
L 227.577176 52.381847 
L 228.053797 58.829414 
L 228.975167 71.124775 
L 229.425674 74.307159 
L 229.802792 75.596968 
L 230.120585 76.012044 
L 230.399272 76.048478 
L 230.735947 75.842851 
L 231.286358 75.203888 
L 232.194604 73.783641 
L 232.95326 72.201539 
L 233.584292 70.349472 
L 234.175816 67.885393 
L 234.767207 64.407972 
L 235.404666 59.228837 
L 236.980771 45.576483 
L 237.093397 45.507746 
L 237.128618 45.541405 
L 237.256512 45.899322 
L 237.458597 47.254297 
L 237.759783 51.024437 
L 238.308052 61.328713 
L 238.999213 72.923368 
L 239.432444 76.830695 
L 239.797912 78.384607 
L 240.110079 78.89153 
L 240.38649 78.967341 
L 240.738164 78.803984 
L 242.262977 77.887973 
L 242.863742 77.882283 
L 243.47348 78.101859 
L 244.081075 78.562046 
L 244.664698 79.292057 
L 245.222073 80.361681 
L 245.761771 81.905358 
L 246.293433 84.141522 
L 246.827372 87.412505 
L 247.381266 92.286661 
L 248.014841 100.023742 
L 249.053926 112.851098 
L 249.245164 113.389848 
L 249.262038 113.382015 
L 249.351095 113.17587 
L 249.505505 112.12162 
L 249.743882 108.692167 
L 250.123144 99.453285 
L 251.055495 76.102535 
L 251.450827 71.638873 
L 251.787234 69.988917 
L 252.073555 69.507217 
L 252.330279 69.4573 
L 252.752529 69.663379 
L 253.27937 69.835335 
L 253.629839 69.713301 
L 253.991155 69.331653 
L 254.41153 68.532527 
L 254.905561 67.073995 
L 255.475123 64.644988 
L 256.145124 60.730597 
L 257.761405 50.760051 
L 257.980632 50.543666 
L 258.115355 50.703667 
L 258.309673 51.361899 
L 258.593718 53.235952 
L 259.031368 57.851605 
L 260.195936 70.662556 
L 260.642694 73.069992 
L 261.015661 74.026771 
L 261.325418 74.301358 
L 261.605846 74.269835 
L 261.957788 73.977974 
L 262.47713 73.22289 
L 263.164273 71.810064 
L 263.846194 69.889457 
L 264.485528 67.393044 
L 265.123925 63.948329 
L 265.837584 58.770511 
L 267.135939 49.108217 
L 267.390521 48.593175 
L 267.510379 48.682169 
L 267.671887 49.179078 
L 267.914684 50.77091 
L 268.276803 54.852431 
L 269.766797 73.520833 
L 270.166682 75.339932 
L 270.505098 75.995404 
L 270.791553 76.134347 
L 271.092337 76.023218 
L 271.544451 75.581548 
L 272.361497 74.426707 
L 273.216978 72.859892 
L 273.878677 71.169997 
L 274.477835 68.998073 
L 275.063333 65.988324 
L 275.671196 61.61684 
L 276.405613 54.537881 
L 277.301538 46.237785 
L 277.572726 45.362058 
L 277.673166 45.405223 
L 277.683478 45.4223 
L 277.822755 45.895706 
L 278.039705 47.566155 
L 278.364327 52.070342 
L 279.922754 76.691982 
L 280.293311 78.419554 
L 280.610166 79.000093 
L 280.887246 79.105297 
L 281.222582 78.97042 
L 282.817703 78.078096 
L 283.385122 78.129669 
L 283.959907 78.409807 
L 284.537905 78.946662 
L 285.103449 79.787906 
L 285.652789 81.024034 
L 286.191014 82.814854 
L 286.726024 85.41656 
L 287.269873 89.240572 
L 287.850283 95.025178 
L 288.655811 105.673545 
L 289.228587 111.973215 
L 289.462545 112.754702 
L 289.54504 112.635876 
L 289.682442 111.914148 
L 289.899259 109.370021 
L 290.231514 102.410209 
L 291.442419 74.5212 
L 291.816859 71.401477 
L 292.137865 70.304221 
L 292.410928 70.02704 
L 292.688009 70.055611 
L 293.745843 70.366698 
L 294.100061 70.122375 
L 294.494456 69.554339 
L 294.954872 68.466025 
L 295.483723 66.599866 
L 296.080738 63.616573 
L 296.796674 58.798084 
L 298.033961 50.34422 
L 298.311042 49.740751 
L 298.445229 49.799637 
L 298.6058 50.211272 
L 298.845516 51.546355 
L 299.199333 54.971254 
L 300.864762 73.182498 
L 301.254737 74.549834 
L 301.58177 75.0071 
L 301.862332 75.061616 
L 302.181731 74.876096 
L 302.658219 74.305886 
L 303.370941 73.076869 
L 303.521065 72.769113 
L 303.521065 72.769113 
" style="fill: none; stroke: #de8f05; stroke-opacity: 0.7; stroke-width: 1.8; stroke-linecap: square"/>
   </g>
   <g id="PathCollection_1">
    <defs>
     <path id="m233395f87d" d="M 0 3.162278 
C 0.838646 3.162278 1.643056 2.82908 2.236068 2.236068 
C 2.82908 1.643056 3.162278 0.838646 3.162278 0 
C 3.162278 -0.838646 2.82908 -1.643056 2.236068 -2.236068 
C 1.643056 -2.82908 0.838646 -3.162278 0 -3.162278 
C -0.838646 -3.162278 -1.643056 -2.82908 -2.236068 -2.236068 
C -2.82908 -1.643056 -3.162278 -0.838646 -3.162278 0 
C -3.162278 0.838646 -2.82908 1.643056 -2.236068 2.236068 
C -1.643056 2.82908 -0.838646 3.162278 0 3.162278 
z
" style="stroke: #0173b2; stroke-width: 0.8"/>
    </defs>
    <g>
     <use xlink:href="#m233395f87d" x="35.681065" y="40.876308" style="fill: #0173b2; stroke: #0173b2; stroke-width: 0.8"/>
    </g>
   </g>
   <g id="PathCollection_2">
    <defs>
     <path id="m31b8183a8a" d="M 0 3.162278 
C 0.838646 3.162278 1.643056 2.82908 2.236068 2.236068 
C 2.82908 1.643056 3.162278 0.838646 3.162278 0 
C 3.162278 -0.838646 2.82908 -1.643056 2.236068 -2.236068 
C 1.643056 -2.82908 0.838646 -3.162278 0 -3.162278 
C -0.838646 -3.162278 -1.643056 -2.82908 -2.236068 -2.236068 
C -2.82908 -1.643056 -3.162278 -0.838646 -3.162278 0 
C -3.162278 0.838646 -2.82908 1.643056 -2.236068 2.236068 
C -1.643056 2.82908 -0.838646 3.162278 0 3.162278 
z
" style="stroke: #de8f05; stroke-width: 0.8"/>
    </defs>
    <g>
     <use xlink:href="#m31b8183a8a" x="35.681065" y="76.520578" style="fill: #de8f05; stroke: #de8f05; stroke-width: 0.8"/>
    </g>
   </g>
  </g>
 </g>
</svg>
