<?xml version="1.0" encoding="utf-8" standalone="no"?>
<!DOCTYPE svg PUBLIC "-//W3C//DTD SVG 1.1//EN"
  "http://www.w3.org/Graphics/SVG/1.1/DTD/svg11.dtd">
<svg xmlns:xlink="http://www.w3.org/1999/xlink" width="320.883882pt" height="173.789114pt" viewBox="0 0 320.883882 173.789114" xmlns="http://www.w3.org/2000/svg" version="1.1">
 <metadata>
  <rdf:RDF xmlns:dc="http://purl.org/dc/elements/1.1/" xmlns:cc="http://creativecommons.org/ns#" xmlns:rdf="http://www.w3.org/1999/02/22-rdf-syntax-ns#">
   <cc:Work>
    <dc:type rdf:resource="http://purl.org/dc/dcmitype/StillImage"/>
    <dc:date>2024-12-10T03:19:54.081248</dc:date>
    <dc:format>image/svg+xml</dc:format>
    <dc:creator>
     <cc:Agent>
      <dc:title>Matplotlib v3.8.0, https://matplotlib.org/</dc:title>
     </cc:Agent>
    </dc:creator>
   </cc:Work>
  </rdf:RDF>
 </metadata>
 <defs>
  <style type="text/css">*{stroke-linejoin: round; stroke-linecap: butt}</style>
 </defs>
 <g id="figure_1">
  <g id="patch_1">
   <path d="M 0 173.789114 
L 320.883882 173.789114 
L 320.883882 0 
L 0 0 
z
" style="fill: #ffffff"/>
  </g>
  <g id="axes_1">
   <g id="patch_2">
    <path d="M 41.460327 140.256 
L 309.300327 140.256 
L 309.300327 7.2 
L 41.460327 7.2 
z
" style="fill: #ffffff"/>
   </g>
   <g id="matplotlib.axis_1">
    <g id="xtick_1">
     <g id="line2d_1">
      <defs>
       <path id="mad22e91cc3" d="M 0 0 
L 0 -3 
" style="stroke: #000000; stroke-width: 0.5"/>
      </defs>
      <g>
       <use xlink:href="#mad22e91cc3" x="41.460327" y="140.256" style="stroke: #000000; stroke-width: 0.5"/>
      </g>
     </g>
     <g id="text_1">
      <!-- $30$ -->
      <g transform="translate(37.076771 151.173795) scale(0.088 -0.088)">
       <defs>
        <path id="NimbusRomNo9L-Regu-33" d="M 979 2137 
C 1357 2137 1504 2124 1658 2067 
C 2054 1926 2304 1561 2304 1120 
C 2304 582 1939 166 1466 166 
C 1293 166 1165 211 928 364 
C 736 480 627 524 518 524 
C 371 524 275 435 275 300 
C 275 76 550 -64 998 -64 
C 1491 -64 1997 102 2298 364 
C 2598 627 2765 998 2765 1427 
C 2765 1753 2662 2054 2477 2252 
C 2349 2393 2227 2470 1946 2592 
C 2387 2892 2547 3129 2547 3475 
C 2547 3993 2138 4352 1549 4352 
C 1229 4352 947 4243 717 4038 
C 525 3865 429 3699 288 3315 
L 384 3289 
C 646 3757 934 3967 1338 3967 
C 1754 3967 2042 3686 2042 3283 
C 2042 3052 1946 2822 1786 2662 
C 1594 2470 1414 2374 979 2220 
L 979 2137 
z
" transform="scale(0.015625)"/>
        <path id="NimbusRomNo9L-Regu-30" d="M 1626 4352 
C 1274 4352 1005 4243 768 4019 
C 397 3661 154 2924 154 2176 
C 154 1478 365 729 666 371 
C 902 89 1229 -64 1600 -64 
C 1926 -64 2202 44 2432 268 
C 2803 620 3046 1363 3046 2137 
C 3046 3449 2464 4352 1626 4352 
z
M 1606 4185 
C 2144 4185 2432 3462 2432 2124 
C 2432 787 2150 102 1600 102 
C 1050 102 768 787 768 2118 
C 768 3475 1056 4185 1606 4185 
z
" transform="scale(0.015625)"/>
       </defs>
       <use xlink:href="#NimbusRomNo9L-Regu-33" transform="scale(0.996264)"/>
       <use xlink:href="#NimbusRomNo9L-Regu-30" transform="translate(49.8132 0) scale(0.996264)"/>
      </g>
     </g>
    </g>
    <g id="xtick_2">
     <g id="line2d_2">
      <g>
       <use xlink:href="#mad22e91cc3" x="74.940327" y="140.256" style="stroke: #000000; stroke-width: 0.5"/>
      </g>
     </g>
     <g id="text_2">
      <!-- $32.5$ -->
      <g transform="translate(67.269105 151.173795) scale(0.088 -0.088)">
       <defs>
        <path id="NimbusRomNo9L-Regu-32" d="M 3040 879 
L 2957 912 
C 2720 544 2637 486 2349 486 
L 819 486 
L 1894 1621 
C 2464 2221 2714 2711 2714 3214 
C 2714 3858 2195 4352 1530 4352 
C 1178 4352 845 4211 608 3955 
C 403 3736 307 3530 198 3072 
L 333 3039 
C 589 3671 819 3878 1261 3878 
C 1798 3878 2163 3510 2163 2969 
C 2163 2466 1869 1866 1331 1292 
L 192 76 
L 192 0 
L 2688 0 
L 3040 879 
z
" transform="scale(0.015625)"/>
        <path id="rtxmi-3a" d="M 1158 217 
C 1158 416 992 582 800 582 
C 608 582 448 422 448 217 
C 448 -26 666 -128 800 -128 
C 934 -128 1158 -20 1158 217 
z
" transform="scale(0.015625)"/>
        <path id="NimbusRomNo9L-Regu-35" d="M 1158 3718 
L 2413 3718 
C 2515 3718 2541 3731 2560 3775 
L 2803 4345 
L 2746 4390 
C 2650 4256 2586 4224 2451 4224 
L 1114 4224 
L 416 2717 
C 410 2705 410 2698 410 2686 
C 410 2654 435 2635 486 2635 
C 691 2635 947 2591 1210 2508 
C 1946 2274 2285 1882 2285 1255 
C 2285 647 1894 172 1395 172 
C 1267 172 1158 217 966 356 
C 762 502 614 565 480 565 
C 294 565 205 489 205 331 
C 205 89 506 -64 986 -64 
C 1523 -64 1984 108 2304 432 
C 2598 717 2733 1078 2733 1559 
C 2733 2015 2611 2306 2291 2622 
C 2010 2901 1645 3047 890 3180 
L 1158 3718 
z
" transform="scale(0.015625)"/>
       </defs>
       <use xlink:href="#NimbusRomNo9L-Regu-33" transform="scale(0.996264)"/>
       <use xlink:href="#NimbusRomNo9L-Regu-32" transform="translate(49.8132 0) scale(0.996264)"/>
       <use xlink:href="#rtxmi-3a" transform="translate(99.626401 0) scale(0.996264)"/>
       <use xlink:href="#NimbusRomNo9L-Regu-35" transform="translate(124.533001 0) scale(0.996264)"/>
      </g>
     </g>
    </g>
    <g id="xtick_3">
     <g id="line2d_3">
      <g>
       <use xlink:href="#mad22e91cc3" x="108.420327" y="140.256" style="stroke: #000000; stroke-width: 0.5"/>
      </g>
     </g>
     <g id="text_3">
      <!-- $35$ -->
      <g transform="translate(104.036771 151.173795) scale(0.088 -0.088)">
       <use xlink:href="#NimbusRomNo9L-Regu-33" transform="scale(0.996264)"/>
       <use xlink:href="#NimbusRomNo9L-Regu-35" transform="translate(49.8132 0) scale(0.996264)"/>
      </g>
     </g>
    </g>
    <g id="xtick_4">
     <g id="line2d_4">
      <g>
       <use xlink:href="#mad22e91cc3" x="141.900327" y="140.256" style="stroke: #000000; stroke-width: 0.5"/>
      </g>
     </g>
     <g id="text_4">
      <!-- $37.5$ -->
      <g transform="translate(134.229105 151.173795) scale(0.088 -0.088)">
       <defs>
        <path id="NimbusRomNo9L-Regu-37" d="M 2874 4224 
L 506 4224 
L 128 3283 
L 237 3232 
C 512 3667 627 3750 979 3750 
L 2368 3750 
L 1101 -64 
L 1517 -64 
L 2874 4121 
L 2874 4224 
z
" transform="scale(0.015625)"/>
       </defs>
       <use xlink:href="#NimbusRomNo9L-Regu-33" transform="scale(0.996264)"/>
       <use xlink:href="#NimbusRomNo9L-Regu-37" transform="translate(49.8132 0) scale(0.996264)"/>
       <use xlink:href="#rtxmi-3a" transform="translate(99.626401 0) scale(0.996264)"/>
       <use xlink:href="#NimbusRomNo9L-Regu-35" transform="translate(124.533001 0) scale(0.996264)"/>
      </g>
     </g>
    </g>
    <g id="xtick_5">
     <g id="line2d_5">
      <g>
       <use xlink:href="#mad22e91cc3" x="175.380327" y="140.256" style="stroke: #000000; stroke-width: 0.5"/>
      </g>
     </g>
     <g id="text_5">
      <!-- $40$ -->
      <g transform="translate(170.996771 151.173795) scale(0.088 -0.088)">
       <defs>
        <path id="NimbusRomNo9L-Regu-34" d="M 3021 1497 
L 2368 1497 
L 2368 4352 
L 2086 4352 
L 77 1497 
L 77 1088 
L 1875 1088 
L 1875 0 
L 2368 0 
L 2368 1088 
L 3021 1088 
L 3021 1497 
z
M 1869 1497 
L 333 1497 
L 1869 3697 
L 1869 1497 
z
" transform="scale(0.015625)"/>
       </defs>
       <use xlink:href="#NimbusRomNo9L-Regu-34" transform="scale(0.996264)"/>
       <use xlink:href="#NimbusRomNo9L-Regu-30" transform="translate(49.8132 0) scale(0.996264)"/>
      </g>
     </g>
    </g>
    <g id="xtick_6">
     <g id="line2d_6">
      <g>
       <use xlink:href="#mad22e91cc3" x="208.860327" y="140.256" style="stroke: #000000; stroke-width: 0.5"/>
      </g>
     </g>
     <g id="text_6">
      <!-- $42.5$ -->
      <g transform="translate(201.189105 151.173795) scale(0.088 -0.088)">
       <use xlink:href="#NimbusRomNo9L-Regu-34" transform="scale(0.996264)"/>
       <use xlink:href="#NimbusRomNo9L-Regu-32" transform="translate(49.8132 0) scale(0.996264)"/>
       <use xlink:href="#rtxmi-3a" transform="translate(99.626401 0) scale(0.996264)"/>
       <use xlink:href="#NimbusRomNo9L-Regu-35" transform="translate(124.533001 0) scale(0.996264)"/>
      </g>
     </g>
    </g>
    <g id="xtick_7">
     <g id="line2d_7">
      <g>
       <use xlink:href="#mad22e91cc3" x="242.340327" y="140.256" style="stroke: #000000; stroke-width: 0.5"/>
      </g>
     </g>
     <g id="text_7">
      <!-- $45$ -->
      <g transform="translate(237.956771 151.173795) scale(0.088 -0.088)">
       <use xlink:href="#NimbusRomNo9L-Regu-34" transform="scale(0.996264)"/>
       <use xlink:href="#NimbusRomNo9L-Regu-35" transform="translate(49.8132 0) scale(0.996264)"/>
      </g>
     </g>
    </g>
    <g id="xtick_8">
     <g id="line2d_8">
      <g>
       <use xlink:href="#mad22e91cc3" x="275.820327" y="140.256" style="stroke: #000000; stroke-width: 0.5"/>
      </g>
     </g>
     <g id="text_8">
      <!-- $47.5$ -->
      <g transform="translate(268.149105 151.173795) scale(0.088 -0.088)">
       <use xlink:href="#NimbusRomNo9L-Regu-34" transform="scale(0.996264)"/>
       <use xlink:href="#NimbusRomNo9L-Regu-37" transform="translate(49.8132 0) scale(0.996264)"/>
       <use xlink:href="#rtxmi-3a" transform="translate(99.626401 0) scale(0.996264)"/>
       <use xlink:href="#NimbusRomNo9L-Regu-35" transform="translate(124.533001 0) scale(0.996264)"/>
      </g>
     </g>
    </g>
    <g id="xtick_9">
     <g id="line2d_9">
      <g>
       <use xlink:href="#mad22e91cc3" x="309.300327" y="140.256" style="stroke: #000000; stroke-width: 0.5"/>
      </g>
     </g>
     <g id="text_9">
      <!-- $50$ -->
      <g transform="translate(304.916771 151.173795) scale(0.088 -0.088)">
       <use xlink:href="#NimbusRomNo9L-Regu-35" transform="scale(0.996264)"/>
       <use xlink:href="#NimbusRomNo9L-Regu-30" transform="translate(49.8132 0) scale(0.996264)"/>
      </g>
     </g>
    </g>
    <g id="text_10">
     <!-- $t$ -->
     <g transform="translate(174.050916 164.523268) scale(0.096 -0.096)">
      <defs>
       <path id="NimbusRomNo9L-ReguItal-74" d="M 1894 2752 
L 1382 2752 
L 1562 3411 
C 1568 3424 1568 3436 1568 3443 
C 1568 3488 1549 3507 1517 3507 
C 1478 3507 1459 3500 1421 3449 
C 1171 3123 774 2803 570 2745 
C 410 2694 365 2655 365 2585 
C 365 2579 365 2566 371 2547 
L 845 2547 
L 384 782 
C 371 724 365 705 346 647 
C 288 454 237 230 237 179 
C 237 38 371 -64 544 -64 
C 838 -64 1050 115 1453 711 
L 1370 756 
C 1056 352 954 249 851 249 
C 794 249 755 300 755 377 
C 755 384 755 390 762 410 
L 1325 2547 
L 1862 2547 
L 1894 2752 
z
" transform="scale(0.015625)"/>
      </defs>
      <use xlink:href="#NimbusRomNo9L-ReguItal-74" transform="scale(0.996264)"/>
     </g>
    </g>
   </g>
   <g id="matplotlib.axis_2">
    <g id="ytick_1">
     <g id="line2d_10">
      <defs>
       <path id="mc9f793c063" d="M 0 0 
L 3 0 
" style="stroke: #000000; stroke-width: 0.5"/>
      </defs>
      <g>
       <use xlink:href="#mc9f793c063" x="41.460327" y="126.40231" style="stroke: #000000; stroke-width: 0.5"/>
      </g>
     </g>
     <g id="text_11">
      <!-- $10^{-5}$ -->
      <g transform="translate(20.721633 129.361208) scale(0.088 -0.088)">
       <defs>
        <path id="NimbusRomNo9L-Regu-31" d="M 1862 4352 
L 710 3776 
L 710 3686 
C 787 3718 858 3743 883 3756 
C 998 3801 1107 3826 1171 3826 
C 1306 3826 1363 3731 1363 3525 
L 1363 599 
C 1363 386 1312 238 1210 179 
C 1114 121 1024 102 755 96 
L 755 0 
L 2522 0 
L 2522 96 
C 2016 102 1914 167 1914 477 
L 1914 4339 
L 1862 4352 
z
" transform="scale(0.015625)"/>
        <path id="txsy-0" d="M 3674 1472 
L 3674 1830 
L 397 1830 
L 397 1472 
L 3674 1472 
z
" transform="scale(0.015625)"/>
       </defs>
       <use xlink:href="#NimbusRomNo9L-Regu-31" transform="scale(0.996264)"/>
       <use xlink:href="#NimbusRomNo9L-Regu-30" transform="translate(49.8132 0) scale(0.996264)"/>
       <use xlink:href="#txsy-0" transform="translate(99.626401 36.164371) scale(0.697382)"/>
       <use xlink:href="#NimbusRomNo9L-Regu-35" transform="translate(143.979851 36.164371) scale(0.697382)"/>
      </g>
     </g>
    </g>
    <g id="ytick_2">
     <g id="line2d_11">
      <g>
       <use xlink:href="#mc9f793c063" x="41.460327" y="106.067725" style="stroke: #000000; stroke-width: 0.5"/>
      </g>
     </g>
     <g id="text_12">
      <!-- $10^{-4}$ -->
      <g transform="translate(20.721633 109.026623) scale(0.088 -0.088)">
       <use xlink:href="#NimbusRomNo9L-Regu-31" transform="scale(0.996264)"/>
       <use xlink:href="#NimbusRomNo9L-Regu-30" transform="translate(49.8132 0) scale(0.996264)"/>
       <use xlink:href="#txsy-0" transform="translate(99.626401 36.164371) scale(0.697382)"/>
       <use xlink:href="#NimbusRomNo9L-Regu-34" transform="translate(143.979851 36.164371) scale(0.697382)"/>
      </g>
     </g>
    </g>
    <g id="ytick_3">
     <g id="line2d_12">
      <g>
       <use xlink:href="#mc9f793c063" x="41.460327" y="85.73314" style="stroke: #000000; stroke-width: 0.5"/>
      </g>
     </g>
     <g id="text_13">
      <!-- $10^{-3}$ -->
      <g transform="translate(20.721633 88.692037) scale(0.088 -0.088)">
       <use xlink:href="#NimbusRomNo9L-Regu-31" transform="scale(0.996264)"/>
       <use xlink:href="#NimbusRomNo9L-Regu-30" transform="translate(49.8132 0) scale(0.996264)"/>
       <use xlink:href="#txsy-0" transform="translate(99.626401 36.164371) scale(0.697382)"/>
       <use xlink:href="#NimbusRomNo9L-Regu-33" transform="translate(143.979851 36.164371) scale(0.697382)"/>
      </g>
     </g>
    </g>
    <g id="ytick_4">
     <g id="line2d_13">
      <g>
       <use xlink:href="#mc9f793c063" x="41.460327" y="65.398554" style="stroke: #000000; stroke-width: 0.5"/>
      </g>
     </g>
     <g id="text_14">
      <!-- $10^{-2}$ -->
      <g transform="translate(20.721633 68.357452) scale(0.088 -0.088)">
       <use xlink:href="#NimbusRomNo9L-Regu-31" transform="scale(0.996264)"/>
       <use xlink:href="#NimbusRomNo9L-Regu-30" transform="translate(49.8132 0) scale(0.996264)"/>
       <use xlink:href="#txsy-0" transform="translate(99.626401 36.164371) scale(0.697382)"/>
       <use xlink:href="#NimbusRomNo9L-Regu-32" transform="translate(143.979851 36.164371) scale(0.697382)"/>
      </g>
     </g>
    </g>
    <g id="ytick_5">
     <g id="line2d_14">
      <g>
       <use xlink:href="#mc9f793c063" x="41.460327" y="45.063969" style="stroke: #000000; stroke-width: 0.5"/>
      </g>
     </g>
     <g id="text_15">
      <!-- $10^{-1}$ -->
      <g transform="translate(20.721633 48.022867) scale(0.088 -0.088)">
       <use xlink:href="#NimbusRomNo9L-Regu-31" transform="scale(0.996264)"/>
       <use xlink:href="#NimbusRomNo9L-Regu-30" transform="translate(49.8132 0) scale(0.996264)"/>
       <use xlink:href="#txsy-0" transform="translate(99.626401 36.164371) scale(0.697382)"/>
       <use xlink:href="#NimbusRomNo9L-Regu-31" transform="translate(143.979851 36.164371) scale(0.697382)"/>
      </g>
     </g>
    </g>
    <g id="ytick_6">
     <g id="line2d_15">
      <g>
       <use xlink:href="#mc9f793c063" x="41.460327" y="24.729384" style="stroke: #000000; stroke-width: 0.5"/>
      </g>
     </g>
     <g id="text_16">
      <!-- $1$ -->
      <g transform="translate(32.076771 27.688281) scale(0.088 -0.088)">
       <use xlink:href="#NimbusRomNo9L-Regu-31" transform="scale(0.996264)"/>
      </g>
     </g>
    </g>
    <g id="ytick_7">
     <g id="line2d_16">
      <defs>
       <path id="m0347f41398" d="M 0 0 
L 3.2 0 
" style="stroke: #000000; stroke-width: 0.8"/>
      </defs>
      <g>
       <use xlink:href="#m0347f41398" x="41.460327" y="137.034833" style="stroke: #000000; stroke-width: 0.8"/>
      </g>
     </g>
    </g>
    <g id="ytick_8">
     <g id="line2d_17">
      <g>
       <use xlink:href="#m0347f41398" x="41.460327" y="134.494255" style="stroke: #000000; stroke-width: 0.8"/>
      </g>
     </g>
    </g>
    <g id="ytick_9">
     <g id="line2d_18">
      <g>
       <use xlink:href="#m0347f41398" x="41.460327" y="132.52363" style="stroke: #000000; stroke-width: 0.8"/>
      </g>
     </g>
    </g>
    <g id="ytick_10">
     <g id="line2d_19">
      <g>
       <use xlink:href="#m0347f41398" x="41.460327" y="130.913513" style="stroke: #000000; stroke-width: 0.8"/>
      </g>
     </g>
    </g>
    <g id="ytick_11">
     <g id="line2d_20">
      <g>
       <use xlink:href="#m0347f41398" x="41.460327" y="129.552177" style="stroke: #000000; stroke-width: 0.8"/>
      </g>
     </g>
    </g>
    <g id="ytick_12">
     <g id="line2d_21">
      <g>
       <use xlink:href="#m0347f41398" x="41.460327" y="128.372935" style="stroke: #000000; stroke-width: 0.8"/>
      </g>
     </g>
    </g>
    <g id="ytick_13">
     <g id="line2d_22">
      <g>
       <use xlink:href="#m0347f41398" x="41.460327" y="127.33277" style="stroke: #000000; stroke-width: 0.8"/>
      </g>
     </g>
    </g>
    <g id="ytick_14">
     <g id="line2d_23">
      <g>
       <use xlink:href="#m0347f41398" x="41.460327" y="120.28099" style="stroke: #000000; stroke-width: 0.8"/>
      </g>
     </g>
    </g>
    <g id="ytick_15">
     <g id="line2d_24">
      <g>
       <use xlink:href="#m0347f41398" x="41.460327" y="116.700247" style="stroke: #000000; stroke-width: 0.8"/>
      </g>
     </g>
    </g>
    <g id="ytick_16">
     <g id="line2d_25">
      <g>
       <use xlink:href="#m0347f41398" x="41.460327" y="114.15967" style="stroke: #000000; stroke-width: 0.8"/>
      </g>
     </g>
    </g>
    <g id="ytick_17">
     <g id="line2d_26">
      <g>
       <use xlink:href="#m0347f41398" x="41.460327" y="112.189045" style="stroke: #000000; stroke-width: 0.8"/>
      </g>
     </g>
    </g>
    <g id="ytick_18">
     <g id="line2d_27">
      <g>
       <use xlink:href="#m0347f41398" x="41.460327" y="110.578927" style="stroke: #000000; stroke-width: 0.8"/>
      </g>
     </g>
    </g>
    <g id="ytick_19">
     <g id="line2d_28">
      <g>
       <use xlink:href="#m0347f41398" x="41.460327" y="109.217592" style="stroke: #000000; stroke-width: 0.8"/>
      </g>
     </g>
    </g>
    <g id="ytick_20">
     <g id="line2d_29">
      <g>
       <use xlink:href="#m0347f41398" x="41.460327" y="108.03835" style="stroke: #000000; stroke-width: 0.8"/>
      </g>
     </g>
    </g>
    <g id="ytick_21">
     <g id="line2d_30">
      <g>
       <use xlink:href="#m0347f41398" x="41.460327" y="106.998185" style="stroke: #000000; stroke-width: 0.8"/>
      </g>
     </g>
    </g>
    <g id="ytick_22">
     <g id="line2d_31">
      <g>
       <use xlink:href="#m0347f41398" x="41.460327" y="99.946405" style="stroke: #000000; stroke-width: 0.8"/>
      </g>
     </g>
    </g>
    <g id="ytick_23">
     <g id="line2d_32">
      <g>
       <use xlink:href="#m0347f41398" x="41.460327" y="96.365662" style="stroke: #000000; stroke-width: 0.8"/>
      </g>
     </g>
    </g>
    <g id="ytick_24">
     <g id="line2d_33">
      <g>
       <use xlink:href="#m0347f41398" x="41.460327" y="93.825085" style="stroke: #000000; stroke-width: 0.8"/>
      </g>
     </g>
    </g>
    <g id="ytick_25">
     <g id="line2d_34">
      <g>
       <use xlink:href="#m0347f41398" x="41.460327" y="91.85446" style="stroke: #000000; stroke-width: 0.8"/>
      </g>
     </g>
    </g>
    <g id="ytick_26">
     <g id="line2d_35">
      <g>
       <use xlink:href="#m0347f41398" x="41.460327" y="90.244342" style="stroke: #000000; stroke-width: 0.8"/>
      </g>
     </g>
    </g>
    <g id="ytick_27">
     <g id="line2d_36">
      <g>
       <use xlink:href="#m0347f41398" x="41.460327" y="88.883007" style="stroke: #000000; stroke-width: 0.8"/>
      </g>
     </g>
    </g>
    <g id="ytick_28">
     <g id="line2d_37">
      <g>
       <use xlink:href="#m0347f41398" x="41.460327" y="87.703765" style="stroke: #000000; stroke-width: 0.8"/>
      </g>
     </g>
    </g>
    <g id="ytick_29">
     <g id="line2d_38">
      <g>
       <use xlink:href="#m0347f41398" x="41.460327" y="86.663599" style="stroke: #000000; stroke-width: 0.8"/>
      </g>
     </g>
    </g>
    <g id="ytick_30">
     <g id="line2d_39">
      <g>
       <use xlink:href="#m0347f41398" x="41.460327" y="79.61182" style="stroke: #000000; stroke-width: 0.8"/>
      </g>
     </g>
    </g>
    <g id="ytick_31">
     <g id="line2d_40">
      <g>
       <use xlink:href="#m0347f41398" x="41.460327" y="76.031077" style="stroke: #000000; stroke-width: 0.8"/>
      </g>
     </g>
    </g>
    <g id="ytick_32">
     <g id="line2d_41">
      <g>
       <use xlink:href="#m0347f41398" x="41.460327" y="73.490499" style="stroke: #000000; stroke-width: 0.8"/>
      </g>
     </g>
    </g>
    <g id="ytick_33">
     <g id="line2d_42">
      <g>
       <use xlink:href="#m0347f41398" x="41.460327" y="71.519874" style="stroke: #000000; stroke-width: 0.8"/>
      </g>
     </g>
    </g>
    <g id="ytick_34">
     <g id="line2d_43">
      <g>
       <use xlink:href="#m0347f41398" x="41.460327" y="69.909757" style="stroke: #000000; stroke-width: 0.8"/>
      </g>
     </g>
    </g>
    <g id="ytick_35">
     <g id="line2d_44">
      <g>
       <use xlink:href="#m0347f41398" x="41.460327" y="68.548421" style="stroke: #000000; stroke-width: 0.8"/>
      </g>
     </g>
    </g>
    <g id="ytick_36">
     <g id="line2d_45">
      <g>
       <use xlink:href="#m0347f41398" x="41.460327" y="67.369179" style="stroke: #000000; stroke-width: 0.8"/>
      </g>
     </g>
    </g>
    <g id="ytick_37">
     <g id="line2d_46">
      <g>
       <use xlink:href="#m0347f41398" x="41.460327" y="66.329014" style="stroke: #000000; stroke-width: 0.8"/>
      </g>
     </g>
    </g>
    <g id="ytick_38">
     <g id="line2d_47">
      <g>
       <use xlink:href="#m0347f41398" x="41.460327" y="59.277234" style="stroke: #000000; stroke-width: 0.8"/>
      </g>
     </g>
    </g>
    <g id="ytick_39">
     <g id="line2d_48">
      <g>
       <use xlink:href="#m0347f41398" x="41.460327" y="55.696491" style="stroke: #000000; stroke-width: 0.8"/>
      </g>
     </g>
    </g>
    <g id="ytick_40">
     <g id="line2d_49">
      <g>
       <use xlink:href="#m0347f41398" x="41.460327" y="53.155914" style="stroke: #000000; stroke-width: 0.8"/>
      </g>
     </g>
    </g>
    <g id="ytick_41">
     <g id="line2d_50">
      <g>
       <use xlink:href="#m0347f41398" x="41.460327" y="51.185289" style="stroke: #000000; stroke-width: 0.8"/>
      </g>
     </g>
    </g>
    <g id="ytick_42">
     <g id="line2d_51">
      <g>
       <use xlink:href="#m0347f41398" x="41.460327" y="49.575171" style="stroke: #000000; stroke-width: 0.8"/>
      </g>
     </g>
    </g>
    <g id="ytick_43">
     <g id="line2d_52">
      <g>
       <use xlink:href="#m0347f41398" x="41.460327" y="48.213836" style="stroke: #000000; stroke-width: 0.8"/>
      </g>
     </g>
    </g>
    <g id="ytick_44">
     <g id="line2d_53">
      <g>
       <use xlink:href="#m0347f41398" x="41.460327" y="47.034594" style="stroke: #000000; stroke-width: 0.8"/>
      </g>
     </g>
    </g>
    <g id="ytick_45">
     <g id="line2d_54">
      <g>
       <use xlink:href="#m0347f41398" x="41.460327" y="45.994429" style="stroke: #000000; stroke-width: 0.8"/>
      </g>
     </g>
    </g>
    <g id="ytick_46">
     <g id="line2d_55">
      <g>
       <use xlink:href="#m0347f41398" x="41.460327" y="38.942649" style="stroke: #000000; stroke-width: 0.8"/>
      </g>
     </g>
    </g>
    <g id="ytick_47">
     <g id="line2d_56">
      <g>
       <use xlink:href="#m0347f41398" x="41.460327" y="35.361906" style="stroke: #000000; stroke-width: 0.8"/>
      </g>
     </g>
    </g>
    <g id="ytick_48">
     <g id="line2d_57">
      <g>
       <use xlink:href="#m0347f41398" x="41.460327" y="32.821329" style="stroke: #000000; stroke-width: 0.8"/>
      </g>
     </g>
    </g>
    <g id="ytick_49">
     <g id="line2d_58">
      <g>
       <use xlink:href="#m0347f41398" x="41.460327" y="30.850704" style="stroke: #000000; stroke-width: 0.8"/>
      </g>
     </g>
    </g>
    <g id="ytick_50">
     <g id="line2d_59">
      <g>
       <use xlink:href="#m0347f41398" x="41.460327" y="29.240586" style="stroke: #000000; stroke-width: 0.8"/>
      </g>
     </g>
    </g>
    <g id="ytick_51">
     <g id="line2d_60">
      <g>
       <use xlink:href="#m0347f41398" x="41.460327" y="27.879251" style="stroke: #000000; stroke-width: 0.8"/>
      </g>
     </g>
    </g>
    <g id="ytick_52">
     <g id="line2d_61">
      <g>
       <use xlink:href="#m0347f41398" x="41.460327" y="26.700009" style="stroke: #000000; stroke-width: 0.8"/>
      </g>
     </g>
    </g>
    <g id="ytick_53">
     <g id="line2d_62">
      <g>
       <use xlink:href="#m0347f41398" x="41.460327" y="25.659843" style="stroke: #000000; stroke-width: 0.8"/>
      </g>
     </g>
    </g>
    <g id="ytick_54">
     <g id="line2d_63">
      <g>
       <use xlink:href="#m0347f41398" x="41.460327" y="18.608064" style="stroke: #000000; stroke-width: 0.8"/>
      </g>
     </g>
    </g>
    <g id="ytick_55">
     <g id="line2d_64">
      <g>
       <use xlink:href="#m0347f41398" x="41.460327" y="15.027321" style="stroke: #000000; stroke-width: 0.8"/>
      </g>
     </g>
    </g>
    <g id="ytick_56">
     <g id="line2d_65">
      <g>
       <use xlink:href="#m0347f41398" x="41.460327" y="12.486743" style="stroke: #000000; stroke-width: 0.8"/>
      </g>
     </g>
    </g>
    <g id="ytick_57">
     <g id="line2d_66">
      <g>
       <use xlink:href="#m0347f41398" x="41.460327" y="10.516119" style="stroke: #000000; stroke-width: 0.8"/>
      </g>
     </g>
    </g>
    <g id="ytick_58">
     <g id="line2d_67">
      <g>
       <use xlink:href="#m0347f41398" x="41.460327" y="8.906001" style="stroke: #000000; stroke-width: 0.8"/>
      </g>
     </g>
    </g>
    <g id="ytick_59">
     <g id="line2d_68">
      <g>
       <use xlink:href="#m0347f41398" x="41.460327" y="7.544666" style="stroke: #000000; stroke-width: 0.8"/>
      </g>
     </g>
    </g>
    <g id="text_17">
     <!-- $|\bm{e}|$ -->
     <g transform="translate(13.655787 77.764058) rotate(-90) scale(0.096 -0.096)">
      <defs>
       <path id="txsy-6a" d="M 819 -1024 
L 819 4352 
L 461 4352 
L 461 -1024 
L 819 -1024 
z
" transform="scale(0.015625)"/>
       <path id="NimbusRomNo9L-MediItal-65" d="M 2029 920 
C 1728 484 1549 345 1280 345 
C 1005 345 864 522 864 863 
C 864 964 877 1046 902 1172 
C 1568 1299 1882 1438 2202 1728 
C 2426 1930 2547 2170 2547 2391 
C 2547 2713 2266 2944 1875 2944 
C 954 2944 32 1911 32 869 
C 32 339 442 -64 998 -64 
C 1485 -64 1830 185 2214 812 
L 2029 920 
z
M 947 1375 
C 1178 2246 1472 2732 1779 2732 
C 1901 2732 1958 2657 1958 2518 
C 1958 2038 1651 1627 1158 1444 
C 1114 1431 1018 1400 947 1375 
z
" transform="scale(0.015625)"/>
      </defs>
      <use xlink:href="#txsy-6a" transform="scale(0.996264)"/>
      <use xlink:href="#NimbusRomNo9L-MediItal-65" transform="translate(19.92525 0) scale(0.996264)"/>
      <use xlink:href="#txsy-6a" transform="translate(64.159396 0) scale(0.996264)"/>
     </g>
    </g>
   </g>
   <g id="patch_3">
    <path d="M 41.460327 140.256 
L 41.460327 7.2 
" style="fill: none; stroke: #000000; stroke-width: 0.625; stroke-linejoin: miter; stroke-linecap: square"/>
   </g>
   <g id="patch_4">
    <path d="M 309.300327 140.256 
L 309.300327 7.2 
" style="fill: none; stroke: #000000; stroke-width: 0.625; stroke-linejoin: miter; stroke-linecap: square"/>
   </g>
   <g id="patch_5">
    <path d="M 41.460327 140.256 
L 309.300327 140.256 
" style="fill: none; stroke: #000000; stroke-width: 0.625; stroke-linejoin: miter; stroke-linecap: square"/>
   </g>
   <g id="patch_6">
    <path d="M 41.460327 7.2 
L 309.300327 7.2 
" style="fill: none; stroke: #000000; stroke-width: 0.625; stroke-linejoin: miter; stroke-linecap: square"/>
   </g>
   <g id="line2d_69">
    <path d="M 41.460327 15.172755 
L 42.035112 17.507723 
L 42.041808 17.505771 
L 42.135552 17.351128 
L 42.312996 16.496445 
L 42.937732 13.268913 
L 43.031342 13.274149 
L 43.057189 13.309595 
L 43.190841 13.748871 
L 43.394266 15.323639 
L 43.733083 20.08961 
L 43.963827 21.955162 
L 43.972264 21.952306 
L 44.041367 21.779708 
L 44.717395 19.372794 
L 44.74284 19.382404 
L 44.902071 19.588171 
L 45.138172 20.325707 
L 45.465204 22.174031 
L 46.361933 27.878016 
L 46.382021 27.871779 
L 46.519958 27.682909 
L 47.201209 26.539567 
L 47.401688 26.635191 
L 47.651716 27.048758 
L 47.999507 28.112326 
L 48.452826 30.285672 
L 49.030824 34.268468 
L 49.515615 37.116592 
L 49.631188 37.208924 
L 49.667748 37.177844 
L 49.813453 36.825622 
L 50.452787 35.02662 
L 50.459885 35.029097 
L 50.583091 35.198456 
L 50.761473 35.912512 
L 51.013644 37.991308 
L 51.439911 41.935499 
L 51.485846 41.857425 
L 51.609856 41.080157 
L 52.107101 37.850847 
L 52.257493 37.724751 
L 52.280259 37.739457 
L 52.415652 37.996987 
L 52.636487 38.990404 
L 52.971822 41.673999 
L 53.746014 48.18468 
L 53.856096 48.12175 
L 54.087242 47.555791 
L 54.446148 46.90434 
L 54.63685 46.91509 
L 54.838265 47.201769 
L 55.128872 48.065953 
L 55.542149 50.081852 
L 56.201839 54.605459 
L 56.735242 57.639987 
L 57.001475 58.130302 
L 57.196998 58.112779 
L 57.652192 57.709169 
L 57.962217 57.624222 
L 58.200327 57.796455 
L 58.469238 58.305238 
L 58.789843 59.445592 
L 59.192272 61.813409 
L 59.612781 63.936223 
L 59.690589 63.873935 
L 59.699293 63.854708 
L 59.843927 63.231963 
L 60.524375 59.883117 
L 60.63593 59.960203 
L 60.784581 60.450905 
L 61.006888 62.085906 
L 61.532792 67.554262 
L 61.635107 67.190556 
L 62.321179 63.51469 
L 62.442912 63.641268 
L 62.632945 64.248908 
L 62.931051 66.064347 
L 63.40486 70.551582 
L 63.867286 74.226536 
L 64.054104 74.484983 
L 64.058925 74.483401 
L 64.211728 74.310049 
L 64.733882 73.6578 
L 64.932887 73.753639 
L 65.179032 74.168439 
L 65.528161 75.255103 
L 66.017773 77.591481 
L 66.764109 82.398902 
L 67.518614 86.829849 
L 67.882877 87.805848 
L 68.205222 88.104764 
L 69.178553 88.682649 
L 69.559957 89.381954 
L 69.981805 90.663845 
L 70.83126 93.707307 
L 70.893934 93.648909 
L 71.036961 93.210046 
L 71.356762 91.291246 
L 71.760932 89.405612 
L 71.896057 89.300229 
L 71.926056 89.324456 
L 72.049798 89.628906 
L 72.238759 90.802839 
L 72.695828 95.255458 
L 72.804303 94.72544 
L 73.467475 89.826538 
L 73.58278 89.890904 
L 73.741609 90.357258 
L 74.002351 91.931886 
L 74.422994 96.058901 
L 74.886223 99.97406 
L 75.016929 100.136904 
L 75.050007 100.115274 
L 75.205622 99.811741 
L 75.719473 98.785306 
L 75.91272 98.80675 
L 76.122305 99.104355 
L 76.422286 99.978335 
L 76.847616 101.989883 
L 78.111419 108.486819 
L 78.283506 108.467215 
L 78.52791 108.134089 
L 79.17702 107.230931 
L 79.425977 107.228814 
L 79.656855 107.474685 
L 79.93648 108.144208 
L 80.280655 109.616524 
L 81.011858 113.367286 
L 81.077077 113.291068 
L 81.218496 112.726062 
L 81.689627 109.458115 
L 82.072103 107.785953 
L 82.305659 107.511895 
L 82.449757 107.634342 
L 82.648628 108.169146 
L 82.935217 109.676113 
L 83.371394 113.367249 
L 83.786011 116.217996 
L 83.895825 116.316269 
L 83.935064 116.283302 
L 84.091214 115.915118 
L 84.712335 114.322361 
L 84.921652 114.294484 
L 85.126014 114.530153 
L 85.413005 115.256787 
L 85.809542 116.939814 
L 86.318438 120.159456 
L 86.970896 125.871699 
L 87.471087 129.575734 
L 87.61331 129.769065 
L 87.643844 129.749015 
L 87.773613 129.465548 
L 88.077343 128.111342 
L 88.856892 124.754593 
L 89.622378 121.741944 
L 90.001908 118.835724 
L 90.976979 110.881159 
L 91.197144 110.509939 
L 91.308431 110.656965 
L 91.500472 111.392133 
L 91.72586 112.167871 
L 91.763625 112.121248 
L 91.860985 111.617545 
L 92.1003 108.825928 
L 92.523889 104.796553 
L 92.783426 104.000582 
L 92.914801 104.026059 
L 92.919355 104.031657 
L 93.077782 104.411003 
L 93.330221 105.694989 
L 93.738276 109.125805 
L 94.189184 112.354525 
L 94.315203 112.481117 
L 94.348951 112.457138 
L 94.505235 112.140884 
L 95.10292 110.831583 
L 95.310095 110.831695 
L 95.526241 111.096596 
L 95.832784 111.880308 
L 96.268426 113.680952 
L 96.900261 117.356034 
L 98.030545 123.972915 
L 98.451322 125.103857 
L 99.097352 126.075779 
L 99.565269 127.029287 
L 100.011356 128.493687 
L 100.525475 131.034628 
L 100.999284 133.066265 
L 101.07669 133.05253 
L 101.104143 133.008764 
L 101.238867 132.496533 
L 101.504966 130.397794 
L 102.559318 121.51497 
L 103.291459 116.121992 
L 104.358533 105.964746 
L 104.431921 105.971196 
L 104.463393 106.019339 
L 104.602268 106.536338 
L 104.843993 107.621272 
L 104.897829 107.495734 
L 105.012732 106.449502 
L 105.672155 99.36327 
L 105.847724 99.117148 
L 105.862857 99.123955 
L 105.984456 99.324338 
L 106.18855 100.18567 
L 106.515583 102.684604 
L 107.196566 107.988185 
L 107.281873 107.995244 
L 107.315353 107.954986 
L 107.498957 107.476895 
L 107.996872 106.236114 
L 108.209135 106.179741 
L 108.40131 106.39255 
L 108.670222 107.080574 
L 109.049885 108.744481 
L 110.115486 113.821798 
L 110.246058 113.687594 
L 110.488052 113.019352 
L 111.20988 110.966995 
L 111.476113 110.779167 
L 111.665075 110.901814 
L 111.891399 111.365413 
L 112.186157 112.549165 
L 112.836607 115.820872 
L 112.911334 115.711345 
L 113.061458 114.980698 
L 113.924707 110.001242 
L 114.116614 109.906676 
L 114.269819 110.122714 
L 114.496545 110.903042 
L 114.822105 112.936104 
L 115.658837 118.631894 
L 115.667542 118.629964 
L 115.780838 118.477879 
L 116.106264 117.491187 
L 116.455527 116.801994 
L 116.66163 116.774792 
L 116.859564 117.013288 
L 117.134769 117.751234 
L 117.503719 119.452731 
L 117.947797 122.640438 
L 118.430311 127.837506 
L 119.036567 134.205224 
L 119.09134 134.164098 
L 119.110893 134.118546 
L 119.264365 133.383064 
L 120.378713 125.80451 
L 121.329277 117.064973 
L 121.613991 116.220462 
L 121.747376 116.234785 
L 121.754607 116.243206 
L 121.91424 116.612711 
L 122.254397 117.614096 
L 122.310241 117.533525 
L 122.430234 116.904821 
L 122.738384 113.671588 
L 123.158759 110.321748 
L 123.430348 109.569934 
L 123.579937 109.587658 
L 123.743453 109.926927 
L 123.99616 111.054341 
L 124.388814 113.990969 
L 124.893156 117.38835 
L 125.021854 117.501231 
L 125.053459 117.478811 
L 125.211752 117.169422 
L 125.83073 115.84069 
L 126.030941 115.856933 
L 126.242802 116.14318 
L 126.535819 116.970795 
L 126.921643 118.801681 
L 127.376569 122.127174 
L 127.881849 127.609181 
L 128.354855 132.152944 
L 128.412038 132.193535 
L 128.462258 132.119554 
L 128.612918 131.474282 
L 129.713339 124.688442 
L 130.726712 115.076089 
L 130.961206 114.601733 
L 131.075573 114.709338 
L 131.263061 115.301892 
L 131.506126 116.008702 
L 131.541883 115.971457 
L 131.640046 115.552292 
L 131.854988 113.375962 
L 132.354375 108.729606 
L 132.628911 107.870714 
L 132.773411 107.866478 
L 132.780241 107.873335 
L 132.938267 108.200422 
L 133.185617 109.316212 
L 133.571976 112.255869 
L 134.086363 115.817282 
L 134.213988 115.930364 
L 134.245995 115.907595 
L 134.404958 115.596014 
L 135.01242 114.299772 
L 135.216112 114.309739 
L 135.430116 114.587092 
L 135.727954 115.393971 
L 136.127705 117.192577 
L 136.614504 120.493545 
L 137.200806 126.160451 
L 137.625199 129.476734 
L 137.710908 129.561769 
L 137.758315 129.508417 
L 137.900136 129.021773 
L 139.453608 121.168523 
L 140.497381 112.042452 
L 140.675628 111.810315 
L 140.691967 111.818469 
L 140.811557 112.029182 
L 141.050872 113.042923 
L 141.203675 113.45186 
L 141.243449 113.40147 
L 141.343889 112.881008 
L 141.593784 110.021933 
L 142.015632 106.143258 
L 142.278115 105.35105 
L 142.414312 105.374157 
L 142.417392 105.377822 
L 142.576623 105.745378 
L 142.828928 106.986726 
L 143.233099 110.285037 
L 143.697801 113.564552 
L 143.826632 113.691662 
L 143.859041 113.669183 
L 144.015459 113.361411 
L 144.61984 112.066027 
L 144.825675 112.072912 
L 145.04276 112.345769 
L 145.348901 113.144058 
L 145.775034 114.951065 
L 146.342587 118.422795 
L 147.633442 126.74246 
L 147.796021 126.77184 
L 147.79803 126.770206 
L 147.973465 126.481464 
L 148.353664 125.310335 
L 149.486895 121.801487 
L 150.194796 119.596513 
L 150.522766 117.602922 
L 151.004342 112.95876 
L 151.551272 108.455064 
L 151.791792 107.84543 
L 151.8925 107.948858 
L 152.053873 108.556081 
L 152.309259 109.619477 
L 152.357336 109.533442 
L 152.465544 108.760263 
L 153.278304 101.409682 
L 153.398028 101.379219 
L 153.422938 101.403353 
L 153.571321 101.748464 
L 153.813314 102.978146 
L 154.203156 106.304966 
L 154.689419 109.993165 
L 154.809947 110.114452 
L 154.845972 110.087635 
L 155.003194 109.754374 
L 155.585076 108.437928 
L 155.791715 108.429722 
L 156.00304 108.686097 
L 156.303423 109.457269 
L 156.736654 111.262757 
L 158.138261 117.638576 
L 158.357086 117.699149 
L 158.602829 117.495449 
L 159.26185 116.5341 
L 160.398563 114.656999 
L 160.873041 113.996488 
L 161.061065 114.034946 
L 161.258463 114.364964 
L 161.570095 114.953272 
L 161.611074 114.909341 
L 161.720219 114.493436 
L 161.924715 112.60662 
L 162.535792 106.860207 
L 162.803364 106.093809 
L 162.945587 106.119832 
L 163.105889 106.480362 
L 163.35632 107.688115 
L 163.75125 110.874494 
L 164.221711 114.196502 
L 164.340766 114.306148 
L 164.376656 114.278668 
L 164.533878 113.94171 
L 165.14308 112.525654 
L 165.351594 112.514676 
L 165.563455 112.766987 
L 165.862231 113.524678 
L 166.280061 115.264849 
L 166.84065 118.648471 
L 168.179047 127.195253 
L 168.349929 127.231402 
L 168.529381 126.960054 
L 168.909179 125.875058 
L 170.513138 121.080266 
L 170.943691 119.382903 
L 171.295365 116.941808 
L 172.450559 107.88335 
L 172.5435 107.895363 
L 172.567203 107.928709 
L 172.710766 108.384489 
L 173.001372 109.601204 
L 173.062038 109.46516 
L 173.185378 108.430857 
L 173.880423 101.554594 
L 174.064965 101.312983 
L 174.075544 101.317408 
L 174.199554 101.504804 
L 174.402577 102.306524 
L 174.722646 104.620145 
L 175.446216 110.051273 
L 175.542772 110.030133 
L 175.56219 110.004203 
L 175.758785 109.511231 
L 176.233129 108.416945 
L 176.453428 108.356593 
L 176.655111 108.561338 
L 176.937683 109.2202 
L 177.344532 110.808385 
L 178.031675 114.565046 
L 178.587175 117.078997 
L 178.870684 117.530045 
L 179.073171 117.50902 
L 179.354403 117.197863 
L 180.924213 114.750491 
L 181.47516 114.036925 
L 181.671487 114.077672 
L 181.871429 114.403419 
L 182.211586 115.07164 
L 182.257788 115.018053 
L 182.371353 114.557027 
L 182.588705 112.495946 
L 183.167507 107.089774 
L 183.441106 106.261358 
L 183.583329 106.268128 
L 183.588418 106.273589 
L 183.746309 106.614399 
L 183.992856 107.770507 
L 184.377608 110.817879 
L 184.873916 114.354502 
L 184.990962 114.457433 
L 185.027254 114.429021 
L 185.185949 114.085541 
L 185.790062 112.675036 
L 185.999379 112.660382 
L 186.210169 112.908555 
L 186.50707 113.657539 
L 186.921552 115.380684 
L 187.473437 118.720588 
L 188.824556 127.411287 
L 188.970395 127.383249 
L 189.159088 127.018003 
L 189.61147 125.509441 
L 190.625244 122.297008 
L 191.320958 120.017514 
L 191.662053 117.909661 
L 192.176038 112.970362 
L 192.702343 108.776863 
L 192.941658 108.191759 
L 193.043437 108.297567 
L 193.207356 108.909226 
L 193.459661 109.929559 
L 193.506399 109.849922 
L 193.612865 109.120878 
L 194.459374 101.685851 
L 194.578696 101.698852 
L 194.592088 101.71499 
L 194.7469 102.101398 
L 194.997732 103.43241 
L 195.409134 107.029922 
L 195.84866 110.258013 
L 195.97133 110.384578 
L 196.006685 110.358711 
L 196.162836 110.03141 
L 196.750209 108.710207 
L 196.95658 108.704873 
L 197.169245 108.964328 
L 197.47177 109.741253 
L 197.908349 111.55546 
L 199.381871 118.260883 
L 199.619981 118.352566 
L 199.886883 118.185698 
L 200.563447 117.397086 
L 201.194344 116.425987 
L 201.696812 115.164482 
L 202.297845 113.765936 
L 202.478771 113.757821 
L 202.657822 114.04588 
L 202.92593 114.511388 
L 202.965168 114.468774 
L 203.071501 114.054931 
L 203.271444 112.144418 
L 203.869932 106.328605 
L 204.135629 105.549047 
L 204.275174 105.574569 
L 204.276245 105.575848 
L 204.43561 105.940812 
L 204.686174 107.169193 
L 205.084988 110.429257 
L 205.545137 113.680342 
L 205.66513 113.793107 
L 205.700886 113.76599 
L 205.857974 113.431184 
L 206.465168 112.028564 
L 206.674083 112.017926 
L 206.886882 112.270579 
L 207.187532 113.028659 
L 207.611255 114.774919 
L 208.197423 118.236889 
L 209.504214 126.286229 
L 209.776875 126.686077 
L 209.985389 126.657272 
L 210.284968 126.33638 
L 211.042553 125.097675 
L 211.860403 123.413403 
L 212.604462 121.311215 
L 213.241386 118.900724 
L 213.610201 116.539756 
L 214.10075 111.602967 
L 214.631609 107.07304 
L 214.858872 106.526548 
L 214.955294 106.658029 
L 215.125372 107.391714 
L 215.334555 108.256816 
L 215.377945 108.180672 
L 215.479859 107.440759 
L 216.290744 99.892488 
L 216.401496 99.89364 
L 216.42212 99.917784 
L 216.573985 100.308582 
L 216.823478 101.675364 
L 217.237826 105.406414 
L 217.667174 108.613803 
L 217.784354 108.735366 
L 217.821985 108.706378 
L 217.978002 108.360837 
L 218.55801 106.992128 
L 218.760631 106.982449 
L 218.965528 107.239282 
L 219.256001 108.018879 
L 219.670483 109.852447 
L 220.74787 114.950233 
L 220.905092 114.92872 
L 221.103829 114.587183 
L 222.262237 112.166763 
L 222.501552 112.184194 
L 222.730555 112.452667 
L 223.007904 113.170399 
L 223.390379 114.885461 
L 223.719688 115.982386 
L 223.802987 115.855303 
L 223.952441 115.079776 
L 224.938896 108.800224 
L 225.106564 108.776598 
L 225.265259 109.05909 
L 225.504708 110.023203 
L 225.85665 112.501683 
L 226.503082 117.056576 
L 226.597629 117.083186 
L 226.63285 117.046171 
L 226.808821 116.619334 
L 227.359902 115.26572 
L 227.574843 115.216974 
L 227.773715 115.432999 
L 228.049188 116.116468 
L 228.42403 117.713873 
L 228.887393 120.74826 
L 229.412761 125.779856 
L 230.00817 131.193061 
L 230.069907 131.227593 
L 230.11785 131.161118 
L 230.265296 130.578908 
L 231.7881 121.921944 
L 232.707193 113.76712 
L 232.963248 113.132307 
L 233.080964 113.206329 
L 233.246623 113.689874 
L 233.548881 114.712867 
L 233.597761 114.642887 
L 233.708781 114.031332 
L 234.005682 110.683318 
L 234.40637 107.34034 
L 234.665907 106.631877 
L 234.803845 106.669652 
L 234.967361 107.048857 
L 235.223818 108.303386 
L 235.634685 111.618296 
L 236.087602 114.731609 
L 236.216835 114.856831 
L 236.248976 114.834546 
L 236.405394 114.527756 
L 237.015936 113.217559 
L 237.219896 113.228055 
L 237.435641 113.50594 
L 237.738032 114.314892 
L 238.150238 116.126762 
L 238.669044 119.49769 
L 239.413505 126.061351 
L 239.756073 128.018536 
L 239.85745 128.089298 
L 239.897492 128.051106 
L 240.043599 127.659519 
L 240.46384 125.649409 
L 241.026438 123.483262 
L 241.680101 121.223541 
L 241.996688 118.760562 
L 242.980197 110.3665 
L 243.163399 110.101604 
L 243.1788 110.10887 
L 243.293971 110.311986 
L 243.512796 111.281139 
L 243.688098 111.845814 
L 243.726399 111.796062 
L 243.82416 111.263955 
L 244.077537 108.227896 
L 244.481038 104.474674 
L 244.735888 103.725036 
L 244.867933 103.76613 
L 245.028235 104.162656 
L 245.284022 105.493242 
L 245.702656 109.061919 
L 246.134414 112.112918 
L 246.261103 112.240748 
L 246.294583 112.217174 
L 246.451001 111.902998 
L 247.047347 110.606889 
L 247.254521 110.608088 
L 247.471204 110.874093 
L 247.778818 111.66023 
L 248.217138 113.467603 
L 248.865177 117.207468 
L 249.915244 123.206376 
L 250.364813 124.48188 
L 251.556969 127.21126 
L 252.482624 130.436084 
L 252.554941 130.362963 
L 252.703324 129.877975 
L 252.981878 128.029754 
L 254.324292 116.48259 
L 255.172273 107.835376 
L 255.369672 107.401218 
L 255.381456 107.405592 
L 255.481763 107.583111 
L 255.702998 108.592438 
L 255.807992 108.8579 
L 255.855533 108.767634 
L 255.961866 107.956238 
L 256.753199 100.314074 
L 256.870379 100.270471 
L 256.899172 100.2973 
L 257.044609 100.640529 
L 257.284728 101.883541 
L 257.676042 105.281775 
L 258.152797 108.927975 
L 258.269307 109.045368 
L 258.306939 109.016134 
L 258.463625 108.66883 
L 259.045508 107.294242 
L 259.249066 107.282929 
L 259.454232 107.537647 
L 259.744838 108.311681 
L 260.159722 110.133397 
L 261.238716 115.20073 
L 261.396339 115.179263 
L 261.594675 114.838227 
L 262.792321 112.31993 
L 263.030163 112.343172 
L 263.258765 112.618478 
L 263.535845 113.351226 
L 263.939346 115.174399 
L 264.21348 115.983996 
L 264.220043 115.981949 
L 264.305484 115.826075 
L 264.464045 114.931817 
L 265.374299 108.816675 
L 265.569554 108.689058 
L 265.715527 108.891612 
L 265.934888 109.655392 
L 266.2571 111.703876 
L 267.04321 117.015224 
L 267.150212 116.918693 
L 267.380153 116.271433 
L 267.820348 115.217225 
L 268.044798 115.134095 
L 268.239384 115.322108 
L 268.506152 115.94398 
L 268.87162 117.43045 
L 269.328689 120.305895 
L 269.848298 125.101424 
L 270.510801 131.084565 
L 270.567047 131.09516 
L 270.609768 131.030422 
L 270.759892 130.435305 
L 272.301847 121.682122 
L 273.193084 113.735159 
L 273.454362 113.05063 
L 273.573953 113.116439 
L 273.736398 113.580294 
L 274.045217 114.634226 
L 274.096643 114.556753 
L 274.210341 113.905236 
L 274.535364 110.21282 
L 274.919581 107.173922 
L 275.171752 106.545892 
L 275.304735 106.6 
L 275.472403 107.009144 
L 275.734618 108.336144 
L 276.163564 111.866428 
L 276.5826 114.664305 
L 276.710627 114.78587 
L 276.74317 114.763017 
L 276.900526 114.452452 
L 277.506781 113.148758 
L 277.711545 113.156649 
L 277.926888 113.431376 
L 278.22861 114.233394 
L 278.640682 116.034159 
L 279.161229 119.394449 
L 279.912119 125.958912 
L 280.257766 127.92567 
L 280.363027 128.001751 
L 280.402132 127.965617 
L 280.547837 127.586307 
L 280.950534 125.69006 
L 281.531747 123.427156 
L 282.224917 121.029292 
L 282.546593 118.49137 
L 283.503585 110.282859 
L 283.697903 109.97654 
L 283.709018 109.981069 
L 283.821243 110.164577 
L 284.027212 111.051761 
L 284.222869 111.725781 
L 284.260367 111.677791 
L 284.357191 111.155063 
L 284.606148 108.171743 
L 285.012194 104.359582 
L 285.267312 103.601991 
L 285.399491 103.642045 
L 285.559391 104.037365 
L 285.814776 105.366536 
L 286.232607 108.932518 
L 286.66557 112.001461 
L 286.792125 112.129486 
L 286.825739 112.105778 
L 286.982157 111.790957 
L 287.577833 110.494435 
L 287.785008 110.495133 
L 288.001556 110.760517 
L 288.309036 111.545421 
L 288.747758 113.351874 
L 289.403163 117.120504 
L 290.410375 122.800721 
L 290.864364 124.097547 
L 292.083572 126.914674 
L 292.837407 129.1206 
L 292.955391 129.018992 
L 293.123594 128.477206 
L 293.43295 126.560124 
L 294.32566 119.206033 
L 295.540181 108.008868 
L 295.622943 108.015093 
L 295.652004 108.056584 
L 295.798245 108.542518 
L 296.022427 109.356368 
L 296.07037 109.2688 
L 296.176569 108.488782 
L 297.000578 100.744889 
L 297.113607 100.733134 
L 297.136909 100.75837 
L 297.287301 101.130948 
L 297.533982 102.444286 
L 297.940697 106.027572 
L 298.384106 109.330758 
L 298.502893 109.452864 
L 298.539721 109.424906 
L 298.69547 109.085661 
L 299.282977 107.714229 
L 299.487071 107.705555 
L 299.694647 107.962572 
L 299.989003 108.739134 
L 300.410985 110.562839 
L 301.545154 115.819489 
L 301.716437 115.820026 
L 301.918389 115.520743 
L 302.515404 114.045331 
L 303.015729 113.172953 
L 303.350931 112.966053 
L 303.594665 113.057533 
L 303.841882 113.420279 
L 304.140255 114.310984 
L 304.624912 115.912924 
L 304.663883 115.878814 
L 304.773027 115.513324 
L 304.988906 113.809912 
L 305.618464 108.78574 
L 305.890992 108.099967 
L 306.039107 108.128742 
L 306.205168 108.480514 
L 306.457741 109.627791 
L 306.840216 112.564692 
L 307.360897 116.241766 
L 307.473926 116.332777 
L 307.511022 116.302508 
L 307.670922 115.947776 
L 308.276375 114.501473 
L 308.483549 114.485428 
L 308.68992 114.733426 
L 308.978115 115.483949 
L 309.300327 116.836652 
L 309.300327 116.836652 
" style="fill: none; stroke: #0173b2; stroke-width: 1.2; stroke-linecap: square"/>
   </g>
  </g>
 </g>
</svg>
