<?xml version="1.0" encoding="utf-8" standalone="no"?>
<!DOCTYPE svg PUBLIC "-//W3C//DTD SVG 1.1//EN"
  "http://www.w3.org/Graphics/SVG/1.1/DTD/svg11.dtd">
<svg xmlns:xlink="http://www.w3.org/1999/xlink" width="370.860637pt" height="176.748012pt" viewBox="0 0 370.860637 176.748012" xmlns="http://www.w3.org/2000/svg" version="1.1">
 <metadata>
  <rdf:RDF xmlns:dc="http://purl.org/dc/elements/1.1/" xmlns:cc="http://creativecommons.org/ns#" xmlns:rdf="http://www.w3.org/1999/02/22-rdf-syntax-ns#">
   <cc:Work>
    <dc:type rdf:resource="http://purl.org/dc/dcmitype/StillImage"/>
    <dc:date>2024-12-10T05:25:25.276765</dc:date>
    <dc:format>image/svg+xml</dc:format>
    <dc:creator>
     <cc:Agent>
      <dc:title>Matplotlib v3.8.0, https://matplotlib.org/</dc:title>
     </cc:Agent>
    </dc:creator>
   </cc:Work>
  </rdf:RDF>
 </metadata>
 <defs>
  <style type="text/css">*{stroke-linejoin: round; stroke-linecap: butt}</style>
 </defs>
 <g id="figure_1">
  <g id="patch_1">
   <path d="M 0 176.748012 
L 370.860637 176.748012 
L 370.860637 0 
L 0 0 
z
" style="fill: #ffffff"/>
  </g>
  <g id="axes_1">
   <g id="patch_2">
    <path d="M 51.02351 143.214898 
L 318.86351 143.214898 
L 318.86351 10.158898 
L 51.02351 10.158898 
z
" style="fill: #ffffff"/>
   </g>
   <g id="matplotlib.axis_1">
    <g id="xtick_1">
     <g id="line2d_1">
      <defs>
       <path id="mdf8106147e" d="M 0 0 
L 0 -3 
" style="stroke: #000000; stroke-width: 0.5"/>
      </defs>
      <g>
       <use xlink:href="#mdf8106147e" x="51.02351" y="143.214898" style="stroke: #000000; stroke-width: 0.5"/>
      </g>
     </g>
     <g id="text_1">
      <!-- $30$ -->
      <g transform="translate(46.639954 154.132693) scale(0.088 -0.088)">
       <defs>
        <path id="NimbusRomNo9L-Regu-33" d="M 979 2137 
C 1357 2137 1504 2124 1658 2067 
C 2054 1926 2304 1561 2304 1120 
C 2304 582 1939 166 1466 166 
C 1293 166 1165 211 928 364 
C 736 480 627 524 518 524 
C 371 524 275 435 275 300 
C 275 76 550 -64 998 -64 
C 1491 -64 1997 102 2298 364 
C 2598 627 2765 998 2765 1427 
C 2765 1753 2662 2054 2477 2252 
C 2349 2393 2227 2470 1946 2592 
C 2387 2892 2547 3129 2547 3475 
C 2547 3993 2138 4352 1549 4352 
C 1229 4352 947 4243 717 4038 
C 525 3865 429 3699 288 3315 
L 384 3289 
C 646 3757 934 3967 1338 3967 
C 1754 3967 2042 3686 2042 3283 
C 2042 3052 1946 2822 1786 2662 
C 1594 2470 1414 2374 979 2220 
L 979 2137 
z
" transform="scale(0.015625)"/>
        <path id="NimbusRomNo9L-Regu-30" d="M 1626 4352 
C 1274 4352 1005 4243 768 4019 
C 397 3661 154 2924 154 2176 
C 154 1478 365 729 666 371 
C 902 89 1229 -64 1600 -64 
C 1926 -64 2202 44 2432 268 
C 2803 620 3046 1363 3046 2137 
C 3046 3449 2464 4352 1626 4352 
z
M 1606 4185 
C 2144 4185 2432 3462 2432 2124 
C 2432 787 2150 102 1600 102 
C 1050 102 768 787 768 2118 
C 768 3475 1056 4185 1606 4185 
z
" transform="scale(0.015625)"/>
       </defs>
       <use xlink:href="#NimbusRomNo9L-Regu-33" transform="scale(0.996264)"/>
       <use xlink:href="#NimbusRomNo9L-Regu-30" transform="translate(49.8132 0) scale(0.996264)"/>
      </g>
     </g>
    </g>
    <g id="xtick_2">
     <g id="line2d_2">
      <g>
       <use xlink:href="#mdf8106147e" x="84.50351" y="143.214898" style="stroke: #000000; stroke-width: 0.5"/>
      </g>
     </g>
     <g id="text_2">
      <!-- $32.5$ -->
      <g transform="translate(76.832288 154.132693) scale(0.088 -0.088)">
       <defs>
        <path id="NimbusRomNo9L-Regu-32" d="M 3040 879 
L 2957 912 
C 2720 544 2637 486 2349 486 
L 819 486 
L 1894 1621 
C 2464 2221 2714 2711 2714 3214 
C 2714 3858 2195 4352 1530 4352 
C 1178 4352 845 4211 608 3955 
C 403 3736 307 3530 198 3072 
L 333 3039 
C 589 3671 819 3878 1261 3878 
C 1798 3878 2163 3510 2163 2969 
C 2163 2466 1869 1866 1331 1292 
L 192 76 
L 192 0 
L 2688 0 
L 3040 879 
z
" transform="scale(0.015625)"/>
        <path id="rtxmi-3a" d="M 1158 217 
C 1158 416 992 582 800 582 
C 608 582 448 422 448 217 
C 448 -26 666 -128 800 -128 
C 934 -128 1158 -20 1158 217 
z
" transform="scale(0.015625)"/>
        <path id="NimbusRomNo9L-Regu-35" d="M 1158 3718 
L 2413 3718 
C 2515 3718 2541 3731 2560 3775 
L 2803 4345 
L 2746 4390 
C 2650 4256 2586 4224 2451 4224 
L 1114 4224 
L 416 2717 
C 410 2705 410 2698 410 2686 
C 410 2654 435 2635 486 2635 
C 691 2635 947 2591 1210 2508 
C 1946 2274 2285 1882 2285 1255 
C 2285 647 1894 172 1395 172 
C 1267 172 1158 217 966 356 
C 762 502 614 565 480 565 
C 294 565 205 489 205 331 
C 205 89 506 -64 986 -64 
C 1523 -64 1984 108 2304 432 
C 2598 717 2733 1078 2733 1559 
C 2733 2015 2611 2306 2291 2622 
C 2010 2901 1645 3047 890 3180 
L 1158 3718 
z
" transform="scale(0.015625)"/>
       </defs>
       <use xlink:href="#NimbusRomNo9L-Regu-33" transform="scale(0.996264)"/>
       <use xlink:href="#NimbusRomNo9L-Regu-32" transform="translate(49.8132 0) scale(0.996264)"/>
       <use xlink:href="#rtxmi-3a" transform="translate(99.626401 0) scale(0.996264)"/>
       <use xlink:href="#NimbusRomNo9L-Regu-35" transform="translate(124.533001 0) scale(0.996264)"/>
      </g>
     </g>
    </g>
    <g id="xtick_3">
     <g id="line2d_3">
      <g>
       <use xlink:href="#mdf8106147e" x="117.98351" y="143.214898" style="stroke: #000000; stroke-width: 0.5"/>
      </g>
     </g>
     <g id="text_3">
      <!-- $35$ -->
      <g transform="translate(113.599954 154.132693) scale(0.088 -0.088)">
       <use xlink:href="#NimbusRomNo9L-Regu-33" transform="scale(0.996264)"/>
       <use xlink:href="#NimbusRomNo9L-Regu-35" transform="translate(49.8132 0) scale(0.996264)"/>
      </g>
     </g>
    </g>
    <g id="xtick_4">
     <g id="line2d_4">
      <g>
       <use xlink:href="#mdf8106147e" x="151.46351" y="143.214898" style="stroke: #000000; stroke-width: 0.5"/>
      </g>
     </g>
     <g id="text_4">
      <!-- $37.5$ -->
      <g transform="translate(143.792288 154.132693) scale(0.088 -0.088)">
       <defs>
        <path id="NimbusRomNo9L-Regu-37" d="M 2874 4224 
L 506 4224 
L 128 3283 
L 237 3232 
C 512 3667 627 3750 979 3750 
L 2368 3750 
L 1101 -64 
L 1517 -64 
L 2874 4121 
L 2874 4224 
z
" transform="scale(0.015625)"/>
       </defs>
       <use xlink:href="#NimbusRomNo9L-Regu-33" transform="scale(0.996264)"/>
       <use xlink:href="#NimbusRomNo9L-Regu-37" transform="translate(49.8132 0) scale(0.996264)"/>
       <use xlink:href="#rtxmi-3a" transform="translate(99.626401 0) scale(0.996264)"/>
       <use xlink:href="#NimbusRomNo9L-Regu-35" transform="translate(124.533001 0) scale(0.996264)"/>
      </g>
     </g>
    </g>
    <g id="xtick_5">
     <g id="line2d_5">
      <g>
       <use xlink:href="#mdf8106147e" x="184.94351" y="143.214898" style="stroke: #000000; stroke-width: 0.5"/>
      </g>
     </g>
     <g id="text_5">
      <!-- $40$ -->
      <g transform="translate(180.559954 154.132693) scale(0.088 -0.088)">
       <defs>
        <path id="NimbusRomNo9L-Regu-34" d="M 3021 1497 
L 2368 1497 
L 2368 4352 
L 2086 4352 
L 77 1497 
L 77 1088 
L 1875 1088 
L 1875 0 
L 2368 0 
L 2368 1088 
L 3021 1088 
L 3021 1497 
z
M 1869 1497 
L 333 1497 
L 1869 3697 
L 1869 1497 
z
" transform="scale(0.015625)"/>
       </defs>
       <use xlink:href="#NimbusRomNo9L-Regu-34" transform="scale(0.996264)"/>
       <use xlink:href="#NimbusRomNo9L-Regu-30" transform="translate(49.8132 0) scale(0.996264)"/>
      </g>
     </g>
    </g>
    <g id="xtick_6">
     <g id="line2d_6">
      <g>
       <use xlink:href="#mdf8106147e" x="218.42351" y="143.214898" style="stroke: #000000; stroke-width: 0.5"/>
      </g>
     </g>
     <g id="text_6">
      <!-- $42.5$ -->
      <g transform="translate(210.752288 154.132693) scale(0.088 -0.088)">
       <use xlink:href="#NimbusRomNo9L-Regu-34" transform="scale(0.996264)"/>
       <use xlink:href="#NimbusRomNo9L-Regu-32" transform="translate(49.8132 0) scale(0.996264)"/>
       <use xlink:href="#rtxmi-3a" transform="translate(99.626401 0) scale(0.996264)"/>
       <use xlink:href="#NimbusRomNo9L-Regu-35" transform="translate(124.533001 0) scale(0.996264)"/>
      </g>
     </g>
    </g>
    <g id="xtick_7">
     <g id="line2d_7">
      <g>
       <use xlink:href="#mdf8106147e" x="251.90351" y="143.214898" style="stroke: #000000; stroke-width: 0.5"/>
      </g>
     </g>
     <g id="text_7">
      <!-- $45$ -->
      <g transform="translate(247.519954 154.132693) scale(0.088 -0.088)">
       <use xlink:href="#NimbusRomNo9L-Regu-34" transform="scale(0.996264)"/>
       <use xlink:href="#NimbusRomNo9L-Regu-35" transform="translate(49.8132 0) scale(0.996264)"/>
      </g>
     </g>
    </g>
    <g id="xtick_8">
     <g id="line2d_8">
      <g>
       <use xlink:href="#mdf8106147e" x="285.38351" y="143.214898" style="stroke: #000000; stroke-width: 0.5"/>
      </g>
     </g>
     <g id="text_8">
      <!-- $47.5$ -->
      <g transform="translate(277.712288 154.132693) scale(0.088 -0.088)">
       <use xlink:href="#NimbusRomNo9L-Regu-34" transform="scale(0.996264)"/>
       <use xlink:href="#NimbusRomNo9L-Regu-37" transform="translate(49.8132 0) scale(0.996264)"/>
       <use xlink:href="#rtxmi-3a" transform="translate(99.626401 0) scale(0.996264)"/>
       <use xlink:href="#NimbusRomNo9L-Regu-35" transform="translate(124.533001 0) scale(0.996264)"/>
      </g>
     </g>
    </g>
    <g id="xtick_9">
     <g id="line2d_9">
      <g>
       <use xlink:href="#mdf8106147e" x="318.86351" y="143.214898" style="stroke: #000000; stroke-width: 0.5"/>
      </g>
     </g>
     <g id="text_9">
      <!-- $50$ -->
      <g transform="translate(314.479954 154.132693) scale(0.088 -0.088)">
       <use xlink:href="#NimbusRomNo9L-Regu-35" transform="scale(0.996264)"/>
       <use xlink:href="#NimbusRomNo9L-Regu-30" transform="translate(49.8132 0) scale(0.996264)"/>
      </g>
     </g>
    </g>
    <g id="text_10">
     <!-- $t$ -->
     <g transform="translate(183.614099 167.482166) scale(0.096 -0.096)">
      <defs>
       <path id="NimbusRomNo9L-ReguItal-74" d="M 1894 2752 
L 1382 2752 
L 1562 3411 
C 1568 3424 1568 3436 1568 3443 
C 1568 3488 1549 3507 1517 3507 
C 1478 3507 1459 3500 1421 3449 
C 1171 3123 774 2803 570 2745 
C 410 2694 365 2655 365 2585 
C 365 2579 365 2566 371 2547 
L 845 2547 
L 384 782 
C 371 724 365 705 346 647 
C 288 454 237 230 237 179 
C 237 38 371 -64 544 -64 
C 838 -64 1050 115 1453 711 
L 1370 756 
C 1056 352 954 249 851 249 
C 794 249 755 300 755 377 
C 755 384 755 390 762 410 
L 1325 2547 
L 1862 2547 
L 1894 2752 
z
" transform="scale(0.015625)"/>
      </defs>
      <use xlink:href="#NimbusRomNo9L-ReguItal-74" transform="scale(0.996264)"/>
     </g>
    </g>
   </g>
   <g id="matplotlib.axis_2">
    <g id="ytick_1">
     <g id="line2d_10">
      <defs>
       <path id="m57f08ede0d" d="M 0 0 
L 3 0 
" style="stroke: #000000; stroke-width: 0.5"/>
      </defs>
      <g>
       <use xlink:href="#m57f08ede0d" x="51.02351" y="143.214898" style="stroke: #000000; stroke-width: 0.5"/>
      </g>
     </g>
     <g id="text_11">
      <!-- $-0.003$ -->
      <g transform="translate(20.721633 146.173795) scale(0.088 -0.088)">
       <defs>
        <path id="txsy-0" d="M 3674 1472 
L 3674 1830 
L 397 1830 
L 397 1472 
L 3674 1472 
z
" transform="scale(0.015625)"/>
       </defs>
       <use xlink:href="#txsy-0" transform="scale(0.996264)"/>
       <use xlink:href="#NimbusRomNo9L-Regu-30" transform="translate(63.362352 0) scale(0.996264)"/>
       <use xlink:href="#rtxmi-3a" transform="translate(113.175552 0) scale(0.996264)"/>
       <use xlink:href="#NimbusRomNo9L-Regu-30" transform="translate(138.082152 0) scale(0.996264)"/>
       <use xlink:href="#NimbusRomNo9L-Regu-30" transform="translate(187.895353 0) scale(0.996264)"/>
       <use xlink:href="#NimbusRomNo9L-Regu-33" transform="translate(237.708553 0) scale(0.996264)"/>
      </g>
     </g>
    </g>
    <g id="ytick_2">
     <g id="line2d_11">
      <g>
       <use xlink:href="#m57f08ede0d" x="51.02351" y="121.038898" style="stroke: #000000; stroke-width: 0.5"/>
      </g>
     </g>
     <g id="text_12">
      <!-- $-0.002$ -->
      <g transform="translate(20.721633 123.997795) scale(0.088 -0.088)">
       <use xlink:href="#txsy-0" transform="scale(0.996264)"/>
       <use xlink:href="#NimbusRomNo9L-Regu-30" transform="translate(63.362352 0) scale(0.996264)"/>
       <use xlink:href="#rtxmi-3a" transform="translate(113.175552 0) scale(0.996264)"/>
       <use xlink:href="#NimbusRomNo9L-Regu-30" transform="translate(138.082152 0) scale(0.996264)"/>
       <use xlink:href="#NimbusRomNo9L-Regu-30" transform="translate(187.895353 0) scale(0.996264)"/>
       <use xlink:href="#NimbusRomNo9L-Regu-32" transform="translate(237.708553 0) scale(0.996264)"/>
      </g>
     </g>
    </g>
    <g id="ytick_3">
     <g id="line2d_12">
      <g>
       <use xlink:href="#m57f08ede0d" x="51.02351" y="98.862898" style="stroke: #000000; stroke-width: 0.5"/>
      </g>
     </g>
     <g id="text_13">
      <!-- $-0.001$ -->
      <g transform="translate(20.721633 101.821795) scale(0.088 -0.088)">
       <defs>
        <path id="NimbusRomNo9L-Regu-31" d="M 1862 4352 
L 710 3776 
L 710 3686 
C 787 3718 858 3743 883 3756 
C 998 3801 1107 3826 1171 3826 
C 1306 3826 1363 3731 1363 3525 
L 1363 599 
C 1363 386 1312 238 1210 179 
C 1114 121 1024 102 755 96 
L 755 0 
L 2522 0 
L 2522 96 
C 2016 102 1914 167 1914 477 
L 1914 4339 
L 1862 4352 
z
" transform="scale(0.015625)"/>
       </defs>
       <use xlink:href="#txsy-0" transform="scale(0.996264)"/>
       <use xlink:href="#NimbusRomNo9L-Regu-30" transform="translate(63.362352 0) scale(0.996264)"/>
       <use xlink:href="#rtxmi-3a" transform="translate(113.175552 0) scale(0.996264)"/>
       <use xlink:href="#NimbusRomNo9L-Regu-30" transform="translate(138.082152 0) scale(0.996264)"/>
       <use xlink:href="#NimbusRomNo9L-Regu-30" transform="translate(187.895353 0) scale(0.996264)"/>
       <use xlink:href="#NimbusRomNo9L-Regu-31" transform="translate(237.708553 0) scale(0.996264)"/>
      </g>
     </g>
    </g>
    <g id="ytick_4">
     <g id="line2d_13">
      <g>
       <use xlink:href="#m57f08ede0d" x="51.02351" y="76.686898" style="stroke: #000000; stroke-width: 0.5"/>
      </g>
     </g>
     <g id="text_14">
      <!-- $0$ -->
      <g transform="translate(41.639954 79.645795) scale(0.088 -0.088)">
       <use xlink:href="#NimbusRomNo9L-Regu-30" transform="scale(0.996264)"/>
      </g>
     </g>
    </g>
    <g id="ytick_5">
     <g id="line2d_14">
      <g>
       <use xlink:href="#m57f08ede0d" x="51.02351" y="54.510898" style="stroke: #000000; stroke-width: 0.5"/>
      </g>
     </g>
     <g id="text_15">
      <!-- $0.001$ -->
      <g transform="translate(26.29751 57.469795) scale(0.088 -0.088)">
       <use xlink:href="#NimbusRomNo9L-Regu-30" transform="scale(0.996264)"/>
       <use xlink:href="#rtxmi-3a" transform="translate(49.8132 0) scale(0.996264)"/>
       <use xlink:href="#NimbusRomNo9L-Regu-30" transform="translate(74.719801 0) scale(0.996264)"/>
       <use xlink:href="#NimbusRomNo9L-Regu-30" transform="translate(124.533001 0) scale(0.996264)"/>
       <use xlink:href="#NimbusRomNo9L-Regu-31" transform="translate(174.346202 0) scale(0.996264)"/>
      </g>
     </g>
    </g>
    <g id="ytick_6">
     <g id="line2d_15">
      <g>
       <use xlink:href="#m57f08ede0d" x="51.02351" y="32.334898" style="stroke: #000000; stroke-width: 0.5"/>
      </g>
     </g>
     <g id="text_16">
      <!-- $0.002$ -->
      <g transform="translate(26.29751 35.293795) scale(0.088 -0.088)">
       <use xlink:href="#NimbusRomNo9L-Regu-30" transform="scale(0.996264)"/>
       <use xlink:href="#rtxmi-3a" transform="translate(49.8132 0) scale(0.996264)"/>
       <use xlink:href="#NimbusRomNo9L-Regu-30" transform="translate(74.719801 0) scale(0.996264)"/>
       <use xlink:href="#NimbusRomNo9L-Regu-30" transform="translate(124.533001 0) scale(0.996264)"/>
       <use xlink:href="#NimbusRomNo9L-Regu-32" transform="translate(174.346202 0) scale(0.996264)"/>
      </g>
     </g>
    </g>
    <g id="ytick_7">
     <g id="line2d_16">
      <g>
       <use xlink:href="#m57f08ede0d" x="51.02351" y="10.158898" style="stroke: #000000; stroke-width: 0.5"/>
      </g>
     </g>
     <g id="text_17">
      <!-- $0.003$ -->
      <g transform="translate(26.29751 13.117795) scale(0.088 -0.088)">
       <use xlink:href="#NimbusRomNo9L-Regu-30" transform="scale(0.996264)"/>
       <use xlink:href="#rtxmi-3a" transform="translate(49.8132 0) scale(0.996264)"/>
       <use xlink:href="#NimbusRomNo9L-Regu-30" transform="translate(74.719801 0) scale(0.996264)"/>
       <use xlink:href="#NimbusRomNo9L-Regu-30" transform="translate(124.533001 0) scale(0.996264)"/>
       <use xlink:href="#NimbusRomNo9L-Regu-33" transform="translate(174.346202 0) scale(0.996264)"/>
      </g>
     </g>
    </g>
    <g id="text_18">
     <!-- $m, m_r$ -->
     <g transform="translate(13.655787 86.88686) rotate(-90) scale(0.096 -0.096)">
      <defs>
       <path id="NimbusRomNo9L-ReguItal-6d" d="M 4410 742 
C 4346 665 4294 601 4275 575 
C 4096 345 3962 236 3866 236 
C 3814 236 3782 275 3782 339 
C 3782 371 3808 473 3846 627 
L 4282 2233 
C 4288 2259 4301 2374 4301 2412 
C 4301 2643 4141 2816 3923 2816 
C 3802 2816 3674 2771 3520 2675 
C 3206 2470 2944 2163 2502 1459 
C 2662 1945 2758 2310 2758 2431 
C 2758 2655 2611 2816 2394 2816 
C 2003 2816 1555 2393 966 1465 
L 1338 2803 
L 1318 2816 
C 960 2739 826 2713 294 2617 
L 294 2515 
L 454 2515 
C 621 2515 704 2470 704 2374 
C 704 2303 557 1721 326 908 
C 179 384 160 320 77 -7 
L 557 -7 
C 864 1011 960 1247 1178 1580 
C 1536 2124 1920 2483 2138 2483 
C 2221 2483 2266 2425 2266 2323 
C 2266 2265 2061 1491 1658 -7 
L 2138 -7 
C 2394 991 2522 1311 2848 1766 
C 3162 2201 3482 2483 3667 2483 
C 3738 2483 3795 2419 3795 2348 
C 3795 2316 3782 2239 3750 2124 
L 3379 652 
C 3322 416 3296 294 3296 230 
C 3296 38 3386 -64 3552 -64 
C 3853 -64 4134 147 4474 620 
L 4506 665 
L 4410 742 
z
" transform="scale(0.015625)"/>
       <path id="rtxmi-3b" d="M 1248 25 
C 1248 556 877 640 730 640 
C 570 640 358 543 358 268 
C 358 12 589 -52 755 -52 
C 800 -52 832 -45 851 -39 
C 877 -33 896 -26 909 -26 
C 954 -26 998 -58 998 -116 
C 998 -237 896 -525 474 -794 
L 531 -916 
C 723 -852 1248 -429 1248 25 
z
" transform="scale(0.015625)"/>
       <path id="NimbusRomNo9L-ReguItal-72" d="M 774 0 
C 1107 1085 1216 1360 1510 1845 
C 1722 2202 1901 2400 2010 2400 
C 2048 2400 2080 2375 2112 2311 
C 2163 2202 2214 2170 2342 2170 
C 2528 2170 2637 2285 2637 2483 
C 2637 2681 2515 2816 2336 2816 
C 2189 2816 2016 2719 1850 2547 
C 1587 2279 1331 1902 1229 1647 
L 1139 1417 
L 1478 2803 
L 1459 2816 
C 992 2732 934 2719 467 2643 
L 467 2534 
C 621 2566 640 2566 685 2566 
C 826 2566 909 2502 909 2387 
C 909 2298 909 2298 806 1864 
L 288 0 
L 774 0 
z
" transform="scale(0.015625)"/>
      </defs>
      <use xlink:href="#NimbusRomNo9L-ReguItal-6d" transform="scale(0.996264)"/>
      <use xlink:href="#rtxmi-3b" transform="translate(71.930274 0) scale(0.996264)"/>
      <use xlink:href="#NimbusRomNo9L-ReguItal-6d" transform="translate(113.441234 0) scale(0.996264)"/>
      <use xlink:href="#NimbusRomNo9L-ReguItal-72" transform="translate(185.371507 -14.943915) scale(0.697382)"/>
     </g>
    </g>
   </g>
   <g id="patch_3">
    <path d="M 51.02351 143.214898 
L 51.02351 10.158898 
" style="fill: none; stroke: #000000; stroke-width: 0.625; stroke-linejoin: miter; stroke-linecap: square"/>
   </g>
   <g id="patch_4">
    <path d="M 318.86351 143.214898 
L 318.86351 10.158898 
" style="fill: none; stroke: #000000; stroke-width: 0.625; stroke-linejoin: miter; stroke-linecap: square"/>
   </g>
   <g id="patch_5">
    <path d="M 51.02351 143.214898 
L 318.86351 143.214898 
" style="fill: none; stroke: #000000; stroke-width: 0.625; stroke-linejoin: miter; stroke-linecap: square"/>
   </g>
   <g id="patch_6">
    <path d="M 51.02351 10.158898 
L 318.86351 10.158898 
" style="fill: none; stroke: #000000; stroke-width: 0.625; stroke-linejoin: miter; stroke-linecap: square"/>
   </g>
   <g id="legend_1">
    <g id="patch_7">
     <path d="M 323.26351 42.10627 
L 363.660637 42.10627 
L 363.660637 14.558898 
L 323.26351 14.558898 
z
" style="fill: #ffffff; stroke: #000000; stroke-width: 0.5; stroke-linejoin: miter"/>
    </g>
    <g id="line2d_17">
     <path d="M 326.78351 21.158898 
L 335.58351 21.158898 
L 344.38351 21.158898 
" style="fill: none; stroke: #0173b2; stroke-width: 1.2; stroke-linecap: square"/>
    </g>
    <g id="text_19">
     <!-- $m$ -->
     <g transform="translate(351.42351 24.238898) scale(0.088 -0.088)">
      <use xlink:href="#NimbusRomNo9L-ReguItal-6d" transform="scale(0.996264)"/>
     </g>
    </g>
    <g id="line2d_18">
     <path d="M 326.78351 33.612584 
L 335.58351 33.612584 
L 344.38351 33.612584 
" style="fill: none; stroke: #de8f05; stroke-opacity: 0.7; stroke-width: 1.8; stroke-linecap: square"/>
    </g>
    <g id="text_20">
     <!-- $m_r$ -->
     <g transform="translate(351.42351 36.692584) scale(0.088 -0.088)">
      <use xlink:href="#NimbusRomNo9L-ReguItal-6d" transform="scale(0.996264)"/>
      <use xlink:href="#NimbusRomNo9L-ReguItal-72" transform="translate(71.930274 -14.943915) scale(0.697382)"/>
     </g>
    </g>
   </g>
   <g id="line2d_19">
    <path d="M 51.02351 76.686898 
L 51.033688 76.576588 
L 52.833037 57.78953 
L 53.739675 50.557824 
L 54.429899 46.66942 
L 54.967186 44.769622 
L 55.373231 44.033803 
L 55.665713 43.886975 
L 55.908376 44.010257 
L 56.1955 44.442028 
L 56.565923 45.450026 
L 57.038125 47.446768 
L 57.631926 51.013052 
L 58.38536 57.010466 
L 59.410651 67.137519 
L 62.600894 99.922583 
L 63.380576 105.168285 
L 63.98643 107.88977 
L 64.453007 109.093759 
L 64.79611 109.462723 
L 65.049219 109.450471 
L 65.307417 109.189067 
L 65.635521 108.497554 
L 66.057369 107.031324 
L 66.590371 104.296078 
L 67.260774 99.59046 
L 68.131522 91.76017 
L 69.491078 77.215137 
L 69.565269 75.158708 
L 70.228441 43.359045 
L 70.526011 37.648968 
L 70.612524 37.346349 
L 70.663681 37.464571 
L 70.774031 38.467147 
L 70.969555 42.660107 
L 71.283463 54.962163 
L 72.656411 115.620365 
L 72.756047 116.027504 
L 72.804526 115.922717 
L 72.911662 114.991422 
L 73.103168 111.009007 
L 73.410648 99.210989 
L 74.095783 61.572052 
L 74.585662 41.411482 
L 74.852699 37.435333 
L 74.901714 37.346611 
L 74.955282 37.481625 
L 75.069381 38.571044 
L 75.269726 43.020279 
L 75.591134 55.920753 
L 76.91587 115.351219 
L 77.04363 116.027537 
L 77.084074 115.954951 
L 77.182371 115.205332 
L 77.36236 111.787538 
L 77.65243 101.338136 
L 78.202842 71.612879 
L 78.812445 43.110872 
L 79.106534 37.616354 
L 79.188225 37.346331 
L 79.240454 37.468849 
L 79.351875 38.494918 
L 79.548738 42.75772 
L 79.864789 55.227305 
L 81.224077 115.550098 
L 81.331748 116.027518 
L 81.378353 115.93095 
L 81.483614 115.041698 
L 81.672709 111.184559 
L 81.976171 99.695232 
L 82.616309 64.561487 
L 83.138329 42.02265 
L 83.415544 37.49276 
L 83.476879 37.346459 
L 83.530983 37.481041 
L 83.644815 38.565481 
L 83.844891 43.000669 
L 84.166031 55.875439 
L 85.492911 115.364109 
L 85.619599 116.027524 
L 85.660311 115.953497 
L 85.759144 115.194169 
L 85.939936 111.741799 
L 86.231078 101.21106 
L 86.892643 76.395478 
L 88.344335 74.50346 
L 89.177853 73.766086 
L 89.854149 73.44754 
L 90.459468 73.401201 
L 91.059162 73.581531 
L 91.716709 74.022985 
L 92.510587 74.843371 
L 93.668459 76.401657 
L 95.523251 78.873533 
L 96.355965 79.609149 
L 97.031994 79.926757 
L 97.637312 79.972378 
L 98.237274 79.79122 
L 98.895089 79.348749 
L 99.68977 78.526562 
L 100.850321 76.963648 
L 101.06245 76.464159 
L 102.116132 66.017883 
L 102.626903 62.945151 
L 102.97456 61.969541 
L 103.189635 61.859271 
L 103.359178 62.042021 
L 103.595948 62.688856 
L 103.930748 64.342182 
L 104.400004 67.92105 
L 105.152367 75.652371 
L 106.327381 87.416376 
L 106.835741 90.451355 
L 107.181523 91.409225 
L 107.395259 91.513655 
L 107.565337 91.326804 
L 107.803447 90.66973 
L 108.139854 88.996268 
L 108.61152 85.379772 
L 109.372186 77.539477 
L 109.488696 75.018908 
L 110.242666 47.803265 
L 110.597822 41.707232 
L 110.777275 40.922723 
L 110.797095 40.934929 
L 110.878786 41.193121 
L 111.03333 42.586207 
L 111.282153 47.190681 
L 111.664628 59.024526 
L 113.186495 111.01915 
L 113.418445 112.449734 
L 113.478709 112.381778 
L 113.48728 112.357315 
L 113.607272 111.630333 
L 113.812437 108.768745 
L 114.128489 100.762771 
L 114.655062 80.773949 
L 115.555272 47.550015 
L 115.906411 41.653435 
L 116.079703 40.922728 
L 116.102202 40.938142 
L 116.186571 41.221927 
L 116.345132 42.7086 
L 116.598777 47.536041 
L 116.989555 59.861307 
L 118.458122 110.631215 
L 118.704803 112.437108 
L 118.745247 112.444172 
L 118.787565 112.363657 
L 118.905683 111.665852 
L 119.108438 108.88747 
L 119.421007 101.070425 
L 119.93767 81.605525 
L 120.863325 47.411453 
L 121.212321 41.623717 
L 121.382131 40.922733 
L 121.405969 40.939914 
L 121.491678 41.236987 
L 121.652114 42.769854 
L 121.908437 47.715666 
L 122.303769 60.305171 
L 123.745016 110.4187 
L 123.998928 112.425562 
L 124.04339 112.447289 
L 124.090262 112.362741 
L 124.208647 111.660756 
L 124.411938 108.866941 
L 124.725043 101.019307 
L 125.243313 81.46888 
L 125.510082 74.930879 
L 126.397435 66.098801 
L 126.873655 63.306412 
L 127.191045 62.512414 
L 127.378266 62.475625 
L 127.54888 62.723371 
L 127.795828 63.546336 
L 128.147234 65.599316 
L 128.652648 70.042736 
L 130.713945 89.824161 
L 131.052227 90.815192 
L 131.256053 90.910103 
L 131.419703 90.709002 
L 131.654063 89.998762 
L 131.988863 88.172876 
L 132.46669 84.173323 
L 133.338509 74.577147 
L 134.202829 66.036984 
L 134.67637 63.285344 
L 134.991885 62.508719 
L 135.177766 62.477117 
L 135.349184 62.730112 
L 135.597472 63.565571 
L 135.950753 65.644181 
L 136.459381 70.138603 
L 138.497643 89.763272 
L 138.840478 90.802102 
L 139.048322 90.912379 
L 139.210365 90.721937 
L 139.441511 90.038392 
L 139.772294 88.266156 
L 140.243424 84.372956 
L 140.972485 76.256567 
L 142.240171 52.73709 
L 142.866917 44.921472 
L 143.315281 41.718358 
L 143.622226 40.809964 
L 143.796054 40.77397 
L 143.953276 41.040516 
L 144.186833 41.955837 
L 144.516276 44.271043 
L 144.961694 49.166301 
L 145.569958 58.580902 
L 146.590429 78.465255 
L 147.797048 100.716189 
L 148.422187 108.486901 
L 148.869479 111.667473 
L 149.17562 112.565945 
L 149.348645 112.599057 
L 149.506403 112.329376 
L 149.740763 111.405885 
L 150.07101 109.075424 
L 150.517231 104.156291 
L 151.127103 94.695891 
L 152.686735 69.202673 
L 153.969956 55.567486 
L 154.797314 48.956345 
L 155.429684 45.511133 
L 155.915814 43.93972 
L 156.273648 43.414668 
L 156.525954 43.372617 
L 156.761653 43.579147 
L 157.06083 44.180787 
L 157.451073 45.524766 
L 157.949255 48.11949 
L 158.579483 52.689028 
L 159.398002 60.400297 
L 160.639976 74.503948 
L 162.587708 96.385686 
L 163.454439 103.659278 
L 164.111986 107.48479 
L 164.619007 109.280424 
L 164.995322 109.921592 
L 165.260216 110.011389 
L 165.491094 109.844966 
L 165.778219 109.321909 
L 166.153462 108.11946 
L 166.633967 105.75548 
L 167.241964 101.544044 
L 168.025128 94.42266 
L 169.158091 81.838032 
L 169.795551 75.631389 
L 170.689868 71.629331 
L 171.189658 70.292827 
L 171.537046 69.894945 
L 171.786941 69.899739 
L 172.040318 70.153986 
L 172.370297 70.844927 
L 172.821875 72.370811 
L 173.516116 75.618201 
L 174.833085 81.783775 
L 175.329125 83.094583 
L 175.674371 83.481374 
L 175.923194 83.471776 
L 176.177642 83.211619 
L 176.509496 82.509146 
L 176.96402 80.961568 
L 177.666833 77.658929 
L 177.869587 76.043932 
L 178.699624 44.084629 
L 179.08451 36.588883 
L 179.312977 35.300402 
L 179.381812 35.39876 
L 179.505019 36.137029 
L 179.713398 38.986947 
L 180.029449 46.825224 
L 180.525221 65.509851 
L 181.711217 111.524063 
L 182.063694 117.315944 
L 182.244486 118.073741 
L 182.263771 118.062695 
L 182.34573 117.817885 
L 182.500005 116.496228 
L 182.746954 112.136627 
L 183.117912 101.071877 
L 183.784566 73.13047 
L 184.55541 43.909034 
L 184.937885 36.544895 
L 185.164478 35.300051 
L 185.232777 35.403795 
L 185.357323 36.163554 
L 185.567309 39.071146 
L 185.885771 47.040797 
L 186.386632 66.027221 
L 187.552003 111.317179 
L 187.907695 117.270012 
L 188.093844 118.07374 
L 188.110718 118.065036 
L 188.190266 117.841077 
L 188.34106 116.595442 
L 188.583455 112.427923 
L 188.947718 101.76834 
L 189.961224 69.851065 
L 190.92893 55.743196 
L 191.520589 50.013832 
L 191.944044 47.757462 
L 192.22849 47.191751 
L 192.392408 47.221635 
L 192.571861 47.552882 
L 192.831933 48.578894 
L 193.192178 51.024634 
L 193.677504 56.020411 
L 194.358086 65.596352 
L 196.738648 101.208372 
L 197.235491 104.837944 
L 197.585022 106.040095 
L 197.800901 106.195969 
L 197.956248 106.028273 
L 198.176145 105.393369 
L 198.487911 103.715007 
L 198.911098 100.071588 
L 199.485883 92.980196 
L 200.387968 78.670363 
L 200.703751 75.214026 
L 201.28791 71.790049 
L 201.603158 71.009939 
L 201.781539 70.989891 
L 201.951618 71.259604 
L 202.206333 72.158031 
L 202.605147 74.512439 
L 203.786054 81.933117 
L 204.060054 82.405424 
L 204.216205 82.348265 
L 204.403693 81.96837 
L 204.687067 80.804843 
L 205.150431 77.797572 
L 206.074211 71.820553 
L 206.392405 71.014818 
L 206.572929 70.987877 
L 206.741936 71.250674 
L 206.994777 72.132289 
L 207.389841 74.447473 
L 208.589764 81.961697 
L 208.859747 82.407522 
L 209.014558 82.343338 
L 209.204189 81.94955 
L 209.490778 80.754256 
L 209.962712 77.663211 
L 210.115649 75.712688 
L 210.681327 55.556611 
L 210.920508 52.975557 
L 210.944881 52.974189 
L 210.982915 53.070486 
L 211.090051 53.980209 
L 211.284502 57.904146 
L 211.621177 70.038417 
L 212.402734 98.598222 
L 212.613524 100.405079 
L 212.62022 100.402783 
L 212.676467 100.236767 
L 212.797798 98.997981 
L 213.011803 94.097334 
L 213.397224 79.131799 
L 214.044326 55.471441 
L 214.281364 52.973483 
L 214.305738 52.976397 
L 214.341092 53.068192 
L 214.447693 53.966189 
L 214.641341 57.85276 
L 214.976409 69.889152 
L 215.763591 98.634003 
L 215.972238 100.405081 
L 215.980005 100.402089 
L 216.037591 100.22395 
L 216.161065 98.929024 
L 216.378016 93.870458 
L 216.772276 78.410865 
L 217.155287 66.378558 
L 217.587849 57.650699 
L 217.825423 56.172997 
L 217.873634 56.200575 
L 217.898543 56.258547 
L 218.019071 56.955624 
L 218.227451 59.714698 
L 218.566001 67.653191 
L 219.691732 96.26575 
L 219.892344 97.204257 
L 219.903058 97.20035 
L 219.976982 97.023277 
L 220.119473 95.952964 
L 220.357315 92.178017 
L 220.755593 81.684849 
L 221.627412 58.511146 
L 221.895787 56.222068 
L 221.951766 56.171437 
L 222.002388 56.255267 
L 222.121844 56.936765 
L 222.328617 59.647748 
L 222.664488 67.470676 
L 223.804147 96.334331 
L 223.99726 97.204264 
L 224.011188 97.198149 
L 224.08779 96.998187 
L 224.234834 95.838376 
L 224.478836 91.832382 
L 224.892114 80.718597 
L 225.716793 58.743524 
L 225.9924 56.242549 
L 226.055343 56.170867 
L 226.106768 56.253564 
L 226.225689 56.927163 
L 226.431926 59.618629 
L 226.766726 67.393905 
L 227.912277 96.362635 
L 228.102444 97.204241 
L 228.117711 97.196895 
L 228.19592 96.983946 
L 228.345375 95.774991 
L 228.592859 91.639291 
L 229.014707 80.174735 
L 229.814745 58.85154 
L 230.093299 56.253751 
L 230.159991 56.170747 
L 230.211416 56.252634 
L 230.330069 56.922129 
L 230.53577 59.598926 
L 230.869767 67.339754 
L 232.019604 96.383429 
L 232.20736 97.204248 
L 232.223698 97.196013 
L 232.302711 96.975539 
L 232.453505 95.738452 
L 232.702864 91.530716 
L 233.129801 79.861225 
L 233.605217 68.556898 
L 233.886716 65.746816 
L 233.945106 65.674999 
L 233.997067 65.766627 
L 234.115184 66.510188 
L 234.328385 69.549565 
L 234.805675 80.514672 
L 235.203954 87.101176 
L 235.355551 87.699792 
L 235.387156 87.668486 
L 235.480632 87.261207 
L 235.656871 85.28739 
L 235.97935 78.658079 
L 236.597793 66.448177 
L 236.769746 65.673962 
L 236.793316 65.691739 
L 236.877686 66.001114 
L 237.040265 67.631616 
L 237.331407 73.23603 
L 238.042522 87.174451 
L 238.184745 87.699774 
L 238.219832 87.661462 
L 238.317058 87.209487 
L 238.498921 85.085461 
L 238.836132 77.987792 
L 239.419487 66.515953 
L 239.598672 65.673947 
L 239.619296 65.687697 
L 239.700184 65.963384 
L 239.857406 67.468814 
L 240.137834 72.714795 
L 240.887786 87.288571 
L 241.013939 87.699756 
L 241.054383 87.64944 
L 241.157501 87.124009 
L 241.347935 84.76169 
L 241.711126 76.867425 
L 242.243592 66.563098 
L 242.427598 65.673932 
L 242.446347 65.685337 
L 242.525092 65.940681 
L 242.6791 67.371406 
L 242.9531 72.401914 
L 243.727962 87.358915 
L 243.843401 87.699693 
L 243.887059 87.640638 
L 243.993659 87.06735 
L 244.18945 84.551564 
L 244.578889 75.975426 
L 245.294826 62.133671 
L 245.624804 59.301851 
L 245.76676 59.039519 
L 245.799704 59.064127 
L 245.909251 59.376916 
L 246.098078 60.728804 
L 246.394041 64.716243 
L 246.897312 75.061362 
L 247.72092 91.311465 
L 248.048489 94.08412 
L 248.187498 94.33423 
L 248.221245 94.308441 
L 248.331595 93.988864 
L 248.521494 92.61694 
L 248.819064 88.582227 
L 249.327157 78.100556 
L 250.139783 62.084122 
L 250.468155 59.293128 
L 250.607968 59.039542 
L 250.641715 59.065241 
L 250.751798 59.383318 
L 250.941428 60.750693 
L 251.238731 64.77646 
L 251.745752 75.228385 
L 252.560789 91.295405 
L 252.888893 94.081358 
L 253.028438 94.334277 
L 253.062186 94.308668 
L 253.172268 93.990882 
L 253.361899 92.623986 
L 253.659201 88.598855 
L 254.166222 78.147461 
L 254.981259 62.079545 
L 255.309631 59.291749 
L 255.449176 59.039565 
L 255.482923 59.065353 
L 255.593274 59.384924 
L 255.783172 60.756838 
L 256.080742 64.791539 
L 256.588835 75.2732 
L 257.401461 91.289651 
L 257.729833 94.080661 
L 257.869646 94.334254 
L 257.903394 94.308556 
L 258.013476 93.990485 
L 258.203107 92.623119 
L 258.500409 88.597365 
L 259.00743 78.145449 
L 260.744372 41.032984 
L 261.175059 37.02056 
L 261.462184 35.983065 
L 261.586461 35.954305 
L 261.609228 35.976686 
L 261.753326 36.316437 
L 261.977776 37.520162 
L 262.299719 40.631347 
L 262.741655 47.32373 
L 263.367062 60.579439 
L 265.615579 111.526409 
L 266.065014 116.077133 
L 266.368745 117.35039 
L 266.507754 117.42813 
L 266.531859 117.409135 
L 266.669529 117.117063 
L 266.88514 116.03737 
L 267.196638 113.178214 
L 267.625182 106.939046 
L 268.226215 94.554215 
L 270.65472 40.508502 
L 271.072551 36.849679 
L 271.347622 35.963211 
L 271.468954 35.968026 
L 271.484221 35.985854 
L 271.632872 36.360081 
L 271.863214 37.650872 
L 272.192122 40.936351 
L 272.643432 47.94644 
L 273.286516 61.8251 
L 275.415844 110.588939 
L 275.885368 115.745448 
L 276.206508 117.292236 
L 276.367212 117.432356 
L 276.386764 117.420299 
L 276.51747 117.177715 
L 276.722903 116.231248 
L 277.022348 113.648544 
L 277.435358 107.916205 
L 278.010142 96.478275 
L 278.826519 75.444531 
L 279.432105 44.454783 
L 279.693517 39.873229 
L 279.733425 39.798992 
L 279.785922 39.959627 
L 279.898147 41.278247 
L 280.098223 46.755263 
L 280.433559 63.119341 
L 281.370463 111.273563 
L 281.579914 113.57512 
L 281.587146 113.571944 
L 281.639374 113.383717 
L 281.75642 111.918356 
L 281.962925 106.012528 
L 282.311117 88.542889 
L 283.195257 42.644255 
L 283.42426 39.79936 
L 283.453187 39.832776 
L 283.4714 39.89952 
L 283.571304 40.889162 
L 283.755043 45.355663 
L 284.060648 59.151865 
L 285.140579 112.597368 
L 285.276909 113.575117 
L 285.314675 113.49692 
L 285.408687 112.646074 
L 285.584658 108.625953 
L 285.876871 95.973516 
L 287.029922 40.277456 
L 287.125809 39.798713 
L 287.175359 39.934629 
L 287.283031 41.124098 
L 287.476947 46.209537 
L 287.800498 61.562891 
L 288.789899 111.797649 
L 288.973905 113.575114 
L 288.992386 113.555724 
L 289.061489 113.161548 
L 289.203712 110.782642 
L 289.444768 102.352966 
L 289.88215 77.651247 
L 290.522824 44.458344 
L 290.784235 39.873695 
L 290.824144 39.798962 
L 290.876908 39.960512 
L 290.989133 41.280904 
L 291.18921 46.7608 
L 291.524545 63.12815 
L 292.461182 111.271017 
L 292.670633 113.575126 
L 292.677864 113.572039 
L 292.729825 113.386162 
L 292.846603 111.930456 
L 293.052572 106.057655 
L 293.399961 88.66106 
L 293.90966 65.020717 
L 294.436234 50.469164 
L 294.735679 47.054546 
L 294.830762 46.85717 
L 294.878973 46.924634 
L 294.991734 47.520602 
L 295.188061 49.981712 
L 295.495005 57.075553 
L 296.025864 75.487948 
L 296.812778 101.185712 
L 297.14731 106.033063 
L 297.291676 106.516959 
L 297.325692 106.484014 
L 297.422918 106.081182 
L 297.599156 104.20861 
L 297.877978 98.479037 
L 298.330627 83.826223 
L 299.326457 51.133844 
L 299.640365 47.15552 
L 299.755268 46.856984 
L 299.798659 46.910753 
L 299.906062 47.43513 
L 300.095693 49.687355 
L 300.392728 56.294364 
L 300.893053 73.27999 
L 301.74773 101.391311 
L 302.078245 106.070132 
L 302.217254 106.516932 
L 302.253144 106.480227 
L 302.352513 106.053554 
L 302.53143 104.10663 
L 302.814001 98.200938 
L 303.27549 83.104947 
L 303.583506 75.780762 
L 304.04419 73.548335 
L 304.268105 73.272915 
L 304.400953 73.412959 
L 304.602101 74.032192 
L 304.950561 75.968382 
L 305.65498 79.817315 
L 305.880234 80.101213 
L 306.012814 79.964625 
L 306.212891 79.354457 
L 306.558137 77.446295 
L 307.271662 73.549058 
L 307.495577 73.27286 
L 307.628425 73.412438 
L 307.829573 74.03104 
L 308.177765 75.964852 
L 308.882988 79.818007 
L 309.108241 80.101166 
L 309.240822 79.964137 
L 309.440899 79.353376 
L 309.786412 77.442871 
L 310.499134 73.549782 
L 310.723316 73.272859 
L 310.856165 73.412423 
L 311.057313 74.031009 
L 311.405505 75.964803 
L 312.110728 79.817987 
L 312.335981 80.101167 
L 312.468562 79.964151 
L 312.668638 79.353407 
L 313.014152 77.44292 
L 313.185837 75.603342 
L 314.571374 51.292374 
L 315.279007 42.514243 
L 315.798081 38.500624 
L 316.173325 37.048963 
L 316.415452 36.78704 
L 316.571603 36.90175 
L 316.779179 37.397421 
L 317.073803 38.763471 
L 317.47101 41.788069 
L 317.993565 47.65667 
L 318.697985 58.338354 
L 318.86351 61.198111 
L 318.86351 61.198111 
" clip-path="url(#p4301d3d117)" style="fill: none; stroke: #0173b2; stroke-width: 1.2; stroke-linecap: square"/>
   </g>
   <g id="line2d_20">
    <path d="M 51.02351 76.686898 
L 51.023778 76.687097 
L 51.036098 76.559386 
L 51.685878 70.992854 
L 53.03472 62.643272 
L 53.382109 61.552068 
L 53.566918 61.483624 
L 53.718516 61.724444 
L 53.944037 62.582544 
L 54.274016 64.843804 
L 54.770591 70.008359 
L 56.955094 94.775247 
L 57.377746 96.791695 
L 57.635408 97.19622 
L 57.774417 97.108267 
L 57.95012 96.652567 
L 58.195997 95.296213 
L 58.514995 92.127213 
L 58.916487 85.657551 
L 59.483504 72.38233 
L 60.225956 55.99573 
L 60.477458 54.219632 
L 60.516295 54.219785 
L 60.555132 54.298506 
L 60.671107 55.009483 
L 60.869576 57.870227 
L 61.187502 66.217626 
L 62.400014 101.420737 
L 62.657408 103.111486 
L 62.723029 103.14847 
L 62.769901 103.084055 
L 62.899 102.540844 
L 63.127735 100.432714 
L 63.522263 94.375418 
L 65.237779 65.640434 
L 65.843097 60.077593 
L 66.392169 56.892956 
L 66.822856 55.51039 
L 67.100874 55.203827 
L 67.272827 55.289789 
L 67.471296 55.696766 
L 67.730565 56.812605 
L 68.051706 59.299747 
L 68.437395 64.218832 
L 68.922453 73.593186 
L 69.538753 88.179184 
L 69.605713 86.49964 
L 70.269689 72.418092 
L 70.533243 70.617822 
L 70.597257 70.577353 
L 70.644932 70.644607 
L 70.770817 71.205348 
L 70.990446 73.390072 
L 71.36569 79.748398 
L 72.072787 91.491695 
L 72.215814 92.00151 
L 72.251437 91.961104 
L 72.346252 91.496291 
L 72.512313 89.341904 
L 72.762208 82.72147 
L 73.136112 65.974158 
L 74.176939 16.397489 
L 74.345946 14.875653 
L 74.371926 14.914202 
L 74.450135 15.487976 
L 74.601197 18.582397 
L 74.840646 28.828526 
L 75.203837 55.373899 
L 76.521074 161.227869 
L 76.693563 163.387265 
L 76.717401 163.34473 
L 76.792128 162.668957 
L 76.941315 158.876975 
L 77.184782 146.050332 
L 77.571543 112.031134 
L 78.699149 6.737467 
L 78.957079 0.27227 
L 78.994844 0.169999 
L 79.047877 0.394937 
L 79.158763 2.244918 
L 79.355625 9.949943 
L 79.670873 32.4395 
L 81.002841 139.224807 
L 81.069265 139.605408 
L 81.123905 139.334793 
L 81.235058 137.147991 
L 81.431653 128.064452 
L 81.75815 100.84317 
L 82.573187 30.553321 
L 82.775942 26.841362 
L 82.785048 26.848874 
L 82.834599 27.143679 
L 82.952448 29.494121 
L 83.170202 39.13832 
L 83.579997 69.150885 
L 84.475922 134.273689 
L 84.802419 144.262536 
L 84.92509 145.100995 
L 84.967409 144.994728 
L 85.065974 143.946137 
L 85.243284 139.226633 
L 85.517016 125.063672 
L 85.941811 89.733855 
L 86.81979 15.681035 
L 86.962817 14.90224 
L 86.996832 14.948309 
L 87.090844 15.503751 
L 87.271636 18.173406 
L 87.576706 26.521871 
L 88.128724 48.866864 
L 89.218297 92.461761 
L 89.64818 101.668105 
L 89.910128 103.657188 
L 89.961821 103.689096 
L 90.010032 103.608528 
L 90.129489 102.946996 
L 90.331708 100.340965 
L 90.643474 92.984285 
L 91.387533 68.058159 
L 91.800811 58.980453 
L 92.03651 57.422552 
L 92.080168 57.434785 
L 92.113112 57.503452 
L 92.236318 58.18985 
L 92.460768 60.945014 
L 92.901633 69.713313 
L 93.626676 83.156721 
L 94.00058 86.489514 
L 94.255028 87.223905 
L 94.388145 87.18199 
L 94.554474 86.78568 
L 94.837848 85.427924 
L 95.399509 81.401301 
L 96.298648 75.329823 
L 96.826025 73.180571 
L 97.259122 72.236622 
L 97.61401 71.924927 
L 97.914526 71.933306 
L 98.230578 72.182032 
L 98.605286 72.788538 
L 99.037579 73.948423 
L 99.535226 75.980622 
L 100.887015 81.975792 
L 101.027631 81.91323 
L 101.060575 81.687524 
L 101.640181 73.828505 
L 102.246571 66.787289 
L 102.56155 65.233505 
L 102.707791 65.112599 
L 102.7327 65.129726 
L 102.865281 65.399976 
L 103.081696 66.449181 
L 103.42212 69.375115 
L 104.039491 76.997907 
L 104.93997 87.480561 
L 105.370924 90.214925 
L 105.646799 90.853769 
L 105.792772 90.815261 
L 105.958565 90.450416 
L 106.206049 89.275111 
L 106.554509 86.393337 
L 107.036889 80.325052 
L 107.802376 67.428695 
L 108.886056 49.837732 
L 109.323171 45.918163 
L 109.47584 44.46378 
L 109.922061 33.093404 
L 110.116781 31.715599 
L 110.132316 31.725867 
L 110.200079 31.991371 
L 110.335339 33.628132 
L 110.553628 39.450752 
L 110.882268 55.096036 
L 112.00425 113.980669 
L 112.063442 114.207206 
L 112.118349 113.998912 
L 112.231646 112.320609 
L 112.439757 105.289283 
L 112.879551 80.877875 
L 113.401839 56.781043 
L 113.721907 50.610277 
L 113.952518 49.406668 
L 114.02912 49.402663 
L 114.064207 49.448597 
L 114.222768 49.934868 
L 114.590245 51.956253 
L 115.092713 55.83696 
L 115.442244 60.506259 
L 115.811059 68.786417 
L 116.271209 84.77199 
L 117.634514 135.867351 
L 117.826288 137.153013 
L 117.842358 137.142238 
L 117.911729 136.875613 
L 118.049398 135.260779 
L 118.269563 129.600773 
L 118.588828 114.825494 
L 119.073619 80.491419 
L 120.048288 10.852748 
L 120.31961 4.473469 
L 120.364607 4.340576 
L 120.418711 4.552817 
L 120.529329 6.274001 
L 120.721906 13.395395 
L 121.025636 34.243701 
L 122.170652 121.776634 
L 122.301358 122.970982 
L 122.340463 122.865457 
L 122.437421 121.747878 
L 122.62732 116.469649 
L 122.990779 98.905014 
L 123.960359 51.173238 
L 124.494164 36.231827 
L 124.966902 28.454669 
L 125.275454 26.247964 
L 125.356341 26.1329 
L 125.36277 26.328534 
L 125.936215 47.575382 
L 126.973291 84.6033 
L 127.602983 99.415181 
L 128.138128 107.31326 
L 128.554619 110.658234 
L 128.829691 111.474154 
L 128.954772 111.452653 
L 128.963611 111.44144 
L 129.111994 111.055912 
L 129.334569 109.748521 
L 129.637496 106.462439 
L 130.028007 99.513398 
L 130.558062 85.590997 
L 131.47595 61.486948 
L 131.707096 59.905421 
L 131.767092 60.013861 
L 131.883334 60.866916 
L 132.085286 64.311858 
L 132.43562 74.837466 
L 133.121827 94.928532 
L 133.37065 97.065688 
L 133.413772 97.089149 
L 133.461448 97.002085 
L 133.583047 96.275778 
L 133.808033 93.31956 
L 134.275146 83.524636 
L 134.906177 71.811051 
L 135.236691 69.104781 
L 135.408377 68.788813 
L 135.428197 68.798395 
L 135.537475 69.013805 
L 135.727106 69.99268 
L 136.040747 72.981562 
L 136.702312 82.005196 
L 137.333878 89.246709 
L 137.681267 91.124497 
L 137.864469 91.337741 
L 137.877058 91.331719 
L 138.000264 91.130997 
L 138.19418 90.295378 
L 138.482376 87.918089 
L 138.896457 82.404044 
L 139.59793 69.520348 
L 140.388594 56.261774 
L 140.723929 53.681657 
L 140.846868 53.488267 
L 140.88624 53.52418 
L 140.951325 53.694184 
L 140.997126 53.490958 
L 141.10694 53.302772 
L 141.150598 53.350403 
L 141.262555 53.804233 
L 141.452454 55.686312 
L 141.748149 61.208651 
L 142.679965 80.217599 
L 142.714516 80.239982 
L 142.761656 80.136454 
L 142.873613 79.261585 
L 143.071547 75.622291 
L 143.422953 64.237556 
L 144.115587 42.419403 
L 144.371107 39.927423 
L 144.415568 39.889883 
L 144.465922 39.986868 
L 144.584039 40.778245 
L 144.793758 43.974494 
L 145.141147 53.237781 
L 146.806843 102.946073 
L 147.124502 105.637184 
L 147.275028 105.91193 
L 147.304222 105.892998 
L 147.414037 105.617323 
L 147.603132 104.413907 
L 147.894274 100.905369 
L 148.320407 92.722916 
L 148.984383 75.073366 
L 150.318494 39.255016 
L 150.686774 34.668361 
L 150.846674 34.165512 
L 150.875333 34.188104 
L 150.967738 34.512323 
L 151.129245 36.06318 
L 151.367355 40.847927 
L 151.693316 52.507615 
L 152.149448 77.800658 
L 152.784764 113.298439 
L 153.016982 117.014546 
L 153.034659 117.002718 
L 153.059836 116.911634 
L 153.153848 115.802568 
L 153.330622 110.560702 
L 153.636763 93.639919 
L 154.606612 36.343385 
L 154.884094 31.547517 
L 154.969267 31.295841 
L 155.020961 31.398554 
L 155.136132 32.270027 
L 155.349065 35.906557 
L 155.723505 46.785185 
L 157.259299 95.325405 
L 157.766053 103.279659 
L 158.213078 107.182137 
L 158.607606 108.918909 
L 158.936514 109.52168 
L 159.184801 109.596762 
L 159.415411 109.418917 
L 159.704411 108.874826 
L 160.057156 107.685906 
L 160.455434 105.489296 
L 160.890942 101.72843 
L 161.377607 95.411689 
L 162.01587 83.824353 
L 162.717343 72.08162 
L 162.937775 71.018483 
L 162.943668 71.019977 
L 163.012503 71.166793 
L 163.141334 72.119331 
L 163.348106 75.612426 
L 163.665764 85.387763 
L 164.632131 117.477871 
L 164.822298 118.598775 
L 164.836493 118.591559 
L 164.908006 118.371786 
L 165.053979 117.030452 
L 165.310838 112.239078 
L 165.801253 98.062944 
L 166.7861 70.221893 
L 167.319102 61.181832 
L 167.770145 56.877626 
L 168.152084 55.073175 
L 168.452869 54.531876 
L 168.666337 54.511455 
L 168.886234 54.750232 
L 169.193714 55.463301 
L 169.593867 57.004926 
L 170.860483 72.694157 
L 171.704982 81.644072 
L 172.099243 83.884397 
L 172.296908 84.160197 
L 172.306015 84.156408 
L 172.420651 83.974616 
L 172.598764 83.175188 
L 172.864194 80.791859 
L 173.301041 74.463488 
L 173.878236 66.936551 
L 174.093847 66.200146 
L 174.097597 66.200946 
L 174.180627 66.339361 
L 174.329814 67.151223 
L 174.588012 70.020662 
L 175.847663 86.07816 
L 176.027116 86.332467 
L 176.041579 86.325981 
L 176.161304 86.127399 
L 176.36272 85.26325 
L 176.700734 82.663758 
L 177.867713 70.825435 
L 178.458568 48.522568 
L 178.741675 44.421335 
L 178.807563 44.275942 
L 178.861131 44.39344 
L 178.974427 45.344595 
L 179.170219 49.221601 
L 179.46886 60.236978 
L 179.936241 86.985716 
L 181.0759 154.375158 
L 181.391148 161.385739 
L 181.50123 161.900265 
L 181.547031 161.802827 
L 181.650417 160.899384 
L 181.833084 156.974305 
L 182.109763 145.495343 
L 182.512326 118.26612 
L 183.253707 49.544559 
L 183.866562 -1 
M 184.895806 -1 
L 185.247508 32.528468 
L 186.220571 131.669547 
L 186.341902 133.449833 
L 186.384757 133.229463 
L 186.484661 131.0636 
L 186.678309 121.064039 
L 187.09855 84.775939 
L 187.636909 45.510314 
L 187.965548 35.218052 
L 188.20098 33.127072 
L 188.256423 33.08592 
L 188.307044 33.162646 
L 188.443911 33.803366 
L 188.763176 36.634435 
L 189.635799 46.496887 
L 190.531456 74.573926 
L 191.061243 84.652948 
L 191.502911 89.332342 
L 191.851371 91.04915 
L 192.077428 91.337448 
L 192.211616 91.209097 
L 192.400443 90.641079 
L 192.665337 89.03291 
L 193.005494 85.431149 
L 193.432699 78.266281 
L 194.193096 60.745783 
L 194.656459 52.874984 
L 194.877695 51.794739 
L 194.880374 51.795197 
L 194.949744 51.925647 
L 195.079915 52.79497 
L 195.296865 56.022509 
L 195.645057 65.087204 
L 196.781234 96.977033 
L 197.063538 99.271055 
L 197.155407 99.3873 
L 197.202279 99.333209 
L 197.324146 98.851561 
L 197.53815 96.923772 
L 197.88902 91.416401 
L 198.641383 75.128689 
L 199.400174 60.854032 
L 199.859787 55.849803 
L 200.171017 54.410106 
L 200.31699 54.301527 
L 200.341096 54.318622 
L 200.474212 54.591333 
L 200.540369 55.170957 
L 200.989001 62.853715 
L 201.708151 79.636685 
L 202.470691 95.83389 
L 202.785403 98.710524 
L 202.884772 98.878191 
L 202.931376 98.821767 
L 203.04494 98.312457 
L 203.238053 96.226936 
L 203.538837 90.166713 
L 204.777865 62.00273 
L 204.887947 61.778728 
L 204.932141 61.827806 
L 205.046777 62.302193 
L 205.257567 64.310932 
L 205.653702 70.652469 
L 206.596499 85.806648 
L 207.035221 89.46781 
L 207.356093 90.621337 
L 207.549474 90.729273 
L 207.698928 90.519183 
L 207.920164 89.746633 
L 208.23434 87.7258 
L 208.666366 83.315925 
L 209.390874 73.176057 
L 210.199215 59.68889 
L 210.594814 47.447954 
L 210.73543 46.403982 
L 210.771857 46.479267 
L 210.863726 47.321221 
L 211.03434 51.344117 
L 211.315572 64.159395 
L 212.344613 116.18529 
L 212.396842 116.368937 
L 212.451481 116.148296 
L 212.563171 114.373653 
L 212.761372 107.004552 
L 213.101529 84.504771 
L 213.810501 37.979966 
L 214.003614 35.016776 
L 214.018613 35.035519 
L 214.079413 35.481445 
L 214.211726 38.456344 
L 214.443943 49.61782 
L 214.912127 85.505118 
L 215.439772 119.426274 
L 215.687792 124.593341 
L 215.713237 124.632222 
L 215.76118 124.452949 
L 215.868048 122.877838 
L 216.061697 116.101952 
L 216.388194 95.487009 
L 217.225997 40.414003 
L 217.518211 34.034567 
L 217.603384 33.69833 
L 217.655345 33.832637 
L 217.766498 34.966036 
L 217.965503 39.70978 
L 218.292 53.699955 
L 219.522993 111.830372 
L 219.704588 113.212933 
L 219.723873 113.196064 
L 219.79619 112.853866 
L 219.942163 110.850046 
L 220.186433 103.893278 
L 220.602656 84.535501 
L 221.421711 46.905596 
L 221.69705 42.56726 
L 221.754636 42.440979 
L 221.808739 42.575994 
L 221.922839 43.662586 
L 222.123184 48.100239 
L 222.448609 61.08029 
L 223.485686 105.817827 
L 223.612374 106.618197 
L 223.653354 106.528622 
L 223.751651 105.617055 
L 223.933782 101.441014 
L 224.250369 88.107127 
L 225.060585 52.945348 
L 225.301909 50.223489 
L 225.331371 50.207402 
L 225.376904 50.313938 
L 225.489397 51.239043 
L 225.692687 55.103011 
L 226.029362 66.440364 
L 227.409542 118.029001 
L 227.54239 118.651204 
L 227.581227 118.591976 
L 227.678185 117.958441 
L 227.853353 115.053909 
L 228.126817 106.219012 
L 228.565539 83.637112 
L 229.493605 35.451473 
L 229.781265 30.201816 
L 229.854653 29.98021 
L 229.907953 30.112818 
L 230.020446 31.200142 
L 230.21838 35.684245 
L 230.533627 48.705898 
L 231.279562 92.152158 
L 231.739175 111.070969 
L 231.993891 114.647916 
L 232.029514 114.692183 
L 232.080136 114.559528 
L 232.192093 113.456866 
L 232.390294 108.882699 
L 232.71197 95.446941 
L 233.68048 51.933363 
L 233.802615 51.123604 
L 233.845201 51.228572 
L 233.94457 52.261484 
L 234.128576 56.958683 
L 234.460162 72.271869 
L 235.076194 99.448957 
L 235.266092 101.454909 
L 235.282163 101.439865 
L 235.347248 101.087166 
L 235.486257 98.835879 
L 235.738027 90.44869 
L 236.671449 56.139506 
L 236.768943 55.728641 
L 236.817957 55.840421 
L 236.927504 56.829695 
L 237.132669 61.107094 
L 237.587194 76.581614 
L 238.013327 87.554917 
L 238.195459 88.756594 
L 238.214475 88.741839 
L 238.288667 88.434939 
L 238.439996 86.649397 
L 238.719621 80.184401 
L 239.400203 64.248674 
L 239.527159 63.707934 
L 239.567871 63.770625 
L 239.668311 64.416984 
L 239.854459 67.356458 
L 240.19917 77.067994 
L 240.773419 92.050049 
L 240.953139 93.1901 
L 240.974031 93.17255 
L 241.050365 92.840153 
L 241.202498 90.964791 
L 241.471677 84.366386 
L 242.287518 63.03027 
L 242.392243 62.649209 
L 242.439383 62.736158 
L 242.547055 63.527585 
L 242.745792 66.968285 
L 243.146213 78.717466 
L 243.612255 89.971578 
L 243.779387 90.978336 
L 243.805635 90.95046 
L 243.88813 90.529527 
L 244.048834 88.308149 
L 244.33328 80.695603 
L 245.101445 59.315448 
L 245.343572 57.462654 
L 245.379999 57.464099 
L 245.4183 57.544419 
L 245.535882 58.282083 
L 245.747207 61.295553 
L 246.133968 70.635783 
L 246.957308 90.275388 
L 247.283805 93.516615 
L 247.424689 93.824756 
L 247.458705 93.797462 
L 247.563966 93.461736 
L 247.747169 91.981221 
L 248.028668 87.606298 
L 248.460427 76.897235 
L 249.611603 46.895852 
L 249.874086 44.955634 
L 249.923904 44.928602 
L 249.971312 45.00865 
L 250.090233 45.669584 
L 250.290577 48.275496 
L 250.592165 55.553459 
L 251.06276 73.146852 
L 252.088319 112.149629 
L 252.3883 116.328953 
L 252.476152 116.550404 
L 252.526506 116.460992 
L 252.637659 115.698255 
L 252.830236 112.541 
L 253.125664 103.462187 
L 253.621703 80.082568 
L 254.304695 50.312472 
L 254.569321 46.337718 
L 254.612176 46.267583 
L 254.66494 46.407514 
L 254.778504 47.545693 
L 254.982598 52.265517 
L 255.350343 66.964922 
L 256.074582 95.110013 
L 256.37858 99.601257 
L 256.512768 100.018042 
L 256.549462 99.981159 
L 256.652849 99.557005 
L 256.846765 97.630914 
L 257.174601 91.785355 
L 257.746707 76.959446 
L 258.958415 45.235695 
L 259.374639 40.246568 
L 259.568555 39.677537 
L 259.58034 39.68171 
L 259.670066 39.856512 
L 259.829699 40.779745 
L 260.082272 43.764137 
L 260.448409 51.086673 
L 260.969626 66.507378 
L 261.818411 99.285401 
L 263.016727 144.012588 
L 263.506071 154.873582 
L 263.803909 157.620526 
L 263.888814 157.751219 
L 263.938097 157.682367 
L 264.051929 157.097995 
L 264.239952 154.752853 
L 264.506721 148.226462 
L 264.858127 133.486204 
L 265.340507 102.627629 
L 266.187953 48.445353 
L 266.367405 45.787687 
L 266.389636 45.831115 
L 266.461149 46.557927 
L 266.605515 50.774438 
L 266.850053 65.632211 
L 267.931323 140.822788 
L 267.993194 141.099582 
L 268.048369 140.873956 
L 268.16354 139.050742 
L 268.377545 131.45534 
L 268.774483 107.905062 
L 269.712191 51.898404 
L 270.087971 41.520672 
L 270.330634 39.425729 
L 270.369471 39.409488 
L 270.415271 39.498219 
L 270.533657 40.248748 
L 270.743107 43.273085 
L 271.077907 51.836243 
L 271.660727 73.475024 
L 272.699679 111.243557 
L 273.107599 118.931077 
L 273.347316 120.350428 
L 273.397402 120.321355 
L 273.421507 120.265672 
L 273.540964 119.582761 
L 273.739434 116.919613 
L 274.030576 109.566735 
L 274.46153 92.203827 
L 275.364151 55.12208 
L 275.559674 53.286109 
L 275.574405 53.297785 
L 275.637883 53.598963 
L 275.770464 55.55089 
L 275.994379 62.73394 
L 276.385693 83.848371 
L 277.082612 119.852811 
L 277.357684 124.777126 
L 277.423573 124.955262 
L 277.477944 124.818551 
L 277.593651 123.70932 
L 277.803102 119.146781 
L 278.162543 105.606222 
L 278.902853 67.706905 
L 279.351485 41.611954 
L 279.570578 38.022653 
L 279.573792 38.023523 
L 279.614504 38.170813 
L 279.714408 39.597988 
L 279.898147 46.02884 
L 280.204288 65.914515 
L 281.235204 138.816912 
L 281.366713 140.2043 
L 281.406354 140.074231 
L 281.501169 138.72315 
L 281.67714 132.412752 
L 281.964264 112.753606 
L 283.220166 15.23855 
L 283.264895 15.065752 
L 283.319267 15.336641 
L 283.430688 17.533997 
L 283.62889 26.667561 
L 283.957797 53.887024 
L 284.869793 133.482652 
L 285.030229 136.122959 
L 285.059155 136.035555 
L 285.140311 134.860828 
L 285.299676 128.666651 
L 285.571533 107.856657 
L 286.58879 21.498725 
L 286.695658 20.415929 
L 286.742798 20.629246 
L 286.846987 22.569033 
L 287.038761 31.08476 
L 287.363383 57.131931 
L 288.427511 149.24539 
L 288.615535 152.306701 
L 288.632677 152.280575 
L 288.696423 151.729773 
L 288.831414 148.21919 
L 289.05881 135.480506 
L 289.432447 99.910936 
L 290.369351 7.583573 
L 290.617639 0.912531 
L 290.643619 0.857283 
L 290.692366 1.086027 
L 290.798967 3.081689 
L 290.991811 11.656502 
L 291.311345 37.477294 
L 292.401186 133.333243 
L 292.579567 136.045305 
L 292.600459 136.007603 
L 292.670633 135.339179 
L 292.815802 131.381418 
L 293.063554 117.467718 
L 293.537899 75.445656 
L 293.918231 49.734282 
L 294.324545 33.707642 
L 294.562922 30.791732 
L 294.586224 30.783871 
L 294.627472 30.891402 
L 294.733804 31.878956 
L 294.923971 36.116594 
L 295.224755 48.586154 
L 295.759363 81.863559 
L 296.437802 120.148934 
L 296.719838 126.20333 
L 296.776352 126.379928 
L 296.830991 126.196227 
L 296.942413 124.719995 
L 297.136061 118.644677 
L 297.44622 100.724351 
L 298.355001 44.482542 
L 298.505259 42.990207 
L 298.537132 43.056595 
L 298.624984 43.887461 
L 298.802562 48.116663 
L 299.152093 62.876214 
L 300.112835 104.176298 
L 300.613963 116.390199 
L 300.952245 120.28167 
L 301.091254 120.652336 
L 301.127145 120.618465 
L 301.227585 120.225885 
L 301.400342 118.472652 
L 301.65479 113.263347 
L 302.006464 100.875701 
L 302.532769 73.274486 
L 303.466995 24.729737 
L 303.50851 24.692137 
L 303.558864 24.795899 
L 303.674571 25.645095 
L 303.875719 29.073219 
L 304.18561 38.740279 
L 304.688881 62.570359 
L 305.55829 102.779646 
L 305.865502 108.410002 
L 305.965675 108.770875 
L 306.013886 108.677348 
L 306.122093 107.842342 
L 306.316813 104.272417 
L 306.644113 93.453189 
L 307.589321 60.384642 
L 307.831716 58.329625 
L 307.870553 58.315743 
L 307.915818 58.402488 
L 308.036881 59.142561 
L 308.26401 62.182633 
L 308.855132 74.219746 
L 309.305104 80.756753 
L 309.590085 82.318893 
L 309.728291 82.429863 
L 309.755075 82.411549 
L 309.90078 82.130845 
L 310.227009 80.87798 
L 310.646179 79.596612 
L 310.829649 79.541098 
L 310.991692 79.788423 
L 311.267299 80.707479 
L 311.875832 82.723875 
L 312.019662 82.707198 
L 312.02234 82.704058 
L 312.171795 82.353 
L 312.399191 81.142822 
L 312.757829 77.816313 
L 313.220121 71.513857 
L 313.795173 61.049157 
L 314.138544 58.128997 
L 314.329514 57.742904 
L 314.340763 57.746941 
L 314.446292 57.922081 
L 314.630031 58.767926 
L 314.966973 61.584652 
L 315.538276 66.045201 
L 315.66309 66.226746 
L 315.701659 66.191958 
L 315.814151 65.824533 
L 316.001104 64.29909 
L 316.293317 59.769036 
L 317.371105 41.174274 
L 317.463242 41.02928 
L 317.511186 41.089534 
L 317.627696 41.620509 
L 317.829915 43.779525 
L 318.153734 50.013946 
L 318.784229 67.460491 
L 318.86351 69.757466 
L 318.86351 69.757466 
" clip-path="url(#p4301d3d117)" style="fill: none; stroke: #de8f05; stroke-opacity: 0.7; stroke-width: 1.8; stroke-linecap: square"/>
   </g>
  </g>
 </g>
 <defs>
  <clipPath id="p4301d3d117">
   <rect x="51.02351" y="10.158898" width="267.84" height="133.056"/>
  </clipPath>
 </defs>
</svg>
